0
SECTION
2
HEADER
9
$ACADVER
1
AC1009
0
ENDSEC
0
SECTION
2
TABLES
0
TABLE
2
VPORT
70
1
0
VPORT
2
*ACTIVE
70
0
10
0.0
20
0.0
11
1.0
21
1.0
12
41000.0
22
8000.0
13
0.0
23
0.0
14
10.0
24
10.0
15
10.0
25
10.0
16
0.0
26
0.0
36
1.0
17
0.0
27
0.0
37
0.0
40
42000.0
41
2.2
42
50.0
43
0.0
44
0.0
50
0.0
51
0.0
71
0
72
100
73
1
74
3
75
0
76
0
77
0
78
0
0
ENDTAB
0
TABLE
2
LTYPE
70
2
0
LTYPE
2
CONTINUOUS
70
64
3
Solid line
72
65
73
0
40
0
0
LTYPE
2
DASHED
70
64
3
Dashed __ __ __
72
65
73
2
40
250
49
125
49
-125
0
ENDTAB
0
TABLE
2
LAYER
70
9
0
LAYER
2
WALL
70
64
62
7
6
CONTINUOUS
0
LAYER
2
COLUMN
70
64
62
7
6
CONTINUOUS
0
LAYER
2
WINDOW
70
64
62
4
6
CONTINUOUS
0
LAYER
2
DOOR
70
64
62
3
6
CONTINUOUS
0
LAYER
2
HVAC
70
64
62
6
6
CONTINUOUS
0
LAYER
2
FURN
70
64
62
8
6
CONTINUOUS
0
LAYER
2
DECOR
70
64
62
40
6
CONTINUOUS
0
LAYER
2
DIM
70
64
62
1
6
CONTINUOUS
0
LAYER
2
TXT
70
64
62
2
6
CONTINUOUS
0
ENDTAB
0
TABLE
2
STYLE
70
1
0
STYLE
2
CN
70
0
40
0
41
1
50
0
71
0
42
2.5
3
simhei.ttf
4

0
ENDTAB
0
ENDSEC
0
SECTION
2
ENTITIES
0
LINE
8
WINDOW
10
14750
20
7612.5
30
0
11
13425
21
7612.5
31
0
0
LINE
8
FURN
10
15650
20
9925
30
0
11
13500
21
7725
31
0
0
LINE
8
FURN
10
13500
20
9925
30
0
11
15650
21
7725
31
0
0
LINE
8
FURN
10
15650
20
13550
30
0
11
12200
21
13550
31
0
0
LINE
8
FURN
10
15650
20
13225
30
0
11
14000
21
13225
31
0
0
LINE
8
FURN
10
13850
20
13225
30
0
11
12200
21
13225
31
0
0
LINE
8
FURN
10
15650
20
12900
30
0
11
14000
21
12900
31
0
0
LINE
8
FURN
10
13850
20
12900
30
0
11
12200
21
12900
31
0
0
LINE
8
FURN
10
15650
20
12575
30
0
11
14000
21
12575
31
0
0
LINE
8
FURN
10
13850
20
12575
30
0
11
12200
21
12575
31
0
0
LINE
8
FURN
10
15650
20
12250
30
0
11
14000
21
12250
31
0
0
LINE
8
FURN
10
13850
20
12250
30
0
11
12200
21
12250
31
0
0
LINE
8
FURN
10
15650
20
11925
30
0
11
14000
21
11925
31
0
0
LINE
8
FURN
10
13850
20
11925
30
0
11
12200
21
11925
31
0
0
LINE
8
FURN
10
15650
20
11600
30
0
11
14000
21
11600
31
0
0
LINE
8
FURN
10
13850
20
11600
30
0
11
12200
21
11600
31
0
0
LINE
8
FURN
10
15650
20
11275
30
0
11
14000
21
11275
31
0
0
LINE
8
FURN
10
13850
20
11275
30
0
11
12200
21
11275
31
0
0
LINE
8
FURN
10
15650
20
10950
30
0
11
14000
21
10950
31
0
0
LINE
8
FURN
10
13850
20
10950
30
0
11
12200
21
10950
31
0
0
LINE
8
FURN
10
15650
20
10625
30
0
11
14000
21
10625
31
0
0
LINE
8
FURN
10
13850
20
10625
30
0
11
12200
21
10625
31
0
0
LINE
8
FURN
10
14000
20
13550
30
0
11
14000
21
10200
31
0
0
LINE
8
FURN
10
13850
20
13550
30
0
11
13850
21
10200
31
0
0
LINE
8
FURN
10
14825
20
10500
30
0
11
14825
21
13150
31
0
0
LINE
8
FURN
10
14925
20
12950
30
0
11
14825
21
13150
31
0
0
LINE
8
FURN
10
14825
20
13150
30
0
11
14725
21
12950
31
0
0
LINE
8
DOOR
10
15050
20
14750
30
0
11
15050
21
13750
31
0
0
ARC
8
DOOR
10
14050
20
13750
30
0
40
1000
50
0
51
90
0
LINE
8
DOOR
10
11925
20
3250
30
0
11
11025
21
3250
31
0
0
ARC
8
DOOR
10
11025
20
2350
30
0
40
900
50
0
51
90
0
LINE
8
DOOR
10
9500
20
12975
30
0
11
9500
21
12225
31
0
0
ARC
8
DOOR
10
8750
20
12225
30
0
40
750
50
0
51
90
0
LINE
8
FURN
10
9825
20
14200
30
0
11
9807.9
21
14094.8
31
0
0
LINE
8
FURN
10
9807.9
20
14094.8
30
0
11
9759.1
21
14005.5
31
0
0
LINE
8
FURN
10
9759.1
20
14005.5
30
0
11
9686.1
21
13945.9
31
0
0
LINE
8
FURN
10
9686.1
20
13945.9
30
0
11
9600
21
13925
31
0
0
LINE
8
FURN
10
9600
20
13925
30
0
11
9513.9
21
13945.9
31
0
0
LINE
8
FURN
10
9513.9
20
13945.9
30
0
11
9440.9
21
14005.5
31
0
0
LINE
8
FURN
10
9440.9
20
14005.5
30
0
11
9392.1
21
14094.8
31
0
0
LINE
8
FURN
10
9392.1
20
14094.8
30
0
11
9375
21
14200
31
0
0
LINE
8
FURN
10
9375
20
14200
30
0
11
9392.1
21
14305.2
31
0
0
LINE
8
FURN
10
9392.1
20
14305.2
30
0
11
9440.9
21
14394.5
31
0
0
LINE
8
FURN
10
9440.9
20
14394.5
30
0
11
9513.9
21
14454.1
31
0
0
LINE
8
FURN
10
9513.9
20
14454.1
30
0
11
9600
21
14475
31
0
0
LINE
8
FURN
10
9600
20
14475
30
0
11
9686.1
21
14454.1
31
0
0
LINE
8
FURN
10
9686.1
20
14454.1
30
0
11
9759.1
21
14394.5
31
0
0
LINE
8
FURN
10
9759.1
20
14394.5
30
0
11
9807.9
21
14305.2
31
0
0
LINE
8
FURN
10
9807.9
20
14305.2
30
0
11
9825
21
14200
31
0
0
LINE
8
FURN
10
9375
20
14650
30
0
11
9825
21
14650
31
0
0
LINE
8
FURN
10
9825
20
14650
30
0
11
9825
21
14450
31
0
0
LINE
8
FURN
10
9825
20
14450
30
0
11
9375
21
14450
31
0
0
LINE
8
FURN
10
9375
20
14450
30
0
11
9375
21
14650
31
0
0
LINE
8
FURN
10
8200
20
14600
30
0
11
8950
21
14600
31
0
0
LINE
8
FURN
10
8950
20
14600
30
0
11
8950
21
14200
31
0
0
LINE
8
FURN
10
8950
20
14200
30
0
11
8200
21
14200
31
0
0
LINE
8
FURN
10
8200
20
14200
30
0
11
8200
21
14600
31
0
0
LINE
8
FURN
10
8775
20
14400
30
0
11
8759.8
21
14352.2
31
0
0
LINE
8
FURN
10
8759.8
20
14352.2
30
0
11
8716.4
21
14311.6
31
0
0
LINE
8
FURN
10
8716.4
20
14311.6
30
0
11
8651.5
21
14284.5
31
0
0
LINE
8
FURN
10
8651.5
20
14284.5
30
0
11
8575
21
14275
31
0
0
LINE
8
FURN
10
8575
20
14275
30
0
11
8498.5
21
14284.5
31
0
0
LINE
8
FURN
10
8498.5
20
14284.5
30
0
11
8433.6
21
14311.6
31
0
0
LINE
8
FURN
10
8433.6
20
14311.6
30
0
11
8390.2
21
14352.2
31
0
0
LINE
8
FURN
10
8390.2
20
14352.2
30
0
11
8375
21
14400
31
0
0
LINE
8
FURN
10
8375
20
14400
30
0
11
8390.2
21
14447.8
31
0
0
LINE
8
FURN
10
8390.2
20
14447.8
30
0
11
8433.6
21
14488.4
31
0
0
LINE
8
FURN
10
8433.6
20
14488.4
30
0
11
8498.5
21
14515.5
31
0
0
LINE
8
FURN
10
8498.5
20
14515.5
30
0
11
8575
21
14525
31
0
0
LINE
8
FURN
10
8575
20
14525
30
0
11
8651.5
21
14515.5
31
0
0
LINE
8
FURN
10
8651.5
20
14515.5
30
0
11
8716.4
21
14488.4
31
0
0
LINE
8
FURN
10
8716.4
20
14488.4
30
0
11
8759.8
21
14447.8
31
0
0
LINE
8
FURN
10
8759.8
20
14447.8
30
0
11
8775
21
14400
31
0
0
LINE
8
DOOR
10
14800
20
250
30
0
11
14800
21
1100
31
0
0
ARC
8
DOOR
10
13950
20
1100
30
0
40
850
50
270
51
0
0
LINE
8
DOOR
10
13150
20
250
30
0
11
13150
21
1100
31
0
0
ARC
8
DOOR
10
14000
20
1100
30
0
40
850
50
180
51
270
0
LINE
8
FURN
6
DASHED
10
12900
20
-100
30
0
11
15050
21
-100
31
0
0
LINE
8
FURN
6
DASHED
10
15050
20
-100
30
0
11
15050
21
-400
31
0
0
LINE
8
FURN
6
DASHED
10
15050
20
-400
30
0
11
12900
21
-400
31
0
0
LINE
8
FURN
6
DASHED
10
12900
20
-400
30
0
11
12900
21
-100
31
0
0
LINE
8
WINDOW
10
11850
20
125
30
0
11
8150
21
125
31
0
0
LINE
8
WINDOW
10
10500
20
225
30
0
11
10500
21
25
31
0
0
LINE
8
WINDOW
10
9300
20
225
30
0
11
9300
21
25
31
0
0
LINE
8
DOOR
10
11550
20
250
30
0
11
11550
21
1100
31
0
0
ARC
8
DOOR
10
10700
20
1100
30
0
40
850
50
270
51
0
0
LINE
8
WINDOW
10
7850
20
125
30
0
11
4150
21
125
31
0
0
LINE
8
DOOR
10
7500
20
250
30
0
11
7500
21
1100
31
0
0
ARC
8
DOOR
10
6650
20
1100
30
0
40
850
50
270
51
0
0
LINE
8
WINDOW
10
3850
20
125
30
0
11
400
21
125
31
0
0
LINE
8
DOOR
10
3500
20
250
30
0
11
3500
21
1100
31
0
0
ARC
8
DOOR
10
2650
20
1100
30
0
40
850
50
270
51
0
0
LINE
8
WINDOW
10
8500
20
14962.5
30
0
11
11500
21
14962.5
31
0
0
LINE
8
WINDOW
10
11500
20
14962.5
30
0
11
11500
21
14787.5
31
0
0
LINE
8
WINDOW
10
11500
20
14787.5
30
0
11
8500
21
14787.5
31
0
0
LINE
8
WINDOW
10
8500
20
14787.5
30
0
11
8500
21
14962.5
31
0
0
LINE
8
WINDOW
10
11500
20
14875
30
0
11
8500
21
14875
31
0
0
LINE
8
WINDOW
10
4500
20
14962.5
30
0
11
7500
21
14962.5
31
0
0
LINE
8
WINDOW
10
7500
20
14962.5
30
0
11
7500
21
14787.5
31
0
0
LINE
8
WINDOW
10
7500
20
14787.5
30
0
11
4500
21
14787.5
31
0
0
LINE
8
WINDOW
10
4500
20
14787.5
30
0
11
4500
21
14962.5
31
0
0
LINE
8
WINDOW
10
7500
20
14875
30
0
11
4500
21
14875
31
0
0
LINE
8
WINDOW
10
500
20
14962.5
30
0
11
3500
21
14962.5
31
0
0
LINE
8
WINDOW
10
3500
20
14962.5
30
0
11
3500
21
14787.5
31
0
0
LINE
8
WINDOW
10
3500
20
14787.5
30
0
11
500
21
14787.5
31
0
0
LINE
8
WINDOW
10
500
20
14787.5
30
0
11
500
21
14962.5
31
0
0
LINE
8
WINDOW
10
3500
20
14875
30
0
11
500
21
14875
31
0
0
LINE
8
WINDOW
10
15787.5
20
12750
30
0
11
15962.5
21
12750
31
0
0
LINE
8
WINDOW
10
15962.5
20
12750
30
0
11
15962.5
21
10750
31
0
0
LINE
8
WINDOW
10
15962.5
20
10750
30
0
11
15787.5
21
10750
31
0
0
LINE
8
WINDOW
10
15787.5
20
10750
30
0
11
15787.5
21
12750
31
0
0
LINE
8
WINDOW
10
15875
20
12750
30
0
11
15875
21
10750
31
0
0
LINE
8
WINDOW
10
15787.5
20
5000
30
0
11
15962.5
21
5000
31
0
0
LINE
8
WINDOW
10
15962.5
20
5000
30
0
11
15962.5
21
2000
31
0
0
LINE
8
WINDOW
10
15962.5
20
2000
30
0
11
15787.5
21
2000
31
0
0
LINE
8
WINDOW
10
15787.5
20
2000
30
0
11
15787.5
21
5000
31
0
0
LINE
8
WINDOW
10
15875
20
5000
30
0
11
15875
21
2000
31
0
0
LINE
8
WINDOW
10
37.5
20
12750
30
0
11
212.5
21
12750
31
0
0
LINE
8
WINDOW
10
212.5
20
12750
30
0
11
212.5
21
9750
31
0
0
LINE
8
WINDOW
10
212.5
20
9750
30
0
11
37.5
21
9750
31
0
0
LINE
8
WINDOW
10
37.5
20
9750
30
0
11
37.5
21
12750
31
0
0
LINE
8
WINDOW
10
125
20
12750
30
0
11
125
21
9750
31
0
0
LINE
8
WINDOW
10
37.5
20
6250
30
0
11
212.5
21
6250
31
0
0
LINE
8
WINDOW
10
212.5
20
6250
30
0
11
212.5
21
3250
31
0
0
LINE
8
WINDOW
10
212.5
20
3250
30
0
11
37.5
21
3250
31
0
0
LINE
8
WINDOW
10
37.5
20
3250
30
0
11
37.5
21
6250
31
0
0
LINE
8
WINDOW
10
125
20
6250
30
0
11
125
21
3250
31
0
0
LINE
8
FURN
10
12350
20
4100
30
0
11
14000
21
4100
31
0
0
LINE
8
FURN
10
14000
20
4100
30
0
11
14000
21
3550
31
0
0
LINE
8
FURN
10
14000
20
3550
30
0
11
12350
21
3550
31
0
0
LINE
8
FURN
10
12350
20
3550
30
0
11
12350
21
4100
31
0
0
LINE
8
FURN
10
14000
20
3825
30
0
11
12350
21
3825
31
0
0
LINE
8
FURN
10
14200
20
2500
30
0
11
15500
21
2500
31
0
0
LINE
8
FURN
10
15500
20
2500
30
0
11
15500
21
2000
31
0
0
LINE
8
FURN
10
15500
20
2000
30
0
11
14200
21
2000
31
0
0
LINE
8
FURN
10
14200
20
2000
30
0
11
14200
21
2500
31
0
0
CIRCLE
8
FURN
10
14800
20
3250
30
0
40
250
0
LINE
8
FURN
10
8150
20
12000
30
0
11
9500
21
12000
31
0
0
LINE
8
FURN
10
9500
20
12000
30
0
11
9500
21
9800
31
0
0
LINE
8
FURN
10
9500
20
9800
30
0
11
8150
21
9800
31
0
0
LINE
8
FURN
10
8150
20
9800
30
0
11
8150
21
12000
31
0
0
LINE
8
FURN
10
9500
20
9800
30
0
11
8150
21
9800
31
0
0
CIRCLE
8
FURN
10
10250
20
7500
30
0
40
350
0
CIRCLE
8
FURN
10
10250
20
5500
30
0
40
350
0
CIRCLE
8
FURN
10
10250
20
3250
30
0
40
350
0
CIRCLE
8
FURN
10
10250
20
1375
30
0
40
350
0
LINE
8
FURN
6
DASHED
10
4000
20
14750
30
0
11
4000
21
250
31
0
0
LINE
8
HVAC
10
10700
20
14700
30
0
11
11600
21
14700
31
0
0
LINE
8
HVAC
10
11600
20
14700
30
0
11
11600
21
14350
31
0
0
LINE
8
HVAC
10
11600
20
14350
30
0
11
10700
21
14350
31
0
0
LINE
8
HVAC
10
10700
20
14350
30
0
11
10700
21
14700
31
0
0
LINE
8
HVAC
10
11475
20
14700
30
0
11
11475
21
14350
31
0
0
LINE
8
HVAC
10
11325
20
14700
30
0
11
11325
21
14350
31
0
0
LINE
8
HVAC
10
11175
20
14700
30
0
11
11175
21
14350
31
0
0
LINE
8
HVAC
10
11025
20
14700
30
0
11
11025
21
14350
31
0
0
LINE
8
HVAC
10
10875
20
14700
30
0
11
10875
21
14350
31
0
0
LINE
8
HVAC
10
5850
20
14700
30
0
11
6750
21
14700
31
0
0
LINE
8
HVAC
10
6750
20
14700
30
0
11
6750
21
14350
31
0
0
LINE
8
HVAC
10
6750
20
14350
30
0
11
5850
21
14350
31
0
0
LINE
8
HVAC
10
5850
20
14350
30
0
11
5850
21
14700
31
0
0
LINE
8
HVAC
10
6625
20
14700
30
0
11
6625
21
14350
31
0
0
LINE
8
HVAC
10
6475
20
14700
30
0
11
6475
21
14350
31
0
0
LINE
8
HVAC
10
6325
20
14700
30
0
11
6325
21
14350
31
0
0
LINE
8
HVAC
10
6175
20
14700
30
0
11
6175
21
14350
31
0
0
LINE
8
HVAC
10
6025
20
14700
30
0
11
6025
21
14350
31
0
0
LINE
8
HVAC
10
1850
20
14700
30
0
11
2750
21
14700
31
0
0
LINE
8
HVAC
10
2750
20
14700
30
0
11
2750
21
14350
31
0
0
LINE
8
HVAC
10
2750
20
14350
30
0
11
1850
21
14350
31
0
0
LINE
8
HVAC
10
1850
20
14350
30
0
11
1850
21
14700
31
0
0
LINE
8
HVAC
10
2625
20
14700
30
0
11
2625
21
14350
31
0
0
LINE
8
HVAC
10
2475
20
14700
30
0
11
2475
21
14350
31
0
0
LINE
8
HVAC
10
2325
20
14700
30
0
11
2325
21
14350
31
0
0
LINE
8
HVAC
10
2175
20
14700
30
0
11
2175
21
14350
31
0
0
LINE
8
HVAC
10
2025
20
14700
30
0
11
2025
21
14350
31
0
0
SOLID
8
COLUMN
10
15775
20
-225
30
0
11
16225
21
-225
31
0
12
15775
22
225
32
0
13
16225
23
225
33
0
0
LINE
8
COLUMN
10
15775
20
-225
30
0
11
16225
21
-225
31
0
0
LINE
8
COLUMN
10
16225
20
-225
30
0
11
16225
21
225
31
0
0
LINE
8
COLUMN
10
16225
20
225
30
0
11
15775
21
225
31
0
0
LINE
8
COLUMN
10
15775
20
225
30
0
11
15775
21
-225
31
0
0
SOLID
8
COLUMN
10
11775
20
-225
30
0
11
12225
21
-225
31
0
12
11775
22
225
32
0
13
12225
23
225
33
0
0
LINE
8
COLUMN
10
11775
20
-225
30
0
11
12225
21
-225
31
0
0
LINE
8
COLUMN
10
12225
20
-225
30
0
11
12225
21
225
31
0
0
LINE
8
COLUMN
10
12225
20
225
30
0
11
11775
21
225
31
0
0
LINE
8
COLUMN
10
11775
20
225
30
0
11
11775
21
-225
31
0
0
SOLID
8
COLUMN
10
7775
20
-225
30
0
11
8225
21
-225
31
0
12
7775
22
225
32
0
13
8225
23
225
33
0
0
LINE
8
COLUMN
10
7775
20
-225
30
0
11
8225
21
-225
31
0
0
LINE
8
COLUMN
10
8225
20
-225
30
0
11
8225
21
225
31
0
0
LINE
8
COLUMN
10
8225
20
225
30
0
11
7775
21
225
31
0
0
LINE
8
COLUMN
10
7775
20
225
30
0
11
7775
21
-225
31
0
0
SOLID
8
COLUMN
10
3775
20
-225
30
0
11
4225
21
-225
31
0
12
3775
22
225
32
0
13
4225
23
225
33
0
0
LINE
8
COLUMN
10
3775
20
-225
30
0
11
4225
21
-225
31
0
0
LINE
8
COLUMN
10
4225
20
-225
30
0
11
4225
21
225
31
0
0
LINE
8
COLUMN
10
4225
20
225
30
0
11
3775
21
225
31
0
0
LINE
8
COLUMN
10
3775
20
225
30
0
11
3775
21
-225
31
0
0
SOLID
8
COLUMN
10
-225
20
-225
30
0
11
225
21
-225
31
0
12
-225
22
225
32
0
13
225
23
225
33
0
0
LINE
8
COLUMN
10
-225
20
-225
30
0
11
225
21
-225
31
0
0
LINE
8
COLUMN
10
225
20
-225
30
0
11
225
21
225
31
0
0
LINE
8
COLUMN
10
225
20
225
30
0
11
-225
21
225
31
0
0
LINE
8
COLUMN
10
-225
20
225
30
0
11
-225
21
-225
31
0
0
SOLID
8
COLUMN
10
15775
20
4775
30
0
11
16225
21
4775
31
0
12
15775
22
5225
32
0
13
16225
23
5225
33
0
0
LINE
8
COLUMN
10
15775
20
4775
30
0
11
16225
21
4775
31
0
0
LINE
8
COLUMN
10
16225
20
4775
30
0
11
16225
21
5225
31
0
0
LINE
8
COLUMN
10
16225
20
5225
30
0
11
15775
21
5225
31
0
0
LINE
8
COLUMN
10
15775
20
5225
30
0
11
15775
21
4775
31
0
0
SOLID
8
COLUMN
10
11775
20
4775
30
0
11
12225
21
4775
31
0
12
11775
22
5225
32
0
13
12225
23
5225
33
0
0
LINE
8
COLUMN
10
11775
20
4775
30
0
11
12225
21
4775
31
0
0
LINE
8
COLUMN
10
12225
20
4775
30
0
11
12225
21
5225
31
0
0
LINE
8
COLUMN
10
12225
20
5225
30
0
11
11775
21
5225
31
0
0
LINE
8
COLUMN
10
11775
20
5225
30
0
11
11775
21
4775
31
0
0
SOLID
8
COLUMN
10
7775
20
4775
30
0
11
8225
21
4775
31
0
12
7775
22
5225
32
0
13
8225
23
5225
33
0
0
LINE
8
COLUMN
10
7775
20
4775
30
0
11
8225
21
4775
31
0
0
LINE
8
COLUMN
10
8225
20
4775
30
0
11
8225
21
5225
31
0
0
LINE
8
COLUMN
10
8225
20
5225
30
0
11
7775
21
5225
31
0
0
LINE
8
COLUMN
10
7775
20
5225
30
0
11
7775
21
4775
31
0
0
SOLID
8
COLUMN
10
3775
20
4775
30
0
11
4225
21
4775
31
0
12
3775
22
5225
32
0
13
4225
23
5225
33
0
0
LINE
8
COLUMN
10
3775
20
4775
30
0
11
4225
21
4775
31
0
0
LINE
8
COLUMN
10
4225
20
4775
30
0
11
4225
21
5225
31
0
0
LINE
8
COLUMN
10
4225
20
5225
30
0
11
3775
21
5225
31
0
0
LINE
8
COLUMN
10
3775
20
5225
30
0
11
3775
21
4775
31
0
0
SOLID
8
COLUMN
10
-225
20
4775
30
0
11
225
21
4775
31
0
12
-225
22
5225
32
0
13
225
23
5225
33
0
0
LINE
8
COLUMN
10
-225
20
4775
30
0
11
225
21
4775
31
0
0
LINE
8
COLUMN
10
225
20
4775
30
0
11
225
21
5225
31
0
0
LINE
8
COLUMN
10
225
20
5225
30
0
11
-225
21
5225
31
0
0
LINE
8
COLUMN
10
-225
20
5225
30
0
11
-225
21
4775
31
0
0
SOLID
8
COLUMN
10
15775
20
9775
30
0
11
16225
21
9775
31
0
12
15775
22
10225
32
0
13
16225
23
10225
33
0
0
LINE
8
COLUMN
10
15775
20
9775
30
0
11
16225
21
9775
31
0
0
LINE
8
COLUMN
10
16225
20
9775
30
0
11
16225
21
10225
31
0
0
LINE
8
COLUMN
10
16225
20
10225
30
0
11
15775
21
10225
31
0
0
LINE
8
COLUMN
10
15775
20
10225
30
0
11
15775
21
9775
31
0
0
SOLID
8
COLUMN
10
11775
20
9775
30
0
11
12225
21
9775
31
0
12
11775
22
10225
32
0
13
12225
23
10225
33
0
0
LINE
8
COLUMN
10
11775
20
9775
30
0
11
12225
21
9775
31
0
0
LINE
8
COLUMN
10
12225
20
9775
30
0
11
12225
21
10225
31
0
0
LINE
8
COLUMN
10
12225
20
10225
30
0
11
11775
21
10225
31
0
0
LINE
8
COLUMN
10
11775
20
10225
30
0
11
11775
21
9775
31
0
0
SOLID
8
COLUMN
10
7775
20
9775
30
0
11
8225
21
9775
31
0
12
7775
22
10225
32
0
13
8225
23
10225
33
0
0
LINE
8
COLUMN
10
7775
20
9775
30
0
11
8225
21
9775
31
0
0
LINE
8
COLUMN
10
8225
20
9775
30
0
11
8225
21
10225
31
0
0
LINE
8
COLUMN
10
8225
20
10225
30
0
11
7775
21
10225
31
0
0
LINE
8
COLUMN
10
7775
20
10225
30
0
11
7775
21
9775
31
0
0
SOLID
8
COLUMN
10
3775
20
9775
30
0
11
4225
21
9775
31
0
12
3775
22
10225
32
0
13
4225
23
10225
33
0
0
LINE
8
COLUMN
10
3775
20
9775
30
0
11
4225
21
9775
31
0
0
LINE
8
COLUMN
10
4225
20
9775
30
0
11
4225
21
10225
31
0
0
LINE
8
COLUMN
10
4225
20
10225
30
0
11
3775
21
10225
31
0
0
LINE
8
COLUMN
10
3775
20
10225
30
0
11
3775
21
9775
31
0
0
SOLID
8
COLUMN
10
-225
20
9775
30
0
11
225
21
9775
31
0
12
-225
22
10225
32
0
13
225
23
10225
33
0
0
LINE
8
COLUMN
10
-225
20
9775
30
0
11
225
21
9775
31
0
0
LINE
8
COLUMN
10
225
20
9775
30
0
11
225
21
10225
31
0
0
LINE
8
COLUMN
10
225
20
10225
30
0
11
-225
21
10225
31
0
0
LINE
8
COLUMN
10
-225
20
10225
30
0
11
-225
21
9775
31
0
0
SOLID
8
COLUMN
10
15775
20
14775
30
0
11
16225
21
14775
31
0
12
15775
22
15225
32
0
13
16225
23
15225
33
0
0
LINE
8
COLUMN
10
15775
20
14775
30
0
11
16225
21
14775
31
0
0
LINE
8
COLUMN
10
16225
20
14775
30
0
11
16225
21
15225
31
0
0
LINE
8
COLUMN
10
16225
20
15225
30
0
11
15775
21
15225
31
0
0
LINE
8
COLUMN
10
15775
20
15225
30
0
11
15775
21
14775
31
0
0
SOLID
8
COLUMN
10
11775
20
14775
30
0
11
12225
21
14775
31
0
12
11775
22
15225
32
0
13
12225
23
15225
33
0
0
LINE
8
COLUMN
10
11775
20
14775
30
0
11
12225
21
14775
31
0
0
LINE
8
COLUMN
10
12225
20
14775
30
0
11
12225
21
15225
31
0
0
LINE
8
COLUMN
10
12225
20
15225
30
0
11
11775
21
15225
31
0
0
LINE
8
COLUMN
10
11775
20
15225
30
0
11
11775
21
14775
31
0
0
SOLID
8
COLUMN
10
7775
20
14775
30
0
11
8225
21
14775
31
0
12
7775
22
15225
32
0
13
8225
23
15225
33
0
0
LINE
8
COLUMN
10
7775
20
14775
30
0
11
8225
21
14775
31
0
0
LINE
8
COLUMN
10
8225
20
14775
30
0
11
8225
21
15225
31
0
0
LINE
8
COLUMN
10
8225
20
15225
30
0
11
7775
21
15225
31
0
0
LINE
8
COLUMN
10
7775
20
15225
30
0
11
7775
21
14775
31
0
0
SOLID
8
COLUMN
10
3775
20
14775
30
0
11
4225
21
14775
31
0
12
3775
22
15225
32
0
13
4225
23
15225
33
0
0
LINE
8
COLUMN
10
3775
20
14775
30
0
11
4225
21
14775
31
0
0
LINE
8
COLUMN
10
4225
20
14775
30
0
11
4225
21
15225
31
0
0
LINE
8
COLUMN
10
4225
20
15225
30
0
11
3775
21
15225
31
0
0
LINE
8
COLUMN
10
3775
20
15225
30
0
11
3775
21
14775
31
0
0
SOLID
8
COLUMN
10
-225
20
14775
30
0
11
225
21
14775
31
0
12
-225
22
15225
32
0
13
225
23
15225
33
0
0
LINE
8
COLUMN
10
-225
20
14775
30
0
11
225
21
14775
31
0
0
LINE
8
COLUMN
10
225
20
14775
30
0
11
225
21
15225
31
0
0
LINE
8
COLUMN
10
225
20
15225
30
0
11
-225
21
15225
31
0
0
LINE
8
COLUMN
10
-225
20
15225
30
0
11
-225
21
14775
31
0
0
LINE
8
DIM
10
0
20
0
30
0
11
0
21
-1400
31
0
0
LINE
8
DIM
10
4000
20
0
30
0
11
4000
21
-1050
31
0
0
LINE
8
DIM
10
8000
20
0
30
0
11
8000
21
-1050
31
0
0
LINE
8
DIM
10
12000
20
0
30
0
11
12000
21
-1050
31
0
0
LINE
8
DIM
10
16000
20
0
30
0
11
16000
21
-1400
31
0
0
LINE
8
DIM
10
0
20
-950
30
0
11
16000
21
-950
31
0
0
LINE
8
DIM
10
-100
20
-1050
30
0
11
100
21
-850
31
0
0
LINE
8
DIM
10
3900
20
-1050
30
0
11
4100
21
-850
31
0
0
LINE
8
DIM
10
7900
20
-1050
30
0
11
8100
21
-850
31
0
0
LINE
8
DIM
10
11900
20
-1050
30
0
11
12100
21
-850
31
0
0
LINE
8
DIM
10
15900
20
-1050
30
0
11
16100
21
-850
31
0
0
LINE
8
DIM
10
0
20
-1450
30
0
11
16000
21
-1450
31
0
0
LINE
8
DIM
10
-100
20
-1550
30
0
11
100
21
-1350
31
0
0
LINE
8
DIM
10
15900
20
-1550
30
0
11
16100
21
-1350
31
0
0
LINE
8
DIM
10
0
20
15000
30
0
11
-1200
21
15000
31
0
0
LINE
8
DIM
10
0
20
10000
30
0
11
-850
21
10000
31
0
0
LINE
8
DIM
10
0
20
5000
30
0
11
-850
21
5000
31
0
0
LINE
8
DIM
10
0
20
0
30
0
11
-1200
21
0
31
0
0
LINE
8
DIM
10
-750
20
15000
30
0
11
-750
21
0
31
0
0
LINE
8
DIM
10
-850
20
14900
30
0
11
-650
21
15100
31
0
0
LINE
8
DIM
10
-850
20
9900
30
0
11
-650
21
10100
31
0
0
LINE
8
DIM
10
-850
20
4900
30
0
11
-650
21
5100
31
0
0
LINE
8
DIM
10
-850
20
-100
30
0
11
-650
21
100
31
0
0
LINE
8
DIM
10
-1100
20
15000
30
0
11
-1100
21
0
31
0
0
LINE
8
DIM
10
-1200
20
14900
30
0
11
-1000
21
15100
31
0
0
LINE
8
DIM
10
-1200
20
-100
30
0
11
-1000
21
100
31
0
0
SOLID
8
WALL
10
0
20
14750
30
0
11
500
21
14750
31
0
12
0
22
15000
32
0
13
500
23
15000
33
0
0
LINE
8
WALL
10
0
20
14750
30
0
11
500
21
14750
31
0
0
LINE
8
WALL
10
500
20
14750
30
0
11
500
21
15000
31
0
0
LINE
8
WALL
10
500
20
15000
30
0
11
0
21
15000
31
0
0
LINE
8
WALL
10
0
20
15000
30
0
11
0
21
14750
31
0
0
SOLID
8
WALL
10
3500
20
14750
30
0
11
4500
21
14750
31
0
12
3500
22
15000
32
0
13
4500
23
15000
33
0
0
LINE
8
WALL
10
3500
20
14750
30
0
11
4500
21
14750
31
0
0
LINE
8
WALL
10
4500
20
14750
30
0
11
4500
21
15000
31
0
0
LINE
8
WALL
10
4500
20
15000
30
0
11
3500
21
15000
31
0
0
LINE
8
WALL
10
3500
20
15000
30
0
11
3500
21
14750
31
0
0
SOLID
8
WALL
10
7500
20
14750
30
0
11
8500
21
14750
31
0
12
7500
22
15000
32
0
13
8500
23
15000
33
0
0
LINE
8
WALL
10
7500
20
14750
30
0
11
8500
21
14750
31
0
0
LINE
8
WALL
10
8500
20
14750
30
0
11
8500
21
15000
31
0
0
LINE
8
WALL
10
8500
20
15000
30
0
11
7500
21
15000
31
0
0
LINE
8
WALL
10
7500
20
15000
30
0
11
7500
21
14750
31
0
0
SOLID
8
WALL
10
11500
20
14750
30
0
11
14050
21
14750
31
0
12
11500
22
15000
32
0
13
14050
23
15000
33
0
0
LINE
8
WALL
10
11500
20
14750
30
0
11
14050
21
14750
31
0
0
LINE
8
WALL
10
14050
20
14750
30
0
11
14050
21
15000
31
0
0
LINE
8
WALL
10
14050
20
15000
30
0
11
11500
21
15000
31
0
0
LINE
8
WALL
10
11500
20
15000
30
0
11
11500
21
14750
31
0
0
SOLID
8
WALL
10
15050
20
14750
30
0
11
16000
21
14750
31
0
12
15050
22
15000
32
0
13
16000
23
15000
33
0
0
LINE
8
WALL
10
15050
20
14750
30
0
11
16000
21
14750
31
0
0
LINE
8
WALL
10
16000
20
14750
30
0
11
16000
21
15000
31
0
0
LINE
8
WALL
10
16000
20
15000
30
0
11
15050
21
15000
31
0
0
LINE
8
WALL
10
15050
20
15000
30
0
11
15050
21
14750
31
0
0
SOLID
8
WALL
10
0
20
0
30
0
11
400
21
0
31
0
12
0
22
250
32
0
13
400
23
250
33
0
0
LINE
8
WALL
10
0
20
0
30
0
11
400
21
0
31
0
0
LINE
8
WALL
10
400
20
0
30
0
11
400
21
250
31
0
0
LINE
8
WALL
10
400
20
250
30
0
11
0
21
250
31
0
0
LINE
8
WALL
10
0
20
250
30
0
11
0
21
0
31
0
0
SOLID
8
WALL
10
3850
20
0
30
0
11
4150
21
0
31
0
12
3850
22
250
32
0
13
4150
23
250
33
0
0
LINE
8
WALL
10
3850
20
0
30
0
11
4150
21
0
31
0
0
LINE
8
WALL
10
4150
20
0
30
0
11
4150
21
250
31
0
0
LINE
8
WALL
10
4150
20
250
30
0
11
3850
21
250
31
0
0
LINE
8
WALL
10
3850
20
250
30
0
11
3850
21
0
31
0
0
SOLID
8
WALL
10
7850
20
0
30
0
11
8150
21
0
31
0
12
7850
22
250
32
0
13
8150
23
250
33
0
0
LINE
8
WALL
10
7850
20
0
30
0
11
8150
21
0
31
0
0
LINE
8
WALL
10
8150
20
0
30
0
11
8150
21
250
31
0
0
LINE
8
WALL
10
8150
20
250
30
0
11
7850
21
250
31
0
0
LINE
8
WALL
10
7850
20
250
30
0
11
7850
21
0
31
0
0
SOLID
8
WALL
10
11850
20
0
30
0
11
13150
21
0
31
0
12
11850
22
250
32
0
13
13150
23
250
33
0
0
LINE
8
WALL
10
11850
20
0
30
0
11
13150
21
0
31
0
0
LINE
8
WALL
10
13150
20
0
30
0
11
13150
21
250
31
0
0
LINE
8
WALL
10
13150
20
250
30
0
11
11850
21
250
31
0
0
LINE
8
WALL
10
11850
20
250
30
0
11
11850
21
0
31
0
0
SOLID
8
WALL
10
14800
20
0
30
0
11
16000
21
0
31
0
12
14800
22
250
32
0
13
16000
23
250
33
0
0
LINE
8
WALL
10
14800
20
0
30
0
11
16000
21
0
31
0
0
LINE
8
WALL
10
16000
20
0
30
0
11
16000
21
250
31
0
0
LINE
8
WALL
10
16000
20
250
30
0
11
14800
21
250
31
0
0
LINE
8
WALL
10
14800
20
250
30
0
11
14800
21
0
31
0
0
SOLID
8
WALL
10
0
20
12750
30
0
11
250
21
12750
31
0
12
0
22
15000
32
0
13
250
23
15000
33
0
0
LINE
8
WALL
10
0
20
12750
30
0
11
250
21
12750
31
0
0
LINE
8
WALL
10
250
20
12750
30
0
11
250
21
15000
31
0
0
LINE
8
WALL
10
250
20
15000
30
0
11
0
21
15000
31
0
0
LINE
8
WALL
10
0
20
15000
30
0
11
0
21
12750
31
0
0
SOLID
8
WALL
10
0
20
6250
30
0
11
250
21
6250
31
0
12
0
22
9750
32
0
13
250
23
9750
33
0
0
LINE
8
WALL
10
0
20
6250
30
0
11
250
21
6250
31
0
0
LINE
8
WALL
10
250
20
6250
30
0
11
250
21
9750
31
0
0
LINE
8
WALL
10
250
20
9750
30
0
11
0
21
9750
31
0
0
LINE
8
WALL
10
0
20
9750
30
0
11
0
21
6250
31
0
0
SOLID
8
WALL
10
0
20
0
30
0
11
250
21
0
31
0
12
0
22
3250
32
0
13
250
23
3250
33
0
0
LINE
8
WALL
10
0
20
0
30
0
11
250
21
0
31
0
0
LINE
8
WALL
10
250
20
0
30
0
11
250
21
3250
31
0
0
LINE
8
WALL
10
250
20
3250
30
0
11
0
21
3250
31
0
0
LINE
8
WALL
10
0
20
3250
30
0
11
0
21
0
31
0
0
SOLID
8
WALL
10
15750
20
12750
30
0
11
16000
21
12750
31
0
12
15750
22
15000
32
0
13
16000
23
15000
33
0
0
LINE
8
WALL
10
15750
20
12750
30
0
11
16000
21
12750
31
0
0
LINE
8
WALL
10
16000
20
12750
30
0
11
16000
21
15000
31
0
0
LINE
8
WALL
10
16000
20
15000
30
0
11
15750
21
15000
31
0
0
LINE
8
WALL
10
15750
20
15000
30
0
11
15750
21
12750
31
0
0
SOLID
8
WALL
10
15750
20
5000
30
0
11
16000
21
5000
31
0
12
15750
22
10750
32
0
13
16000
23
10750
33
0
0
LINE
8
WALL
10
15750
20
5000
30
0
11
16000
21
5000
31
0
0
LINE
8
WALL
10
16000
20
5000
30
0
11
16000
21
10750
31
0
0
LINE
8
WALL
10
16000
20
10750
30
0
11
15750
21
10750
31
0
0
LINE
8
WALL
10
15750
20
10750
30
0
11
15750
21
5000
31
0
0
SOLID
8
WALL
10
15750
20
0
30
0
11
16000
21
0
31
0
12
15750
22
2000
32
0
13
16000
23
2000
33
0
0
LINE
8
WALL
10
15750
20
0
30
0
11
16000
21
0
31
0
0
LINE
8
WALL
10
16000
20
0
30
0
11
16000
21
2000
31
0
0
LINE
8
WALL
10
16000
20
2000
30
0
11
15750
21
2000
31
0
0
LINE
8
WALL
10
15750
20
2000
30
0
11
15750
21
0
31
0
0
SOLID
8
WALL
10
11925
20
3250
30
0
11
12050
21
3250
31
0
12
11925
22
14750
32
0
13
12050
23
14750
33
0
0
LINE
8
WALL
10
11925
20
3250
30
0
11
12050
21
3250
31
0
0
LINE
8
WALL
10
12050
20
3250
30
0
11
12050
21
14750
31
0
0
LINE
8
WALL
10
12050
20
14750
30
0
11
11925
21
14750
31
0
0
LINE
8
WALL
10
11925
20
14750
30
0
11
11925
21
3250
31
0
0
SOLID
8
WALL
10
11925
20
250
30
0
11
12050
21
250
31
0
12
11925
22
2250
32
0
13
12050
23
2250
33
0
0
LINE
8
WALL
10
11925
20
250
30
0
11
12050
21
250
31
0
0
LINE
8
WALL
10
12050
20
250
30
0
11
12050
21
2250
31
0
0
LINE
8
WALL
10
12050
20
2250
30
0
11
11925
21
2250
31
0
0
LINE
8
WALL
10
11925
20
2250
30
0
11
11925
21
250
31
0
0
SOLID
8
WALL
10
7925
20
250
30
0
11
8050
21
250
31
0
12
7925
22
14750
32
0
13
8050
23
14750
33
0
0
LINE
8
WALL
10
7925
20
250
30
0
11
8050
21
250
31
0
0
LINE
8
WALL
10
8050
20
250
30
0
11
8050
21
14750
31
0
0
LINE
8
WALL
10
8050
20
14750
30
0
11
7925
21
14750
31
0
0
LINE
8
WALL
10
7925
20
14750
30
0
11
7925
21
250
31
0
0
SOLID
8
WALL
10
13350
20
9925
30
0
11
15750
21
9925
31
0
12
13350
22
10050
32
0
13
15750
23
10050
33
0
0
LINE
8
WALL
10
13350
20
9925
30
0
11
15750
21
9925
31
0
0
LINE
8
WALL
10
15750
20
9925
30
0
11
15750
21
10050
31
0
0
LINE
8
WALL
10
15750
20
10050
30
0
11
13350
21
10050
31
0
0
LINE
8
WALL
10
13350
20
10050
30
0
11
13350
21
9925
31
0
0
SOLID
8
WALL
10
13300
20
7550
30
0
11
13425
21
7550
31
0
12
13300
22
10050
32
0
13
13425
23
10050
33
0
0
LINE
8
WALL
10
13300
20
7550
30
0
11
13425
21
7550
31
0
0
LINE
8
WALL
10
13425
20
7550
30
0
11
13425
21
10050
31
0
0
LINE
8
WALL
10
13425
20
10050
30
0
11
13300
21
10050
31
0
0
LINE
8
WALL
10
13300
20
10050
30
0
11
13300
21
7550
31
0
0
SOLID
8
WALL
10
14750
20
7550
30
0
11
15750
21
7550
31
0
12
14750
22
7675
32
0
13
15750
23
7675
33
0
0
LINE
8
WALL
10
14750
20
7550
30
0
11
15750
21
7550
31
0
0
LINE
8
WALL
10
15750
20
7550
30
0
11
15750
21
7675
31
0
0
LINE
8
WALL
10
15750
20
7675
30
0
11
14750
21
7675
31
0
0
LINE
8
WALL
10
14750
20
7675
30
0
11
14750
21
7550
31
0
0
SOLID
8
WALL
10
8050
20
12975
30
0
11
8750
21
12975
31
0
12
8050
22
13100
32
0
13
8750
23
13100
33
0
0
LINE
8
WALL
10
8050
20
12975
30
0
11
8750
21
12975
31
0
0
LINE
8
WALL
10
8750
20
12975
30
0
11
8750
21
13100
31
0
0
LINE
8
WALL
10
8750
20
13100
30
0
11
8050
21
13100
31
0
0
LINE
8
WALL
10
8050
20
13100
30
0
11
8050
21
12975
31
0
0
SOLID
8
WALL
10
9500
20
12975
30
0
11
10050
21
12975
31
0
12
9500
22
13100
32
0
13
10050
23
13100
33
0
0
LINE
8
WALL
10
9500
20
12975
30
0
11
10050
21
12975
31
0
0
LINE
8
WALL
10
10050
20
12975
30
0
11
10050
21
13100
31
0
0
LINE
8
WALL
10
10050
20
13100
30
0
11
9500
21
13100
31
0
0
LINE
8
WALL
10
9500
20
13100
30
0
11
9500
21
12975
31
0
0
SOLID
8
WALL
10
9925
20
13100
30
0
11
10050
21
13100
31
0
12
9925
22
14700
32
0
13
10050
23
14700
33
0
0
LINE
8
WALL
10
9925
20
13100
30
0
11
10050
21
13100
31
0
0
LINE
8
WALL
10
10050
20
13100
30
0
11
10050
21
14700
31
0
0
LINE
8
WALL
10
10050
20
14700
30
0
11
9925
21
14700
31
0
0
LINE
8
WALL
10
9925
20
14700
30
0
11
9925
21
13100
31
0
0
LINE
8
DOOR
10
36650
20
4250
30
0
11
35900
21
4250
31
0
0
ARC
8
DOOR
10
35900
20
3500
30
0
40
750
50
0
51
90
0
LINE
8
FURN
10
36975
20
6375
30
0
11
37775
21
6375
31
0
0
LINE
8
FURN
10
37775
20
6375
30
0
11
37775
21
5575
31
0
0
LINE
8
FURN
10
37775
20
5575
30
0
11
36975
21
5575
31
0
0
LINE
8
FURN
10
36975
20
5575
30
0
11
36975
21
6375
31
0
0
LINE
8
FURN
10
37775
20
6375
30
0
11
36975
21
5575
31
0
0
CIRCLE
8
FURN
10
37375
20
5975
30
0
40
62.5
0
LINE
8
FURN
10
36250
20
6400
30
0
11
36750
21
6400
31
0
0
LINE
8
FURN
10
36750
20
6400
30
0
11
36750
21
6200
31
0
0
LINE
8
FURN
10
36750
20
6200
30
0
11
36250
21
6200
31
0
0
LINE
8
FURN
10
36250
20
6200
30
0
11
36250
21
6400
31
0
0
LINE
8
FURN
10
36725
20
5850
30
0
11
36707.9
21
5744.8
31
0
0
LINE
8
FURN
10
36707.9
20
5744.8
30
0
11
36659.1
21
5655.5
31
0
0
LINE
8
FURN
10
36659.1
20
5655.5
30
0
11
36586.1
21
5595.9
31
0
0
LINE
8
FURN
10
36586.1
20
5595.9
30
0
11
36500
21
5575
31
0
0
LINE
8
FURN
10
36500
20
5575
30
0
11
36413.9
21
5595.9
31
0
0
LINE
8
FURN
10
36413.9
20
5595.9
30
0
11
36340.9
21
5655.5
31
0
0
LINE
8
FURN
10
36340.9
20
5655.5
30
0
11
36292.1
21
5744.8
31
0
0
LINE
8
FURN
10
36292.1
20
5744.8
30
0
11
36275
21
5850
31
0
0
LINE
8
FURN
10
36275
20
5850
30
0
11
36292.1
21
5955.2
31
0
0
LINE
8
FURN
10
36292.1
20
5955.2
30
0
11
36340.9
21
6044.5
31
0
0
LINE
8
FURN
10
36340.9
20
6044.5
30
0
11
36413.9
21
6104.1
31
0
0
LINE
8
FURN
10
36413.9
20
6104.1
30
0
11
36500
21
6125
31
0
0
LINE
8
FURN
10
36500
20
6125
30
0
11
36586.1
21
6104.1
31
0
0
LINE
8
FURN
10
36586.1
20
6104.1
30
0
11
36659.1
21
6044.5
31
0
0
LINE
8
FURN
10
36659.1
20
6044.5
30
0
11
36707.9
21
5955.2
31
0
0
LINE
8
FURN
10
36707.9
20
5955.2
30
0
11
36725
21
5850
31
0
0
LINE
8
FURN
10
35900
20
5050
30
0
11
36750
21
5050
31
0
0
LINE
8
FURN
10
36750
20
5050
30
0
11
36750
21
4550
31
0
0
LINE
8
FURN
10
36750
20
4550
30
0
11
35900
21
4550
31
0
0
LINE
8
FURN
10
35900
20
4550
30
0
11
35900
21
5050
31
0
0
LINE
8
FURN
10
36625
20
4800
30
0
11
36602.2
21
4733
31
0
0
LINE
8
FURN
10
36602.2
20
4733
30
0
11
36537.1
21
4676.3
31
0
0
LINE
8
FURN
10
36537.1
20
4676.3
30
0
11
36439.8
21
4638.3
31
0
0
LINE
8
FURN
10
36439.8
20
4638.3
30
0
11
36325
21
4625
31
0
0
LINE
8
FURN
10
36325
20
4625
30
0
11
36210.2
21
4638.3
31
0
0
LINE
8
FURN
10
36210.2
20
4638.3
30
0
11
36112.9
21
4676.3
31
0
0
LINE
8
FURN
10
36112.9
20
4676.3
30
0
11
36047.8
21
4733
31
0
0
LINE
8
FURN
10
36047.8
20
4733
30
0
11
36025
21
4800
31
0
0
LINE
8
FURN
10
36025
20
4800
30
0
11
36047.8
21
4867
31
0
0
LINE
8
FURN
10
36047.8
20
4867
30
0
11
36112.9
21
4923.7
31
0
0
LINE
8
FURN
10
36112.9
20
4923.7
30
0
11
36210.2
21
4961.7
31
0
0
LINE
8
FURN
10
36210.2
20
4961.7
30
0
11
36325
21
4975
31
0
0
LINE
8
FURN
10
36325
20
4975
30
0
11
36439.8
21
4961.7
31
0
0
LINE
8
FURN
10
36439.8
20
4961.7
30
0
11
36537.1
21
4923.7
31
0
0
LINE
8
FURN
10
36537.1
20
4923.7
30
0
11
36602.2
21
4867
31
0
0
LINE
8
FURN
10
36602.2
20
4867
30
0
11
36625
21
4800
31
0
0
LINE
8
FURN
10
35200
20
6450
30
0
11
35600
21
6450
31
0
0
LINE
8
FURN
10
35600
20
6450
30
0
11
35600
21
4850
31
0
0
LINE
8
FURN
10
35600
20
4850
30
0
11
35200
21
4850
31
0
0
LINE
8
FURN
10
35200
20
4850
30
0
11
35200
21
6450
31
0
0
LINE
8
FURN
10
35600
20
5650
30
0
11
35200
21
5650
31
0
0
LINE
8
FURN
10
35200
20
2850
30
0
11
36850
21
2850
31
0
0
LINE
8
FURN
10
36850
20
2850
30
0
11
36850
21
650
31
0
0
LINE
8
FURN
10
36850
20
650
30
0
11
35200
21
650
31
0
0
LINE
8
FURN
10
35200
20
650
30
0
11
35200
21
2850
31
0
0
LINE
8
FURN
10
36050
20
2700
30
0
11
36700
21
2700
31
0
0
LINE
8
FURN
10
36700
20
2700
30
0
11
36700
21
2325
31
0
0
LINE
8
FURN
10
36700
20
2325
30
0
11
36050
21
2325
31
0
0
LINE
8
FURN
10
36050
20
2325
30
0
11
36050
21
2700
31
0
0
LINE
8
FURN
10
35350
20
2700
30
0
11
36000
21
2700
31
0
0
LINE
8
FURN
10
36000
20
2700
30
0
11
36000
21
2325
31
0
0
LINE
8
FURN
10
36000
20
2325
30
0
11
35350
21
2325
31
0
0
LINE
8
FURN
10
35350
20
2325
30
0
11
35350
21
2700
31
0
0
LINE
8
FURN
10
36900
20
2850
30
0
11
37100
21
2850
31
0
0
LINE
8
FURN
10
37100
20
2850
30
0
11
37100
21
2400
31
0
0
LINE
8
FURN
10
37100
20
2400
30
0
11
36900
21
2400
31
0
0
LINE
8
FURN
10
36900
20
2400
30
0
11
36900
21
2850
31
0
0
LINE
8
FURN
10
34950
20
2850
30
0
11
35150
21
2850
31
0
0
LINE
8
FURN
10
35150
20
2850
30
0
11
35150
21
2400
31
0
0
LINE
8
FURN
10
35150
20
2400
30
0
11
34950
21
2400
31
0
0
LINE
8
FURN
10
34950
20
2400
30
0
11
34950
21
2850
31
0
0
LINE
8
FURN
10
34150
20
3650
30
0
11
35000
21
3650
31
0
0
LINE
8
FURN
10
35000
20
3650
30
0
11
35000
21
3200
31
0
0
LINE
8
FURN
10
35000
20
3200
30
0
11
34150
21
3200
31
0
0
LINE
8
FURN
10
34150
20
3200
30
0
11
34150
21
3650
31
0
0
LINE
8
FURN
10
34150
20
2850
30
0
11
34950
21
2850
31
0
0
LINE
8
FURN
10
34950
20
2850
30
0
11
34950
21
2650
31
0
0
LINE
8
FURN
10
34950
20
2650
30
0
11
34150
21
2650
31
0
0
LINE
8
FURN
10
34150
20
2650
30
0
11
34150
21
2850
31
0
0
LINE
8
HVAC
10
34150
20
525
30
0
11
35000
21
525
31
0
0
LINE
8
HVAC
10
35000
20
525
30
0
11
35000
21
175
31
0
0
LINE
8
HVAC
10
35000
20
175
30
0
11
34150
21
175
31
0
0
LINE
8
HVAC
10
34150
20
175
30
0
11
34150
21
525
31
0
0
LINE
8
HVAC
10
34875
20
525
30
0
11
34875
21
175
31
0
0
LINE
8
HVAC
10
34725
20
525
30
0
11
34725
21
175
31
0
0
LINE
8
HVAC
10
34575
20
525
30
0
11
34575
21
175
31
0
0
LINE
8
HVAC
10
34425
20
525
30
0
11
34425
21
175
31
0
0
LINE
8
HVAC
10
34275
20
525
30
0
11
34275
21
175
31
0
0
CIRCLE
8
FURN
10
35150
20
350
30
0
40
50
0
LINE
8
DOOR
10
32650
20
4250
30
0
11
31900
21
4250
31
0
0
ARC
8
DOOR
10
31900
20
3500
30
0
40
750
50
0
51
90
0
LINE
8
FURN
10
32975
20
6375
30
0
11
33775
21
6375
31
0
0
LINE
8
FURN
10
33775
20
6375
30
0
11
33775
21
5575
31
0
0
LINE
8
FURN
10
33775
20
5575
30
0
11
32975
21
5575
31
0
0
LINE
8
FURN
10
32975
20
5575
30
0
11
32975
21
6375
31
0
0
LINE
8
FURN
10
33775
20
6375
30
0
11
32975
21
5575
31
0
0
CIRCLE
8
FURN
10
33375
20
5975
30
0
40
62.5
0
LINE
8
FURN
10
32250
20
6400
30
0
11
32750
21
6400
31
0
0
LINE
8
FURN
10
32750
20
6400
30
0
11
32750
21
6200
31
0
0
LINE
8
FURN
10
32750
20
6200
30
0
11
32250
21
6200
31
0
0
LINE
8
FURN
10
32250
20
6200
30
0
11
32250
21
6400
31
0
0
LINE
8
FURN
10
32725
20
5850
30
0
11
32707.9
21
5744.8
31
0
0
LINE
8
FURN
10
32707.9
20
5744.8
30
0
11
32659.1
21
5655.5
31
0
0
LINE
8
FURN
10
32659.1
20
5655.5
30
0
11
32586.1
21
5595.9
31
0
0
LINE
8
FURN
10
32586.1
20
5595.9
30
0
11
32500
21
5575
31
0
0
LINE
8
FURN
10
32500
20
5575
30
0
11
32413.9
21
5595.9
31
0
0
LINE
8
FURN
10
32413.9
20
5595.9
30
0
11
32340.9
21
5655.5
31
0
0
LINE
8
FURN
10
32340.9
20
5655.5
30
0
11
32292.1
21
5744.8
31
0
0
LINE
8
FURN
10
32292.1
20
5744.8
30
0
11
32275
21
5850
31
0
0
LINE
8
FURN
10
32275
20
5850
30
0
11
32292.1
21
5955.2
31
0
0
LINE
8
FURN
10
32292.1
20
5955.2
30
0
11
32340.9
21
6044.5
31
0
0
LINE
8
FURN
10
32340.9
20
6044.5
30
0
11
32413.9
21
6104.1
31
0
0
LINE
8
FURN
10
32413.9
20
6104.1
30
0
11
32500
21
6125
31
0
0
LINE
8
FURN
10
32500
20
6125
30
0
11
32586.1
21
6104.1
31
0
0
LINE
8
FURN
10
32586.1
20
6104.1
30
0
11
32659.1
21
6044.5
31
0
0
LINE
8
FURN
10
32659.1
20
6044.5
30
0
11
32707.9
21
5955.2
31
0
0
LINE
8
FURN
10
32707.9
20
5955.2
30
0
11
32725
21
5850
31
0
0
LINE
8
FURN
10
31900
20
5050
30
0
11
32750
21
5050
31
0
0
LINE
8
FURN
10
32750
20
5050
30
0
11
32750
21
4550
31
0
0
LINE
8
FURN
10
32750
20
4550
30
0
11
31900
21
4550
31
0
0
LINE
8
FURN
10
31900
20
4550
30
0
11
31900
21
5050
31
0
0
LINE
8
FURN
10
32625
20
4800
30
0
11
32602.2
21
4733
31
0
0
LINE
8
FURN
10
32602.2
20
4733
30
0
11
32537.1
21
4676.3
31
0
0
LINE
8
FURN
10
32537.1
20
4676.3
30
0
11
32439.8
21
4638.3
31
0
0
LINE
8
FURN
10
32439.8
20
4638.3
30
0
11
32325
21
4625
31
0
0
LINE
8
FURN
10
32325
20
4625
30
0
11
32210.2
21
4638.3
31
0
0
LINE
8
FURN
10
32210.2
20
4638.3
30
0
11
32112.9
21
4676.3
31
0
0
LINE
8
FURN
10
32112.9
20
4676.3
30
0
11
32047.8
21
4733
31
0
0
LINE
8
FURN
10
32047.8
20
4733
30
0
11
32025
21
4800
31
0
0
LINE
8
FURN
10
32025
20
4800
30
0
11
32047.8
21
4867
31
0
0
LINE
8
FURN
10
32047.8
20
4867
30
0
11
32112.9
21
4923.7
31
0
0
LINE
8
FURN
10
32112.9
20
4923.7
30
0
11
32210.2
21
4961.7
31
0
0
LINE
8
FURN
10
32210.2
20
4961.7
30
0
11
32325
21
4975
31
0
0
LINE
8
FURN
10
32325
20
4975
30
0
11
32439.8
21
4961.7
31
0
0
LINE
8
FURN
10
32439.8
20
4961.7
30
0
11
32537.1
21
4923.7
31
0
0
LINE
8
FURN
10
32537.1
20
4923.7
30
0
11
32602.2
21
4867
31
0
0
LINE
8
FURN
10
32602.2
20
4867
30
0
11
32625
21
4800
31
0
0
LINE
8
FURN
10
31200
20
6450
30
0
11
31600
21
6450
31
0
0
LINE
8
FURN
10
31600
20
6450
30
0
11
31600
21
4850
31
0
0
LINE
8
FURN
10
31600
20
4850
30
0
11
31200
21
4850
31
0
0
LINE
8
FURN
10
31200
20
4850
30
0
11
31200
21
6450
31
0
0
LINE
8
FURN
10
31600
20
5650
30
0
11
31200
21
5650
31
0
0
LINE
8
FURN
10
31200
20
2850
30
0
11
32850
21
2850
31
0
0
LINE
8
FURN
10
32850
20
2850
30
0
11
32850
21
650
31
0
0
LINE
8
FURN
10
32850
20
650
30
0
11
31200
21
650
31
0
0
LINE
8
FURN
10
31200
20
650
30
0
11
31200
21
2850
31
0
0
LINE
8
FURN
10
32050
20
2700
30
0
11
32700
21
2700
31
0
0
LINE
8
FURN
10
32700
20
2700
30
0
11
32700
21
2325
31
0
0
LINE
8
FURN
10
32700
20
2325
30
0
11
32050
21
2325
31
0
0
LINE
8
FURN
10
32050
20
2325
30
0
11
32050
21
2700
31
0
0
LINE
8
FURN
10
31350
20
2700
30
0
11
32000
21
2700
31
0
0
LINE
8
FURN
10
32000
20
2700
30
0
11
32000
21
2325
31
0
0
LINE
8
FURN
10
32000
20
2325
30
0
11
31350
21
2325
31
0
0
LINE
8
FURN
10
31350
20
2325
30
0
11
31350
21
2700
31
0
0
LINE
8
FURN
10
32900
20
2850
30
0
11
33100
21
2850
31
0
0
LINE
8
FURN
10
33100
20
2850
30
0
11
33100
21
2400
31
0
0
LINE
8
FURN
10
33100
20
2400
30
0
11
32900
21
2400
31
0
0
LINE
8
FURN
10
32900
20
2400
30
0
11
32900
21
2850
31
0
0
LINE
8
FURN
10
30950
20
2850
30
0
11
31150
21
2850
31
0
0
LINE
8
FURN
10
31150
20
2850
30
0
11
31150
21
2400
31
0
0
LINE
8
FURN
10
31150
20
2400
30
0
11
30950
21
2400
31
0
0
LINE
8
FURN
10
30950
20
2400
30
0
11
30950
21
2850
31
0
0
LINE
8
FURN
10
30150
20
3650
30
0
11
31000
21
3650
31
0
0
LINE
8
FURN
10
31000
20
3650
30
0
11
31000
21
3200
31
0
0
LINE
8
FURN
10
31000
20
3200
30
0
11
30150
21
3200
31
0
0
LINE
8
FURN
10
30150
20
3200
30
0
11
30150
21
3650
31
0
0
LINE
8
FURN
10
30150
20
2850
30
0
11
30950
21
2850
31
0
0
LINE
8
FURN
10
30950
20
2850
30
0
11
30950
21
2650
31
0
0
LINE
8
FURN
10
30950
20
2650
30
0
11
30150
21
2650
31
0
0
LINE
8
FURN
10
30150
20
2650
30
0
11
30150
21
2850
31
0
0
LINE
8
HVAC
10
30150
20
525
30
0
11
31000
21
525
31
0
0
LINE
8
HVAC
10
31000
20
525
30
0
11
31000
21
175
31
0
0
LINE
8
HVAC
10
31000
20
175
30
0
11
30150
21
175
31
0
0
LINE
8
HVAC
10
30150
20
175
30
0
11
30150
21
525
31
0
0
LINE
8
HVAC
10
30875
20
525
30
0
11
30875
21
175
31
0
0
LINE
8
HVAC
10
30725
20
525
30
0
11
30725
21
175
31
0
0
LINE
8
HVAC
10
30575
20
525
30
0
11
30575
21
175
31
0
0
LINE
8
HVAC
10
30425
20
525
30
0
11
30425
21
175
31
0
0
LINE
8
HVAC
10
30275
20
525
30
0
11
30275
21
175
31
0
0
CIRCLE
8
FURN
10
31150
20
350
30
0
40
50
0
LINE
8
DOOR
10
28650
20
4250
30
0
11
27900
21
4250
31
0
0
ARC
8
DOOR
10
27900
20
3500
30
0
40
750
50
0
51
90
0
LINE
8
FURN
10
28975
20
6375
30
0
11
29775
21
6375
31
0
0
LINE
8
FURN
10
29775
20
6375
30
0
11
29775
21
5575
31
0
0
LINE
8
FURN
10
29775
20
5575
30
0
11
28975
21
5575
31
0
0
LINE
8
FURN
10
28975
20
5575
30
0
11
28975
21
6375
31
0
0
LINE
8
FURN
10
29775
20
6375
30
0
11
28975
21
5575
31
0
0
CIRCLE
8
FURN
10
29375
20
5975
30
0
40
62.5
0
LINE
8
FURN
10
28250
20
6400
30
0
11
28750
21
6400
31
0
0
LINE
8
FURN
10
28750
20
6400
30
0
11
28750
21
6200
31
0
0
LINE
8
FURN
10
28750
20
6200
30
0
11
28250
21
6200
31
0
0
LINE
8
FURN
10
28250
20
6200
30
0
11
28250
21
6400
31
0
0
LINE
8
FURN
10
28725
20
5850
30
0
11
28707.9
21
5744.8
31
0
0
LINE
8
FURN
10
28707.9
20
5744.8
30
0
11
28659.1
21
5655.5
31
0
0
LINE
8
FURN
10
28659.1
20
5655.5
30
0
11
28586.1
21
5595.9
31
0
0
LINE
8
FURN
10
28586.1
20
5595.9
30
0
11
28500
21
5575
31
0
0
LINE
8
FURN
10
28500
20
5575
30
0
11
28413.9
21
5595.9
31
0
0
LINE
8
FURN
10
28413.9
20
5595.9
30
0
11
28340.9
21
5655.5
31
0
0
LINE
8
FURN
10
28340.9
20
5655.5
30
0
11
28292.1
21
5744.8
31
0
0
LINE
8
FURN
10
28292.1
20
5744.8
30
0
11
28275
21
5850
31
0
0
LINE
8
FURN
10
28275
20
5850
30
0
11
28292.1
21
5955.2
31
0
0
LINE
8
FURN
10
28292.1
20
5955.2
30
0
11
28340.9
21
6044.5
31
0
0
LINE
8
FURN
10
28340.9
20
6044.5
30
0
11
28413.9
21
6104.1
31
0
0
LINE
8
FURN
10
28413.9
20
6104.1
30
0
11
28500
21
6125
31
0
0
LINE
8
FURN
10
28500
20
6125
30
0
11
28586.1
21
6104.1
31
0
0
LINE
8
FURN
10
28586.1
20
6104.1
30
0
11
28659.1
21
6044.5
31
0
0
LINE
8
FURN
10
28659.1
20
6044.5
30
0
11
28707.9
21
5955.2
31
0
0
LINE
8
FURN
10
28707.9
20
5955.2
30
0
11
28725
21
5850
31
0
0
LINE
8
FURN
10
27900
20
5050
30
0
11
28750
21
5050
31
0
0
LINE
8
FURN
10
28750
20
5050
30
0
11
28750
21
4550
31
0
0
LINE
8
FURN
10
28750
20
4550
30
0
11
27900
21
4550
31
0
0
LINE
8
FURN
10
27900
20
4550
30
0
11
27900
21
5050
31
0
0
LINE
8
FURN
10
28625
20
4800
30
0
11
28602.2
21
4733
31
0
0
LINE
8
FURN
10
28602.2
20
4733
30
0
11
28537.1
21
4676.3
31
0
0
LINE
8
FURN
10
28537.1
20
4676.3
30
0
11
28439.8
21
4638.3
31
0
0
LINE
8
FURN
10
28439.8
20
4638.3
30
0
11
28325
21
4625
31
0
0
LINE
8
FURN
10
28325
20
4625
30
0
11
28210.2
21
4638.3
31
0
0
LINE
8
FURN
10
28210.2
20
4638.3
30
0
11
28112.9
21
4676.3
31
0
0
LINE
8
FURN
10
28112.9
20
4676.3
30
0
11
28047.8
21
4733
31
0
0
LINE
8
FURN
10
28047.8
20
4733
30
0
11
28025
21
4800
31
0
0
LINE
8
FURN
10
28025
20
4800
30
0
11
28047.8
21
4867
31
0
0
LINE
8
FURN
10
28047.8
20
4867
30
0
11
28112.9
21
4923.7
31
0
0
LINE
8
FURN
10
28112.9
20
4923.7
30
0
11
28210.2
21
4961.7
31
0
0
LINE
8
FURN
10
28210.2
20
4961.7
30
0
11
28325
21
4975
31
0
0
LINE
8
FURN
10
28325
20
4975
30
0
11
28439.8
21
4961.7
31
0
0
LINE
8
FURN
10
28439.8
20
4961.7
30
0
11
28537.1
21
4923.7
31
0
0
LINE
8
FURN
10
28537.1
20
4923.7
30
0
11
28602.2
21
4867
31
0
0
LINE
8
FURN
10
28602.2
20
4867
30
0
11
28625
21
4800
31
0
0
LINE
8
FURN
10
27200
20
6450
30
0
11
27600
21
6450
31
0
0
LINE
8
FURN
10
27600
20
6450
30
0
11
27600
21
4850
31
0
0
LINE
8
FURN
10
27600
20
4850
30
0
11
27200
21
4850
31
0
0
LINE
8
FURN
10
27200
20
4850
30
0
11
27200
21
6450
31
0
0
LINE
8
FURN
10
27600
20
5650
30
0
11
27200
21
5650
31
0
0
LINE
8
FURN
10
27200
20
2850
30
0
11
28850
21
2850
31
0
0
LINE
8
FURN
10
28850
20
2850
30
0
11
28850
21
650
31
0
0
LINE
8
FURN
10
28850
20
650
30
0
11
27200
21
650
31
0
0
LINE
8
FURN
10
27200
20
650
30
0
11
27200
21
2850
31
0
0
LINE
8
FURN
10
28050
20
2700
30
0
11
28700
21
2700
31
0
0
LINE
8
FURN
10
28700
20
2700
30
0
11
28700
21
2325
31
0
0
LINE
8
FURN
10
28700
20
2325
30
0
11
28050
21
2325
31
0
0
LINE
8
FURN
10
28050
20
2325
30
0
11
28050
21
2700
31
0
0
LINE
8
FURN
10
27350
20
2700
30
0
11
28000
21
2700
31
0
0
LINE
8
FURN
10
28000
20
2700
30
0
11
28000
21
2325
31
0
0
LINE
8
FURN
10
28000
20
2325
30
0
11
27350
21
2325
31
0
0
LINE
8
FURN
10
27350
20
2325
30
0
11
27350
21
2700
31
0
0
LINE
8
FURN
10
28900
20
2850
30
0
11
29100
21
2850
31
0
0
LINE
8
FURN
10
29100
20
2850
30
0
11
29100
21
2400
31
0
0
LINE
8
FURN
10
29100
20
2400
30
0
11
28900
21
2400
31
0
0
LINE
8
FURN
10
28900
20
2400
30
0
11
28900
21
2850
31
0
0
LINE
8
FURN
10
26950
20
2850
30
0
11
27150
21
2850
31
0
0
LINE
8
FURN
10
27150
20
2850
30
0
11
27150
21
2400
31
0
0
LINE
8
FURN
10
27150
20
2400
30
0
11
26950
21
2400
31
0
0
LINE
8
FURN
10
26950
20
2400
30
0
11
26950
21
2850
31
0
0
LINE
8
FURN
10
26150
20
3650
30
0
11
27000
21
3650
31
0
0
LINE
8
FURN
10
27000
20
3650
30
0
11
27000
21
3200
31
0
0
LINE
8
FURN
10
27000
20
3200
30
0
11
26150
21
3200
31
0
0
LINE
8
FURN
10
26150
20
3200
30
0
11
26150
21
3650
31
0
0
LINE
8
FURN
10
26150
20
2850
30
0
11
26950
21
2850
31
0
0
LINE
8
FURN
10
26950
20
2850
30
0
11
26950
21
2650
31
0
0
LINE
8
FURN
10
26950
20
2650
30
0
11
26150
21
2650
31
0
0
LINE
8
FURN
10
26150
20
2650
30
0
11
26150
21
2850
31
0
0
LINE
8
HVAC
10
26150
20
525
30
0
11
27000
21
525
31
0
0
LINE
8
HVAC
10
27000
20
525
30
0
11
27000
21
175
31
0
0
LINE
8
HVAC
10
27000
20
175
30
0
11
26150
21
175
31
0
0
LINE
8
HVAC
10
26150
20
175
30
0
11
26150
21
525
31
0
0
LINE
8
HVAC
10
26875
20
525
30
0
11
26875
21
175
31
0
0
LINE
8
HVAC
10
26725
20
525
30
0
11
26725
21
175
31
0
0
LINE
8
HVAC
10
26575
20
525
30
0
11
26575
21
175
31
0
0
LINE
8
HVAC
10
26425
20
525
30
0
11
26425
21
175
31
0
0
LINE
8
HVAC
10
26275
20
525
30
0
11
26275
21
175
31
0
0
CIRCLE
8
FURN
10
27150
20
350
30
0
40
50
0
LINE
8
DOOR
10
24650
20
4250
30
0
11
23900
21
4250
31
0
0
ARC
8
DOOR
10
23900
20
3500
30
0
40
750
50
0
51
90
0
LINE
8
FURN
10
24975
20
6375
30
0
11
25775
21
6375
31
0
0
LINE
8
FURN
10
25775
20
6375
30
0
11
25775
21
5575
31
0
0
LINE
8
FURN
10
25775
20
5575
30
0
11
24975
21
5575
31
0
0
LINE
8
FURN
10
24975
20
5575
30
0
11
24975
21
6375
31
0
0
LINE
8
FURN
10
25775
20
6375
30
0
11
24975
21
5575
31
0
0
CIRCLE
8
FURN
10
25375
20
5975
30
0
40
62.5
0
LINE
8
FURN
10
24250
20
6400
30
0
11
24750
21
6400
31
0
0
LINE
8
FURN
10
24750
20
6400
30
0
11
24750
21
6200
31
0
0
LINE
8
FURN
10
24750
20
6200
30
0
11
24250
21
6200
31
0
0
LINE
8
FURN
10
24250
20
6200
30
0
11
24250
21
6400
31
0
0
LINE
8
FURN
10
24725
20
5850
30
0
11
24707.9
21
5744.8
31
0
0
LINE
8
FURN
10
24707.9
20
5744.8
30
0
11
24659.1
21
5655.5
31
0
0
LINE
8
FURN
10
24659.1
20
5655.5
30
0
11
24586.1
21
5595.9
31
0
0
LINE
8
FURN
10
24586.1
20
5595.9
30
0
11
24500
21
5575
31
0
0
LINE
8
FURN
10
24500
20
5575
30
0
11
24413.9
21
5595.9
31
0
0
LINE
8
FURN
10
24413.9
20
5595.9
30
0
11
24340.9
21
5655.5
31
0
0
LINE
8
FURN
10
24340.9
20
5655.5
30
0
11
24292.1
21
5744.8
31
0
0
LINE
8
FURN
10
24292.1
20
5744.8
30
0
11
24275
21
5850
31
0
0
LINE
8
FURN
10
24275
20
5850
30
0
11
24292.1
21
5955.2
31
0
0
LINE
8
FURN
10
24292.1
20
5955.2
30
0
11
24340.9
21
6044.5
31
0
0
LINE
8
FURN
10
24340.9
20
6044.5
30
0
11
24413.9
21
6104.1
31
0
0
LINE
8
FURN
10
24413.9
20
6104.1
30
0
11
24500
21
6125
31
0
0
LINE
8
FURN
10
24500
20
6125
30
0
11
24586.1
21
6104.1
31
0
0
LINE
8
FURN
10
24586.1
20
6104.1
30
0
11
24659.1
21
6044.5
31
0
0
LINE
8
FURN
10
24659.1
20
6044.5
30
0
11
24707.9
21
5955.2
31
0
0
LINE
8
FURN
10
24707.9
20
5955.2
30
0
11
24725
21
5850
31
0
0
LINE
8
FURN
10
23900
20
5050
30
0
11
24750
21
5050
31
0
0
LINE
8
FURN
10
24750
20
5050
30
0
11
24750
21
4550
31
0
0
LINE
8
FURN
10
24750
20
4550
30
0
11
23900
21
4550
31
0
0
LINE
8
FURN
10
23900
20
4550
30
0
11
23900
21
5050
31
0
0
LINE
8
FURN
10
24625
20
4800
30
0
11
24602.2
21
4733
31
0
0
LINE
8
FURN
10
24602.2
20
4733
30
0
11
24537.1
21
4676.3
31
0
0
LINE
8
FURN
10
24537.1
20
4676.3
30
0
11
24439.8
21
4638.3
31
0
0
LINE
8
FURN
10
24439.8
20
4638.3
30
0
11
24325
21
4625
31
0
0
LINE
8
FURN
10
24325
20
4625
30
0
11
24210.2
21
4638.3
31
0
0
LINE
8
FURN
10
24210.2
20
4638.3
30
0
11
24112.9
21
4676.3
31
0
0
LINE
8
FURN
10
24112.9
20
4676.3
30
0
11
24047.8
21
4733
31
0
0
LINE
8
FURN
10
24047.8
20
4733
30
0
11
24025
21
4800
31
0
0
LINE
8
FURN
10
24025
20
4800
30
0
11
24047.8
21
4867
31
0
0
LINE
8
FURN
10
24047.8
20
4867
30
0
11
24112.9
21
4923.7
31
0
0
LINE
8
FURN
10
24112.9
20
4923.7
30
0
11
24210.2
21
4961.7
31
0
0
LINE
8
FURN
10
24210.2
20
4961.7
30
0
11
24325
21
4975
31
0
0
LINE
8
FURN
10
24325
20
4975
30
0
11
24439.8
21
4961.7
31
0
0
LINE
8
FURN
10
24439.8
20
4961.7
30
0
11
24537.1
21
4923.7
31
0
0
LINE
8
FURN
10
24537.1
20
4923.7
30
0
11
24602.2
21
4867
31
0
0
LINE
8
FURN
10
24602.2
20
4867
30
0
11
24625
21
4800
31
0
0
LINE
8
FURN
10
23200
20
6450
30
0
11
23600
21
6450
31
0
0
LINE
8
FURN
10
23600
20
6450
30
0
11
23600
21
4850
31
0
0
LINE
8
FURN
10
23600
20
4850
30
0
11
23200
21
4850
31
0
0
LINE
8
FURN
10
23200
20
4850
30
0
11
23200
21
6450
31
0
0
LINE
8
FURN
10
23600
20
5650
30
0
11
23200
21
5650
31
0
0
LINE
8
FURN
10
23200
20
2850
30
0
11
24850
21
2850
31
0
0
LINE
8
FURN
10
24850
20
2850
30
0
11
24850
21
650
31
0
0
LINE
8
FURN
10
24850
20
650
30
0
11
23200
21
650
31
0
0
LINE
8
FURN
10
23200
20
650
30
0
11
23200
21
2850
31
0
0
LINE
8
FURN
10
24050
20
2700
30
0
11
24700
21
2700
31
0
0
LINE
8
FURN
10
24700
20
2700
30
0
11
24700
21
2325
31
0
0
LINE
8
FURN
10
24700
20
2325
30
0
11
24050
21
2325
31
0
0
LINE
8
FURN
10
24050
20
2325
30
0
11
24050
21
2700
31
0
0
LINE
8
FURN
10
23350
20
2700
30
0
11
24000
21
2700
31
0
0
LINE
8
FURN
10
24000
20
2700
30
0
11
24000
21
2325
31
0
0
LINE
8
FURN
10
24000
20
2325
30
0
11
23350
21
2325
31
0
0
LINE
8
FURN
10
23350
20
2325
30
0
11
23350
21
2700
31
0
0
LINE
8
FURN
10
24900
20
2850
30
0
11
25100
21
2850
31
0
0
LINE
8
FURN
10
25100
20
2850
30
0
11
25100
21
2400
31
0
0
LINE
8
FURN
10
25100
20
2400
30
0
11
24900
21
2400
31
0
0
LINE
8
FURN
10
24900
20
2400
30
0
11
24900
21
2850
31
0
0
LINE
8
FURN
10
22950
20
2850
30
0
11
23150
21
2850
31
0
0
LINE
8
FURN
10
23150
20
2850
30
0
11
23150
21
2400
31
0
0
LINE
8
FURN
10
23150
20
2400
30
0
11
22950
21
2400
31
0
0
LINE
8
FURN
10
22950
20
2400
30
0
11
22950
21
2850
31
0
0
LINE
8
FURN
10
22150
20
3650
30
0
11
23000
21
3650
31
0
0
LINE
8
FURN
10
23000
20
3650
30
0
11
23000
21
3200
31
0
0
LINE
8
FURN
10
23000
20
3200
30
0
11
22150
21
3200
31
0
0
LINE
8
FURN
10
22150
20
3200
30
0
11
22150
21
3650
31
0
0
LINE
8
FURN
10
22150
20
2850
30
0
11
22950
21
2850
31
0
0
LINE
8
FURN
10
22950
20
2850
30
0
11
22950
21
2650
31
0
0
LINE
8
FURN
10
22950
20
2650
30
0
11
22150
21
2650
31
0
0
LINE
8
FURN
10
22150
20
2650
30
0
11
22150
21
2850
31
0
0
LINE
8
HVAC
10
22150
20
525
30
0
11
23000
21
525
31
0
0
LINE
8
HVAC
10
23000
20
525
30
0
11
23000
21
175
31
0
0
LINE
8
HVAC
10
23000
20
175
30
0
11
22150
21
175
31
0
0
LINE
8
HVAC
10
22150
20
175
30
0
11
22150
21
525
31
0
0
LINE
8
HVAC
10
22875
20
525
30
0
11
22875
21
175
31
0
0
LINE
8
HVAC
10
22725
20
525
30
0
11
22725
21
175
31
0
0
LINE
8
HVAC
10
22575
20
525
30
0
11
22575
21
175
31
0
0
LINE
8
HVAC
10
22425
20
525
30
0
11
22425
21
175
31
0
0
LINE
8
HVAC
10
22275
20
525
30
0
11
22275
21
175
31
0
0
CIRCLE
8
FURN
10
23150
20
350
30
0
40
50
0
LINE
8
DOOR
10
32650
20
10750
30
0
11
31900
21
10750
31
0
0
ARC
8
DOOR
10
31900
20
11500
30
0
40
750
50
270
51
0
0
LINE
8
FURN
10
32975
20
9425
30
0
11
33775
21
9425
31
0
0
LINE
8
FURN
10
33775
20
9425
30
0
11
33775
21
8625
31
0
0
LINE
8
FURN
10
33775
20
8625
30
0
11
32975
21
8625
31
0
0
LINE
8
FURN
10
32975
20
8625
30
0
11
32975
21
9425
31
0
0
LINE
8
FURN
10
33775
20
8625
30
0
11
32975
21
9425
31
0
0
CIRCLE
8
FURN
10
33375
20
9025
30
0
40
62.5
0
LINE
8
FURN
10
32250
20
8800
30
0
11
32750
21
8800
31
0
0
LINE
8
FURN
10
32750
20
8800
30
0
11
32750
21
8600
31
0
0
LINE
8
FURN
10
32750
20
8600
30
0
11
32250
21
8600
31
0
0
LINE
8
FURN
10
32250
20
8600
30
0
11
32250
21
8800
31
0
0
LINE
8
FURN
10
32725
20
9150
30
0
11
32707.9
21
9044.8
31
0
0
LINE
8
FURN
10
32707.9
20
9044.8
30
0
11
32659.1
21
8955.5
31
0
0
LINE
8
FURN
10
32659.1
20
8955.5
30
0
11
32586.1
21
8895.9
31
0
0
LINE
8
FURN
10
32586.1
20
8895.9
30
0
11
32500
21
8875
31
0
0
LINE
8
FURN
10
32500
20
8875
30
0
11
32413.9
21
8895.9
31
0
0
LINE
8
FURN
10
32413.9
20
8895.9
30
0
11
32340.9
21
8955.5
31
0
0
LINE
8
FURN
10
32340.9
20
8955.5
30
0
11
32292.1
21
9044.8
31
0
0
LINE
8
FURN
10
32292.1
20
9044.8
30
0
11
32275
21
9150
31
0
0
LINE
8
FURN
10
32275
20
9150
30
0
11
32292.1
21
9255.2
31
0
0
LINE
8
FURN
10
32292.1
20
9255.2
30
0
11
32340.9
21
9344.5
31
0
0
LINE
8
FURN
10
32340.9
20
9344.5
30
0
11
32413.9
21
9404.1
31
0
0
LINE
8
FURN
10
32413.9
20
9404.1
30
0
11
32500
21
9425
31
0
0
LINE
8
FURN
10
32500
20
9425
30
0
11
32586.1
21
9404.1
31
0
0
LINE
8
FURN
10
32586.1
20
9404.1
30
0
11
32659.1
21
9344.5
31
0
0
LINE
8
FURN
10
32659.1
20
9344.5
30
0
11
32707.9
21
9255.2
31
0
0
LINE
8
FURN
10
32707.9
20
9255.2
30
0
11
32725
21
9150
31
0
0
LINE
8
FURN
10
31900
20
10450
30
0
11
32750
21
10450
31
0
0
LINE
8
FURN
10
32750
20
10450
30
0
11
32750
21
9950
31
0
0
LINE
8
FURN
10
32750
20
9950
30
0
11
31900
21
9950
31
0
0
LINE
8
FURN
10
31900
20
9950
30
0
11
31900
21
10450
31
0
0
LINE
8
FURN
10
32625
20
10200
30
0
11
32602.2
21
10133
31
0
0
LINE
8
FURN
10
32602.2
20
10133
30
0
11
32537.1
21
10076.3
31
0
0
LINE
8
FURN
10
32537.1
20
10076.3
30
0
11
32439.8
21
10038.3
31
0
0
LINE
8
FURN
10
32439.8
20
10038.3
30
0
11
32325
21
10025
31
0
0
LINE
8
FURN
10
32325
20
10025
30
0
11
32210.2
21
10038.3
31
0
0
LINE
8
FURN
10
32210.2
20
10038.3
30
0
11
32112.9
21
10076.3
31
0
0
LINE
8
FURN
10
32112.9
20
10076.3
30
0
11
32047.8
21
10133
31
0
0
LINE
8
FURN
10
32047.8
20
10133
30
0
11
32025
21
10200
31
0
0
LINE
8
FURN
10
32025
20
10200
30
0
11
32047.8
21
10267
31
0
0
LINE
8
FURN
10
32047.8
20
10267
30
0
11
32112.9
21
10323.7
31
0
0
LINE
8
FURN
10
32112.9
20
10323.7
30
0
11
32210.2
21
10361.7
31
0
0
LINE
8
FURN
10
32210.2
20
10361.7
30
0
11
32325
21
10375
31
0
0
LINE
8
FURN
10
32325
20
10375
30
0
11
32439.8
21
10361.7
31
0
0
LINE
8
FURN
10
32439.8
20
10361.7
30
0
11
32537.1
21
10323.7
31
0
0
LINE
8
FURN
10
32537.1
20
10323.7
30
0
11
32602.2
21
10267
31
0
0
LINE
8
FURN
10
32602.2
20
10267
30
0
11
32625
21
10200
31
0
0
LINE
8
FURN
10
31200
20
10150
30
0
11
31600
21
10150
31
0
0
LINE
8
FURN
10
31600
20
10150
30
0
11
31600
21
8550
31
0
0
LINE
8
FURN
10
31600
20
8550
30
0
11
31200
21
8550
31
0
0
LINE
8
FURN
10
31200
20
8550
30
0
11
31200
21
10150
31
0
0
LINE
8
FURN
10
31600
20
9350
30
0
11
31200
21
9350
31
0
0
LINE
8
FURN
10
31200
20
14350
30
0
11
32850
21
14350
31
0
0
LINE
8
FURN
10
32850
20
14350
30
0
11
32850
21
12150
31
0
0
LINE
8
FURN
10
32850
20
12150
30
0
11
31200
21
12150
31
0
0
LINE
8
FURN
10
31200
20
12150
30
0
11
31200
21
14350
31
0
0
LINE
8
FURN
10
32050
20
12675
30
0
11
32700
21
12675
31
0
0
LINE
8
FURN
10
32700
20
12675
30
0
11
32700
21
12300
31
0
0
LINE
8
FURN
10
32700
20
12300
30
0
11
32050
21
12300
31
0
0
LINE
8
FURN
10
32050
20
12300
30
0
11
32050
21
12675
31
0
0
LINE
8
FURN
10
31350
20
12675
30
0
11
32000
21
12675
31
0
0
LINE
8
FURN
10
32000
20
12675
30
0
11
32000
21
12300
31
0
0
LINE
8
FURN
10
32000
20
12300
30
0
11
31350
21
12300
31
0
0
LINE
8
FURN
10
31350
20
12300
30
0
11
31350
21
12675
31
0
0
LINE
8
FURN
10
32900
20
12600
30
0
11
33100
21
12600
31
0
0
LINE
8
FURN
10
33100
20
12600
30
0
11
33100
21
12150
31
0
0
LINE
8
FURN
10
33100
20
12150
30
0
11
32900
21
12150
31
0
0
LINE
8
FURN
10
32900
20
12150
30
0
11
32900
21
12600
31
0
0
LINE
8
FURN
10
30950
20
12600
30
0
11
31150
21
12600
31
0
0
LINE
8
FURN
10
31150
20
12600
30
0
11
31150
21
12150
31
0
0
LINE
8
FURN
10
31150
20
12150
30
0
11
30950
21
12150
31
0
0
LINE
8
FURN
10
30950
20
12150
30
0
11
30950
21
12600
31
0
0
LINE
8
FURN
10
30150
20
11800
30
0
11
31000
21
11800
31
0
0
LINE
8
FURN
10
31000
20
11800
30
0
11
31000
21
11350
31
0
0
LINE
8
FURN
10
31000
20
11350
30
0
11
30150
21
11350
31
0
0
LINE
8
FURN
10
30150
20
11350
30
0
11
30150
21
11800
31
0
0
LINE
8
FURN
10
30150
20
12350
30
0
11
30950
21
12350
31
0
0
LINE
8
FURN
10
30950
20
12350
30
0
11
30950
21
12150
31
0
0
LINE
8
FURN
10
30950
20
12150
30
0
11
30150
21
12150
31
0
0
LINE
8
FURN
10
30150
20
12150
30
0
11
30150
21
12350
31
0
0
LINE
8
HVAC
10
30150
20
14825
30
0
11
31000
21
14825
31
0
0
LINE
8
HVAC
10
31000
20
14825
30
0
11
31000
21
14475
31
0
0
LINE
8
HVAC
10
31000
20
14475
30
0
11
30150
21
14475
31
0
0
LINE
8
HVAC
10
30150
20
14475
30
0
11
30150
21
14825
31
0
0
LINE
8
HVAC
10
30875
20
14475
30
0
11
30875
21
14825
31
0
0
LINE
8
HVAC
10
30725
20
14475
30
0
11
30725
21
14825
31
0
0
LINE
8
HVAC
10
30575
20
14475
30
0
11
30575
21
14825
31
0
0
LINE
8
HVAC
10
30425
20
14475
30
0
11
30425
21
14825
31
0
0
LINE
8
HVAC
10
30275
20
14475
30
0
11
30275
21
14825
31
0
0
CIRCLE
8
FURN
10
31150
20
14650
30
0
40
50
0
LINE
8
DOOR
10
28650
20
10750
30
0
11
27900
21
10750
31
0
0
ARC
8
DOOR
10
27900
20
11500
30
0
40
750
50
270
51
0
0
LINE
8
FURN
10
28975
20
9425
30
0
11
29775
21
9425
31
0
0
LINE
8
FURN
10
29775
20
9425
30
0
11
29775
21
8625
31
0
0
LINE
8
FURN
10
29775
20
8625
30
0
11
28975
21
8625
31
0
0
LINE
8
FURN
10
28975
20
8625
30
0
11
28975
21
9425
31
0
0
LINE
8
FURN
10
29775
20
8625
30
0
11
28975
21
9425
31
0
0
CIRCLE
8
FURN
10
29375
20
9025
30
0
40
62.5
0
LINE
8
FURN
10
28250
20
8800
30
0
11
28750
21
8800
31
0
0
LINE
8
FURN
10
28750
20
8800
30
0
11
28750
21
8600
31
0
0
LINE
8
FURN
10
28750
20
8600
30
0
11
28250
21
8600
31
0
0
LINE
8
FURN
10
28250
20
8600
30
0
11
28250
21
8800
31
0
0
LINE
8
FURN
10
28725
20
9150
30
0
11
28707.9
21
9044.8
31
0
0
LINE
8
FURN
10
28707.9
20
9044.8
30
0
11
28659.1
21
8955.5
31
0
0
LINE
8
FURN
10
28659.1
20
8955.5
30
0
11
28586.1
21
8895.9
31
0
0
LINE
8
FURN
10
28586.1
20
8895.9
30
0
11
28500
21
8875
31
0
0
LINE
8
FURN
10
28500
20
8875
30
0
11
28413.9
21
8895.9
31
0
0
LINE
8
FURN
10
28413.9
20
8895.9
30
0
11
28340.9
21
8955.5
31
0
0
LINE
8
FURN
10
28340.9
20
8955.5
30
0
11
28292.1
21
9044.8
31
0
0
LINE
8
FURN
10
28292.1
20
9044.8
30
0
11
28275
21
9150
31
0
0
LINE
8
FURN
10
28275
20
9150
30
0
11
28292.1
21
9255.2
31
0
0
LINE
8
FURN
10
28292.1
20
9255.2
30
0
11
28340.9
21
9344.5
31
0
0
LINE
8
FURN
10
28340.9
20
9344.5
30
0
11
28413.9
21
9404.1
31
0
0
LINE
8
FURN
10
28413.9
20
9404.1
30
0
11
28500
21
9425
31
0
0
LINE
8
FURN
10
28500
20
9425
30
0
11
28586.1
21
9404.1
31
0
0
LINE
8
FURN
10
28586.1
20
9404.1
30
0
11
28659.1
21
9344.5
31
0
0
LINE
8
FURN
10
28659.1
20
9344.5
30
0
11
28707.9
21
9255.2
31
0
0
LINE
8
FURN
10
28707.9
20
9255.2
30
0
11
28725
21
9150
31
0
0
LINE
8
FURN
10
27900
20
10450
30
0
11
28750
21
10450
31
0
0
LINE
8
FURN
10
28750
20
10450
30
0
11
28750
21
9950
31
0
0
LINE
8
FURN
10
28750
20
9950
30
0
11
27900
21
9950
31
0
0
LINE
8
FURN
10
27900
20
9950
30
0
11
27900
21
10450
31
0
0
LINE
8
FURN
10
28625
20
10200
30
0
11
28602.2
21
10133
31
0
0
LINE
8
FURN
10
28602.2
20
10133
30
0
11
28537.1
21
10076.3
31
0
0
LINE
8
FURN
10
28537.1
20
10076.3
30
0
11
28439.8
21
10038.3
31
0
0
LINE
8
FURN
10
28439.8
20
10038.3
30
0
11
28325
21
10025
31
0
0
LINE
8
FURN
10
28325
20
10025
30
0
11
28210.2
21
10038.3
31
0
0
LINE
8
FURN
10
28210.2
20
10038.3
30
0
11
28112.9
21
10076.3
31
0
0
LINE
8
FURN
10
28112.9
20
10076.3
30
0
11
28047.8
21
10133
31
0
0
LINE
8
FURN
10
28047.8
20
10133
30
0
11
28025
21
10200
31
0
0
LINE
8
FURN
10
28025
20
10200
30
0
11
28047.8
21
10267
31
0
0
LINE
8
FURN
10
28047.8
20
10267
30
0
11
28112.9
21
10323.7
31
0
0
LINE
8
FURN
10
28112.9
20
10323.7
30
0
11
28210.2
21
10361.7
31
0
0
LINE
8
FURN
10
28210.2
20
10361.7
30
0
11
28325
21
10375
31
0
0
LINE
8
FURN
10
28325
20
10375
30
0
11
28439.8
21
10361.7
31
0
0
LINE
8
FURN
10
28439.8
20
10361.7
30
0
11
28537.1
21
10323.7
31
0
0
LINE
8
FURN
10
28537.1
20
10323.7
30
0
11
28602.2
21
10267
31
0
0
LINE
8
FURN
10
28602.2
20
10267
30
0
11
28625
21
10200
31
0
0
LINE
8
FURN
10
27200
20
10150
30
0
11
27600
21
10150
31
0
0
LINE
8
FURN
10
27600
20
10150
30
0
11
27600
21
8550
31
0
0
LINE
8
FURN
10
27600
20
8550
30
0
11
27200
21
8550
31
0
0
LINE
8
FURN
10
27200
20
8550
30
0
11
27200
21
10150
31
0
0
LINE
8
FURN
10
27600
20
9350
30
0
11
27200
21
9350
31
0
0
LINE
8
FURN
10
27200
20
14350
30
0
11
28850
21
14350
31
0
0
LINE
8
FURN
10
28850
20
14350
30
0
11
28850
21
12150
31
0
0
LINE
8
FURN
10
28850
20
12150
30
0
11
27200
21
12150
31
0
0
LINE
8
FURN
10
27200
20
12150
30
0
11
27200
21
14350
31
0
0
LINE
8
FURN
10
28050
20
12675
30
0
11
28700
21
12675
31
0
0
LINE
8
FURN
10
28700
20
12675
30
0
11
28700
21
12300
31
0
0
LINE
8
FURN
10
28700
20
12300
30
0
11
28050
21
12300
31
0
0
LINE
8
FURN
10
28050
20
12300
30
0
11
28050
21
12675
31
0
0
LINE
8
FURN
10
27350
20
12675
30
0
11
28000
21
12675
31
0
0
LINE
8
FURN
10
28000
20
12675
30
0
11
28000
21
12300
31
0
0
LINE
8
FURN
10
28000
20
12300
30
0
11
27350
21
12300
31
0
0
LINE
8
FURN
10
27350
20
12300
30
0
11
27350
21
12675
31
0
0
LINE
8
FURN
10
28900
20
12600
30
0
11
29100
21
12600
31
0
0
LINE
8
FURN
10
29100
20
12600
30
0
11
29100
21
12150
31
0
0
LINE
8
FURN
10
29100
20
12150
30
0
11
28900
21
12150
31
0
0
LINE
8
FURN
10
28900
20
12150
30
0
11
28900
21
12600
31
0
0
LINE
8
FURN
10
26950
20
12600
30
0
11
27150
21
12600
31
0
0
LINE
8
FURN
10
27150
20
12600
30
0
11
27150
21
12150
31
0
0
LINE
8
FURN
10
27150
20
12150
30
0
11
26950
21
12150
31
0
0
LINE
8
FURN
10
26950
20
12150
30
0
11
26950
21
12600
31
0
0
LINE
8
FURN
10
26150
20
11800
30
0
11
27000
21
11800
31
0
0
LINE
8
FURN
10
27000
20
11800
30
0
11
27000
21
11350
31
0
0
LINE
8
FURN
10
27000
20
11350
30
0
11
26150
21
11350
31
0
0
LINE
8
FURN
10
26150
20
11350
30
0
11
26150
21
11800
31
0
0
LINE
8
FURN
10
26150
20
12350
30
0
11
26950
21
12350
31
0
0
LINE
8
FURN
10
26950
20
12350
30
0
11
26950
21
12150
31
0
0
LINE
8
FURN
10
26950
20
12150
30
0
11
26150
21
12150
31
0
0
LINE
8
FURN
10
26150
20
12150
30
0
11
26150
21
12350
31
0
0
LINE
8
HVAC
10
26150
20
14825
30
0
11
27000
21
14825
31
0
0
LINE
8
HVAC
10
27000
20
14825
30
0
11
27000
21
14475
31
0
0
LINE
8
HVAC
10
27000
20
14475
30
0
11
26150
21
14475
31
0
0
LINE
8
HVAC
10
26150
20
14475
30
0
11
26150
21
14825
31
0
0
LINE
8
HVAC
10
26875
20
14475
30
0
11
26875
21
14825
31
0
0
LINE
8
HVAC
10
26725
20
14475
30
0
11
26725
21
14825
31
0
0
LINE
8
HVAC
10
26575
20
14475
30
0
11
26575
21
14825
31
0
0
LINE
8
HVAC
10
26425
20
14475
30
0
11
26425
21
14825
31
0
0
LINE
8
HVAC
10
26275
20
14475
30
0
11
26275
21
14825
31
0
0
CIRCLE
8
FURN
10
27150
20
14650
30
0
40
50
0
LINE
8
DOOR
10
24650
20
10750
30
0
11
23900
21
10750
31
0
0
ARC
8
DOOR
10
23900
20
11500
30
0
40
750
50
270
51
0
0
LINE
8
FURN
10
24975
20
9425
30
0
11
25775
21
9425
31
0
0
LINE
8
FURN
10
25775
20
9425
30
0
11
25775
21
8625
31
0
0
LINE
8
FURN
10
25775
20
8625
30
0
11
24975
21
8625
31
0
0
LINE
8
FURN
10
24975
20
8625
30
0
11
24975
21
9425
31
0
0
LINE
8
FURN
10
25775
20
8625
30
0
11
24975
21
9425
31
0
0
CIRCLE
8
FURN
10
25375
20
9025
30
0
40
62.5
0
LINE
8
FURN
10
24250
20
8800
30
0
11
24750
21
8800
31
0
0
LINE
8
FURN
10
24750
20
8800
30
0
11
24750
21
8600
31
0
0
LINE
8
FURN
10
24750
20
8600
30
0
11
24250
21
8600
31
0
0
LINE
8
FURN
10
24250
20
8600
30
0
11
24250
21
8800
31
0
0
LINE
8
FURN
10
24725
20
9150
30
0
11
24707.9
21
9044.8
31
0
0
LINE
8
FURN
10
24707.9
20
9044.8
30
0
11
24659.1
21
8955.5
31
0
0
LINE
8
FURN
10
24659.1
20
8955.5
30
0
11
24586.1
21
8895.9
31
0
0
LINE
8
FURN
10
24586.1
20
8895.9
30
0
11
24500
21
8875
31
0
0
LINE
8
FURN
10
24500
20
8875
30
0
11
24413.9
21
8895.9
31
0
0
LINE
8
FURN
10
24413.9
20
8895.9
30
0
11
24340.9
21
8955.5
31
0
0
LINE
8
FURN
10
24340.9
20
8955.5
30
0
11
24292.1
21
9044.8
31
0
0
LINE
8
FURN
10
24292.1
20
9044.8
30
0
11
24275
21
9150
31
0
0
LINE
8
FURN
10
24275
20
9150
30
0
11
24292.1
21
9255.2
31
0
0
LINE
8
FURN
10
24292.1
20
9255.2
30
0
11
24340.9
21
9344.5
31
0
0
LINE
8
FURN
10
24340.9
20
9344.5
30
0
11
24413.9
21
9404.1
31
0
0
LINE
8
FURN
10
24413.9
20
9404.1
30
0
11
24500
21
9425
31
0
0
LINE
8
FURN
10
24500
20
9425
30
0
11
24586.1
21
9404.1
31
0
0
LINE
8
FURN
10
24586.1
20
9404.1
30
0
11
24659.1
21
9344.5
31
0
0
LINE
8
FURN
10
24659.1
20
9344.5
30
0
11
24707.9
21
9255.2
31
0
0
LINE
8
FURN
10
24707.9
20
9255.2
30
0
11
24725
21
9150
31
0
0
LINE
8
FURN
10
23900
20
10450
30
0
11
24750
21
10450
31
0
0
LINE
8
FURN
10
24750
20
10450
30
0
11
24750
21
9950
31
0
0
LINE
8
FURN
10
24750
20
9950
30
0
11
23900
21
9950
31
0
0
LINE
8
FURN
10
23900
20
9950
30
0
11
23900
21
10450
31
0
0
LINE
8
FURN
10
24625
20
10200
30
0
11
24602.2
21
10133
31
0
0
LINE
8
FURN
10
24602.2
20
10133
30
0
11
24537.1
21
10076.3
31
0
0
LINE
8
FURN
10
24537.1
20
10076.3
30
0
11
24439.8
21
10038.3
31
0
0
LINE
8
FURN
10
24439.8
20
10038.3
30
0
11
24325
21
10025
31
0
0
LINE
8
FURN
10
24325
20
10025
30
0
11
24210.2
21
10038.3
31
0
0
LINE
8
FURN
10
24210.2
20
10038.3
30
0
11
24112.9
21
10076.3
31
0
0
LINE
8
FURN
10
24112.9
20
10076.3
30
0
11
24047.8
21
10133
31
0
0
LINE
8
FURN
10
24047.8
20
10133
30
0
11
24025
21
10200
31
0
0
LINE
8
FURN
10
24025
20
10200
30
0
11
24047.8
21
10267
31
0
0
LINE
8
FURN
10
24047.8
20
10267
30
0
11
24112.9
21
10323.7
31
0
0
LINE
8
FURN
10
24112.9
20
10323.7
30
0
11
24210.2
21
10361.7
31
0
0
LINE
8
FURN
10
24210.2
20
10361.7
30
0
11
24325
21
10375
31
0
0
LINE
8
FURN
10
24325
20
10375
30
0
11
24439.8
21
10361.7
31
0
0
LINE
8
FURN
10
24439.8
20
10361.7
30
0
11
24537.1
21
10323.7
31
0
0
LINE
8
FURN
10
24537.1
20
10323.7
30
0
11
24602.2
21
10267
31
0
0
LINE
8
FURN
10
24602.2
20
10267
30
0
11
24625
21
10200
31
0
0
LINE
8
FURN
10
23200
20
10150
30
0
11
23600
21
10150
31
0
0
LINE
8
FURN
10
23600
20
10150
30
0
11
23600
21
8550
31
0
0
LINE
8
FURN
10
23600
20
8550
30
0
11
23200
21
8550
31
0
0
LINE
8
FURN
10
23200
20
8550
30
0
11
23200
21
10150
31
0
0
LINE
8
FURN
10
23600
20
9350
30
0
11
23200
21
9350
31
0
0
LINE
8
FURN
10
23200
20
14350
30
0
11
24850
21
14350
31
0
0
LINE
8
FURN
10
24850
20
14350
30
0
11
24850
21
12150
31
0
0
LINE
8
FURN
10
24850
20
12150
30
0
11
23200
21
12150
31
0
0
LINE
8
FURN
10
23200
20
12150
30
0
11
23200
21
14350
31
0
0
LINE
8
FURN
10
24050
20
12675
30
0
11
24700
21
12675
31
0
0
LINE
8
FURN
10
24700
20
12675
30
0
11
24700
21
12300
31
0
0
LINE
8
FURN
10
24700
20
12300
30
0
11
24050
21
12300
31
0
0
LINE
8
FURN
10
24050
20
12300
30
0
11
24050
21
12675
31
0
0
LINE
8
FURN
10
23350
20
12675
30
0
11
24000
21
12675
31
0
0
LINE
8
FURN
10
24000
20
12675
30
0
11
24000
21
12300
31
0
0
LINE
8
FURN
10
24000
20
12300
30
0
11
23350
21
12300
31
0
0
LINE
8
FURN
10
23350
20
12300
30
0
11
23350
21
12675
31
0
0
LINE
8
FURN
10
24900
20
12600
30
0
11
25100
21
12600
31
0
0
LINE
8
FURN
10
25100
20
12600
30
0
11
25100
21
12150
31
0
0
LINE
8
FURN
10
25100
20
12150
30
0
11
24900
21
12150
31
0
0
LINE
8
FURN
10
24900
20
12150
30
0
11
24900
21
12600
31
0
0
LINE
8
FURN
10
22950
20
12600
30
0
11
23150
21
12600
31
0
0
LINE
8
FURN
10
23150
20
12600
30
0
11
23150
21
12150
31
0
0
LINE
8
FURN
10
23150
20
12150
30
0
11
22950
21
12150
31
0
0
LINE
8
FURN
10
22950
20
12150
30
0
11
22950
21
12600
31
0
0
LINE
8
FURN
10
22150
20
11800
30
0
11
23000
21
11800
31
0
0
LINE
8
FURN
10
23000
20
11800
30
0
11
23000
21
11350
31
0
0
LINE
8
FURN
10
23000
20
11350
30
0
11
22150
21
11350
31
0
0
LINE
8
FURN
10
22150
20
11350
30
0
11
22150
21
11800
31
0
0
LINE
8
FURN
10
22150
20
12350
30
0
11
22950
21
12350
31
0
0
LINE
8
FURN
10
22950
20
12350
30
0
11
22950
21
12150
31
0
0
LINE
8
FURN
10
22950
20
12150
30
0
11
22150
21
12150
31
0
0
LINE
8
FURN
10
22150
20
12150
30
0
11
22150
21
12350
31
0
0
LINE
8
HVAC
10
22150
20
14825
30
0
11
23000
21
14825
31
0
0
LINE
8
HVAC
10
23000
20
14825
30
0
11
23000
21
14475
31
0
0
LINE
8
HVAC
10
23000
20
14475
30
0
11
22150
21
14475
31
0
0
LINE
8
HVAC
10
22150
20
14475
30
0
11
22150
21
14825
31
0
0
LINE
8
HVAC
10
22875
20
14475
30
0
11
22875
21
14825
31
0
0
LINE
8
HVAC
10
22725
20
14475
30
0
11
22725
21
14825
31
0
0
LINE
8
HVAC
10
22575
20
14475
30
0
11
22575
21
14825
31
0
0
LINE
8
HVAC
10
22425
20
14475
30
0
11
22425
21
14825
31
0
0
LINE
8
HVAC
10
22275
20
14475
30
0
11
22275
21
14825
31
0
0
CIRCLE
8
FURN
10
23150
20
14650
30
0
40
50
0
LINE
8
WINDOW
10
36750
20
7612.5
30
0
11
35425
21
7612.5
31
0
0
LINE
8
FURN
10
37650
20
9925
30
0
11
35500
21
7725
31
0
0
LINE
8
FURN
10
35500
20
9925
30
0
11
37650
21
7725
31
0
0
LINE
8
FURN
10
37650
20
13550
30
0
11
34200
21
13550
31
0
0
LINE
8
FURN
10
37650
20
13225
30
0
11
36000
21
13225
31
0
0
LINE
8
FURN
10
35850
20
13225
30
0
11
34200
21
13225
31
0
0
LINE
8
FURN
10
37650
20
12900
30
0
11
36000
21
12900
31
0
0
LINE
8
FURN
10
35850
20
12900
30
0
11
34200
21
12900
31
0
0
LINE
8
FURN
10
37650
20
12575
30
0
11
36000
21
12575
31
0
0
LINE
8
FURN
10
35850
20
12575
30
0
11
34200
21
12575
31
0
0
LINE
8
FURN
10
37650
20
12250
30
0
11
36000
21
12250
31
0
0
LINE
8
FURN
10
35850
20
12250
30
0
11
34200
21
12250
31
0
0
LINE
8
FURN
10
37650
20
11925
30
0
11
36000
21
11925
31
0
0
LINE
8
FURN
10
35850
20
11925
30
0
11
34200
21
11925
31
0
0
LINE
8
FURN
10
37650
20
11600
30
0
11
36000
21
11600
31
0
0
LINE
8
FURN
10
35850
20
11600
30
0
11
34200
21
11600
31
0
0
LINE
8
FURN
10
37650
20
11275
30
0
11
36000
21
11275
31
0
0
LINE
8
FURN
10
35850
20
11275
30
0
11
34200
21
11275
31
0
0
LINE
8
FURN
10
37650
20
10950
30
0
11
36000
21
10950
31
0
0
LINE
8
FURN
10
35850
20
10950
30
0
11
34200
21
10950
31
0
0
LINE
8
FURN
10
37650
20
10625
30
0
11
36000
21
10625
31
0
0
LINE
8
FURN
10
35850
20
10625
30
0
11
34200
21
10625
31
0
0
LINE
8
FURN
10
36000
20
13550
30
0
11
36000
21
10200
31
0
0
LINE
8
FURN
10
35850
20
13550
30
0
11
35850
21
10200
31
0
0
LINE
8
FURN
10
36825
20
10500
30
0
11
36825
21
13150
31
0
0
LINE
8
FURN
10
36925
20
12950
30
0
11
36825
21
13150
31
0
0
LINE
8
FURN
10
36825
20
13150
30
0
11
36725
21
12950
31
0
0
LINE
8
FURN
6
DASHED
10
38000
20
10050
30
0
11
33850
21
10850
31
0
0
LINE
8
FURN
10
34100
20
9950
30
0
11
34500
21
9950
31
0
0
LINE
8
FURN
10
34500
20
9950
30
0
11
34500
21
8600
31
0
0
LINE
8
FURN
10
34500
20
8600
30
0
11
34100
21
8600
31
0
0
LINE
8
FURN
10
34100
20
8600
30
0
11
34100
21
9950
31
0
0
LINE
8
WINDOW
10
34875
20
212.5
30
0
11
37125
21
212.5
31
0
0
LINE
8
WINDOW
10
37125
20
212.5
30
0
11
37125
21
37.5
31
0
0
LINE
8
WINDOW
10
37125
20
37.5
30
0
11
34875
21
37.5
31
0
0
LINE
8
WINDOW
10
34875
20
37.5
30
0
11
34875
21
212.5
31
0
0
LINE
8
WINDOW
10
37125
20
125
30
0
11
34875
21
125
31
0
0
LINE
8
WINDOW
10
30875
20
212.5
30
0
11
33125
21
212.5
31
0
0
LINE
8
WINDOW
10
33125
20
212.5
30
0
11
33125
21
37.5
31
0
0
LINE
8
WINDOW
10
33125
20
37.5
30
0
11
30875
21
37.5
31
0
0
LINE
8
WINDOW
10
30875
20
37.5
30
0
11
30875
21
212.5
31
0
0
LINE
8
WINDOW
10
33125
20
125
30
0
11
30875
21
125
31
0
0
LINE
8
WINDOW
10
26875
20
212.5
30
0
11
29125
21
212.5
31
0
0
LINE
8
WINDOW
10
29125
20
212.5
30
0
11
29125
21
37.5
31
0
0
LINE
8
WINDOW
10
29125
20
37.5
30
0
11
26875
21
37.5
31
0
0
LINE
8
WINDOW
10
26875
20
37.5
30
0
11
26875
21
212.5
31
0
0
LINE
8
WINDOW
10
29125
20
125
30
0
11
26875
21
125
31
0
0
LINE
8
WINDOW
10
22875
20
212.5
30
0
11
25125
21
212.5
31
0
0
LINE
8
WINDOW
10
25125
20
212.5
30
0
11
25125
21
37.5
31
0
0
LINE
8
WINDOW
10
25125
20
37.5
30
0
11
22875
21
37.5
31
0
0
LINE
8
WINDOW
10
22875
20
37.5
30
0
11
22875
21
212.5
31
0
0
LINE
8
WINDOW
10
25125
20
125
30
0
11
22875
21
125
31
0
0
LINE
8
WINDOW
10
35000
20
14962.5
30
0
11
37000
21
14962.5
31
0
0
LINE
8
WINDOW
10
37000
20
14962.5
30
0
11
37000
21
14787.5
31
0
0
LINE
8
WINDOW
10
37000
20
14787.5
30
0
11
35000
21
14787.5
31
0
0
LINE
8
WINDOW
10
35000
20
14787.5
30
0
11
35000
21
14962.5
31
0
0
LINE
8
WINDOW
10
37000
20
14875
30
0
11
35000
21
14875
31
0
0
LINE
8
WINDOW
10
31000
20
14962.5
30
0
11
33000
21
14962.5
31
0
0
LINE
8
WINDOW
10
33000
20
14962.5
30
0
11
33000
21
14787.5
31
0
0
LINE
8
WINDOW
10
33000
20
14787.5
30
0
11
31000
21
14787.5
31
0
0
LINE
8
WINDOW
10
31000
20
14787.5
30
0
11
31000
21
14962.5
31
0
0
LINE
8
WINDOW
10
33000
20
14875
30
0
11
31000
21
14875
31
0
0
LINE
8
WINDOW
10
27000
20
14962.5
30
0
11
29000
21
14962.5
31
0
0
LINE
8
WINDOW
10
29000
20
14962.5
30
0
11
29000
21
14787.5
31
0
0
LINE
8
WINDOW
10
29000
20
14787.5
30
0
11
27000
21
14787.5
31
0
0
LINE
8
WINDOW
10
27000
20
14787.5
30
0
11
27000
21
14962.5
31
0
0
LINE
8
WINDOW
10
29000
20
14875
30
0
11
27000
21
14875
31
0
0
LINE
8
WINDOW
10
23000
20
14962.5
30
0
11
25000
21
14962.5
31
0
0
LINE
8
WINDOW
10
25000
20
14962.5
30
0
11
25000
21
14787.5
31
0
0
LINE
8
WINDOW
10
25000
20
14787.5
30
0
11
23000
21
14787.5
31
0
0
LINE
8
WINDOW
10
23000
20
14787.5
30
0
11
23000
21
14962.5
31
0
0
LINE
8
WINDOW
10
25000
20
14875
30
0
11
23000
21
14875
31
0
0
LINE
8
WINDOW
10
37787.5
20
12750
30
0
11
37962.5
21
12750
31
0
0
LINE
8
WINDOW
10
37962.5
20
12750
30
0
11
37962.5
21
10750
31
0
0
LINE
8
WINDOW
10
37962.5
20
10750
30
0
11
37787.5
21
10750
31
0
0
LINE
8
WINDOW
10
37787.5
20
10750
30
0
11
37787.5
21
12750
31
0
0
LINE
8
WINDOW
10
37875
20
12750
30
0
11
37875
21
10750
31
0
0
LINE
8
WINDOW
10
37787.5
20
4000
30
0
11
37962.5
21
4000
31
0
0
LINE
8
WINDOW
10
37962.5
20
4000
30
0
11
37962.5
21
1750
31
0
0
LINE
8
WINDOW
10
37962.5
20
1750
30
0
11
37787.5
21
1750
31
0
0
LINE
8
WINDOW
10
37787.5
20
1750
30
0
11
37787.5
21
4000
31
0
0
LINE
8
WINDOW
10
37875
20
4000
30
0
11
37875
21
1750
31
0
0
LINE
8
WINDOW
10
22037.5
20
13000
30
0
11
22212.5
21
13000
31
0
0
LINE
8
WINDOW
10
22212.5
20
13000
30
0
11
22212.5
21
10750
31
0
0
LINE
8
WINDOW
10
22212.5
20
10750
30
0
11
22037.5
21
10750
31
0
0
LINE
8
WINDOW
10
22037.5
20
10750
30
0
11
22037.5
21
13000
31
0
0
LINE
8
WINDOW
10
22125
20
13000
30
0
11
22125
21
10750
31
0
0
LINE
8
WINDOW
10
22037.5
20
8250
30
0
11
22212.5
21
8250
31
0
0
LINE
8
WINDOW
10
22212.5
20
8250
30
0
11
22212.5
21
6750
31
0
0
LINE
8
WINDOW
10
22212.5
20
6750
30
0
11
22037.5
21
6750
31
0
0
LINE
8
WINDOW
10
22037.5
20
6750
30
0
11
22037.5
21
8250
31
0
0
LINE
8
WINDOW
10
22125
20
8250
30
0
11
22125
21
6750
31
0
0
LINE
8
WINDOW
10
22037.5
20
4000
30
0
11
22212.5
21
4000
31
0
0
LINE
8
WINDOW
10
22212.5
20
4000
30
0
11
22212.5
21
1750
31
0
0
LINE
8
WINDOW
10
22212.5
20
1750
30
0
11
22037.5
21
1750
31
0
0
LINE
8
WINDOW
10
22037.5
20
1750
30
0
11
22037.5
21
4000
31
0
0
LINE
8
WINDOW
10
22125
20
4000
30
0
11
22125
21
1750
31
0
0
SOLID
8
COLUMN
10
37775
20
-225
30
0
11
38225
21
-225
31
0
12
37775
22
225
32
0
13
38225
23
225
33
0
0
LINE
8
COLUMN
10
37775
20
-225
30
0
11
38225
21
-225
31
0
0
LINE
8
COLUMN
10
38225
20
-225
30
0
11
38225
21
225
31
0
0
LINE
8
COLUMN
10
38225
20
225
30
0
11
37775
21
225
31
0
0
LINE
8
COLUMN
10
37775
20
225
30
0
11
37775
21
-225
31
0
0
SOLID
8
COLUMN
10
33775
20
-225
30
0
11
34225
21
-225
31
0
12
33775
22
225
32
0
13
34225
23
225
33
0
0
LINE
8
COLUMN
10
33775
20
-225
30
0
11
34225
21
-225
31
0
0
LINE
8
COLUMN
10
34225
20
-225
30
0
11
34225
21
225
31
0
0
LINE
8
COLUMN
10
34225
20
225
30
0
11
33775
21
225
31
0
0
LINE
8
COLUMN
10
33775
20
225
30
0
11
33775
21
-225
31
0
0
SOLID
8
COLUMN
10
29775
20
-225
30
0
11
30225
21
-225
31
0
12
29775
22
225
32
0
13
30225
23
225
33
0
0
LINE
8
COLUMN
10
29775
20
-225
30
0
11
30225
21
-225
31
0
0
LINE
8
COLUMN
10
30225
20
-225
30
0
11
30225
21
225
31
0
0
LINE
8
COLUMN
10
30225
20
225
30
0
11
29775
21
225
31
0
0
LINE
8
COLUMN
10
29775
20
225
30
0
11
29775
21
-225
31
0
0
SOLID
8
COLUMN
10
25775
20
-225
30
0
11
26225
21
-225
31
0
12
25775
22
225
32
0
13
26225
23
225
33
0
0
LINE
8
COLUMN
10
25775
20
-225
30
0
11
26225
21
-225
31
0
0
LINE
8
COLUMN
10
26225
20
-225
30
0
11
26225
21
225
31
0
0
LINE
8
COLUMN
10
26225
20
225
30
0
11
25775
21
225
31
0
0
LINE
8
COLUMN
10
25775
20
225
30
0
11
25775
21
-225
31
0
0
SOLID
8
COLUMN
10
21775
20
-225
30
0
11
22225
21
-225
31
0
12
21775
22
225
32
0
13
22225
23
225
33
0
0
LINE
8
COLUMN
10
21775
20
-225
30
0
11
22225
21
-225
31
0
0
LINE
8
COLUMN
10
22225
20
-225
30
0
11
22225
21
225
31
0
0
LINE
8
COLUMN
10
22225
20
225
30
0
11
21775
21
225
31
0
0
LINE
8
COLUMN
10
21775
20
225
30
0
11
21775
21
-225
31
0
0
SOLID
8
COLUMN
10
37775
20
4775
30
0
11
38225
21
4775
31
0
12
37775
22
5225
32
0
13
38225
23
5225
33
0
0
LINE
8
COLUMN
10
37775
20
4775
30
0
11
38225
21
4775
31
0
0
LINE
8
COLUMN
10
38225
20
4775
30
0
11
38225
21
5225
31
0
0
LINE
8
COLUMN
10
38225
20
5225
30
0
11
37775
21
5225
31
0
0
LINE
8
COLUMN
10
37775
20
5225
30
0
11
37775
21
4775
31
0
0
SOLID
8
COLUMN
10
33775
20
4775
30
0
11
34225
21
4775
31
0
12
33775
22
5225
32
0
13
34225
23
5225
33
0
0
LINE
8
COLUMN
10
33775
20
4775
30
0
11
34225
21
4775
31
0
0
LINE
8
COLUMN
10
34225
20
4775
30
0
11
34225
21
5225
31
0
0
LINE
8
COLUMN
10
34225
20
5225
30
0
11
33775
21
5225
31
0
0
LINE
8
COLUMN
10
33775
20
5225
30
0
11
33775
21
4775
31
0
0
SOLID
8
COLUMN
10
29775
20
4775
30
0
11
30225
21
4775
31
0
12
29775
22
5225
32
0
13
30225
23
5225
33
0
0
LINE
8
COLUMN
10
29775
20
4775
30
0
11
30225
21
4775
31
0
0
LINE
8
COLUMN
10
30225
20
4775
30
0
11
30225
21
5225
31
0
0
LINE
8
COLUMN
10
30225
20
5225
30
0
11
29775
21
5225
31
0
0
LINE
8
COLUMN
10
29775
20
5225
30
0
11
29775
21
4775
31
0
0
SOLID
8
COLUMN
10
25775
20
4775
30
0
11
26225
21
4775
31
0
12
25775
22
5225
32
0
13
26225
23
5225
33
0
0
LINE
8
COLUMN
10
25775
20
4775
30
0
11
26225
21
4775
31
0
0
LINE
8
COLUMN
10
26225
20
4775
30
0
11
26225
21
5225
31
0
0
LINE
8
COLUMN
10
26225
20
5225
30
0
11
25775
21
5225
31
0
0
LINE
8
COLUMN
10
25775
20
5225
30
0
11
25775
21
4775
31
0
0
SOLID
8
COLUMN
10
21775
20
4775
30
0
11
22225
21
4775
31
0
12
21775
22
5225
32
0
13
22225
23
5225
33
0
0
LINE
8
COLUMN
10
21775
20
4775
30
0
11
22225
21
4775
31
0
0
LINE
8
COLUMN
10
22225
20
4775
30
0
11
22225
21
5225
31
0
0
LINE
8
COLUMN
10
22225
20
5225
30
0
11
21775
21
5225
31
0
0
LINE
8
COLUMN
10
21775
20
5225
30
0
11
21775
21
4775
31
0
0
SOLID
8
COLUMN
10
37775
20
9775
30
0
11
38225
21
9775
31
0
12
37775
22
10225
32
0
13
38225
23
10225
33
0
0
LINE
8
COLUMN
10
37775
20
9775
30
0
11
38225
21
9775
31
0
0
LINE
8
COLUMN
10
38225
20
9775
30
0
11
38225
21
10225
31
0
0
LINE
8
COLUMN
10
38225
20
10225
30
0
11
37775
21
10225
31
0
0
LINE
8
COLUMN
10
37775
20
10225
30
0
11
37775
21
9775
31
0
0
SOLID
8
COLUMN
10
33775
20
9775
30
0
11
34225
21
9775
31
0
12
33775
22
10225
32
0
13
34225
23
10225
33
0
0
LINE
8
COLUMN
10
33775
20
9775
30
0
11
34225
21
9775
31
0
0
LINE
8
COLUMN
10
34225
20
9775
30
0
11
34225
21
10225
31
0
0
LINE
8
COLUMN
10
34225
20
10225
30
0
11
33775
21
10225
31
0
0
LINE
8
COLUMN
10
33775
20
10225
30
0
11
33775
21
9775
31
0
0
SOLID
8
COLUMN
10
29775
20
9775
30
0
11
30225
21
9775
31
0
12
29775
22
10225
32
0
13
30225
23
10225
33
0
0
LINE
8
COLUMN
10
29775
20
9775
30
0
11
30225
21
9775
31
0
0
LINE
8
COLUMN
10
30225
20
9775
30
0
11
30225
21
10225
31
0
0
LINE
8
COLUMN
10
30225
20
10225
30
0
11
29775
21
10225
31
0
0
LINE
8
COLUMN
10
29775
20
10225
30
0
11
29775
21
9775
31
0
0
SOLID
8
COLUMN
10
25775
20
9775
30
0
11
26225
21
9775
31
0
12
25775
22
10225
32
0
13
26225
23
10225
33
0
0
LINE
8
COLUMN
10
25775
20
9775
30
0
11
26225
21
9775
31
0
0
LINE
8
COLUMN
10
26225
20
9775
30
0
11
26225
21
10225
31
0
0
LINE
8
COLUMN
10
26225
20
10225
30
0
11
25775
21
10225
31
0
0
LINE
8
COLUMN
10
25775
20
10225
30
0
11
25775
21
9775
31
0
0
SOLID
8
COLUMN
10
21775
20
9775
30
0
11
22225
21
9775
31
0
12
21775
22
10225
32
0
13
22225
23
10225
33
0
0
LINE
8
COLUMN
10
21775
20
9775
30
0
11
22225
21
9775
31
0
0
LINE
8
COLUMN
10
22225
20
9775
30
0
11
22225
21
10225
31
0
0
LINE
8
COLUMN
10
22225
20
10225
30
0
11
21775
21
10225
31
0
0
LINE
8
COLUMN
10
21775
20
10225
30
0
11
21775
21
9775
31
0
0
SOLID
8
COLUMN
10
37775
20
14775
30
0
11
38225
21
14775
31
0
12
37775
22
15225
32
0
13
38225
23
15225
33
0
0
LINE
8
COLUMN
10
37775
20
14775
30
0
11
38225
21
14775
31
0
0
LINE
8
COLUMN
10
38225
20
14775
30
0
11
38225
21
15225
31
0
0
LINE
8
COLUMN
10
38225
20
15225
30
0
11
37775
21
15225
31
0
0
LINE
8
COLUMN
10
37775
20
15225
30
0
11
37775
21
14775
31
0
0
SOLID
8
COLUMN
10
33775
20
14775
30
0
11
34225
21
14775
31
0
12
33775
22
15225
32
0
13
34225
23
15225
33
0
0
LINE
8
COLUMN
10
33775
20
14775
30
0
11
34225
21
14775
31
0
0
LINE
8
COLUMN
10
34225
20
14775
30
0
11
34225
21
15225
31
0
0
LINE
8
COLUMN
10
34225
20
15225
30
0
11
33775
21
15225
31
0
0
LINE
8
COLUMN
10
33775
20
15225
30
0
11
33775
21
14775
31
0
0
SOLID
8
COLUMN
10
29775
20
14775
30
0
11
30225
21
14775
31
0
12
29775
22
15225
32
0
13
30225
23
15225
33
0
0
LINE
8
COLUMN
10
29775
20
14775
30
0
11
30225
21
14775
31
0
0
LINE
8
COLUMN
10
30225
20
14775
30
0
11
30225
21
15225
31
0
0
LINE
8
COLUMN
10
30225
20
15225
30
0
11
29775
21
15225
31
0
0
LINE
8
COLUMN
10
29775
20
15225
30
0
11
29775
21
14775
31
0
0
SOLID
8
COLUMN
10
25775
20
14775
30
0
11
26225
21
14775
31
0
12
25775
22
15225
32
0
13
26225
23
15225
33
0
0
LINE
8
COLUMN
10
25775
20
14775
30
0
11
26225
21
14775
31
0
0
LINE
8
COLUMN
10
26225
20
14775
30
0
11
26225
21
15225
31
0
0
LINE
8
COLUMN
10
26225
20
15225
30
0
11
25775
21
15225
31
0
0
LINE
8
COLUMN
10
25775
20
15225
30
0
11
25775
21
14775
31
0
0
SOLID
8
COLUMN
10
21775
20
14775
30
0
11
22225
21
14775
31
0
12
21775
22
15225
32
0
13
22225
23
15225
33
0
0
LINE
8
COLUMN
10
21775
20
14775
30
0
11
22225
21
14775
31
0
0
LINE
8
COLUMN
10
22225
20
14775
30
0
11
22225
21
15225
31
0
0
LINE
8
COLUMN
10
22225
20
15225
30
0
11
21775
21
15225
31
0
0
LINE
8
COLUMN
10
21775
20
15225
30
0
11
21775
21
14775
31
0
0
LINE
8
DOOR
10
35250
20
6575
30
0
11
35250
21
5725
31
0
0
ARC
8
DOOR
10
34400
20
5725
30
0
40
850
50
0
51
90
0
LINE
8
DOOR
10
31250
20
6575
30
0
11
31250
21
5725
31
0
0
ARC
8
DOOR
10
30400
20
5725
30
0
40
850
50
0
51
90
0
LINE
8
DOOR
10
27250
20
6575
30
0
11
27250
21
5725
31
0
0
ARC
8
DOOR
10
26400
20
5725
30
0
40
850
50
0
51
90
0
LINE
8
DOOR
10
23250
20
6575
30
0
11
23250
21
5725
31
0
0
ARC
8
DOOR
10
22400
20
5725
30
0
40
850
50
0
51
90
0
LINE
8
DOOR
10
31250
20
8500
30
0
11
31250
21
9350
31
0
0
ARC
8
DOOR
10
30400
20
9350
30
0
40
850
50
270
51
0
0
LINE
8
DOOR
10
27250
20
8500
30
0
11
27250
21
9350
31
0
0
ARC
8
DOOR
10
26400
20
9350
30
0
40
850
50
270
51
0
0
LINE
8
DOOR
10
23250
20
8500
30
0
11
23250
21
9350
31
0
0
ARC
8
DOOR
10
22400
20
9350
30
0
40
850
50
270
51
0
0
LINE
8
HVAC
10
33400
20
750
30
0
11
34200
21
400
31
0
0
LINE
8
DIM
10
22000
20
15000
30
0
11
22000
21
15350
31
0
0
LINE
8
DIM
10
26000
20
15000
30
0
11
26000
21
15350
31
0
0
LINE
8
DIM
10
30000
20
15000
30
0
11
30000
21
15350
31
0
0
LINE
8
DIM
10
34000
20
15000
30
0
11
34000
21
15350
31
0
0
LINE
8
DIM
10
38000
20
15000
30
0
11
38000
21
15350
31
0
0
LINE
8
DIM
10
22000
20
15250
30
0
11
38000
21
15250
31
0
0
LINE
8
DIM
10
21900
20
15150
30
0
11
22100
21
15350
31
0
0
LINE
8
DIM
10
25900
20
15150
30
0
11
26100
21
15350
31
0
0
LINE
8
DIM
10
29900
20
15150
30
0
11
30100
21
15350
31
0
0
LINE
8
DIM
10
33900
20
15150
30
0
11
34100
21
15350
31
0
0
LINE
8
DIM
10
37900
20
15150
30
0
11
38100
21
15350
31
0
0
LINE
8
DIM
10
22000
20
0
30
0
11
22000
21
-1400
31
0
0
LINE
8
DIM
10
26000
20
0
30
0
11
26000
21
-1050
31
0
0
LINE
8
DIM
10
30000
20
0
30
0
11
30000
21
-1050
31
0
0
LINE
8
DIM
10
34000
20
0
30
0
11
34000
21
-1050
31
0
0
LINE
8
DIM
10
38000
20
0
30
0
11
38000
21
-1400
31
0
0
LINE
8
DIM
10
22000
20
-950
30
0
11
38000
21
-950
31
0
0
LINE
8
DIM
10
21900
20
-1050
30
0
11
22100
21
-850
31
0
0
LINE
8
DIM
10
25900
20
-1050
30
0
11
26100
21
-850
31
0
0
LINE
8
DIM
10
29900
20
-1050
30
0
11
30100
21
-850
31
0
0
LINE
8
DIM
10
33900
20
-1050
30
0
11
34100
21
-850
31
0
0
LINE
8
DIM
10
37900
20
-1050
30
0
11
38100
21
-850
31
0
0
LINE
8
DIM
10
22000
20
-1450
30
0
11
38000
21
-1450
31
0
0
LINE
8
DIM
10
21900
20
-1550
30
0
11
22100
21
-1350
31
0
0
LINE
8
DIM
10
37900
20
-1550
30
0
11
38100
21
-1350
31
0
0
LINE
8
DIM
10
22000
20
15000
30
0
11
20800
21
15000
31
0
0
LINE
8
DIM
10
22000
20
10000
30
0
11
21150
21
10000
31
0
0
LINE
8
DIM
10
22000
20
5000
30
0
11
21150
21
5000
31
0
0
LINE
8
DIM
10
22000
20
0
30
0
11
20800
21
0
31
0
0
LINE
8
DIM
10
21250
20
15000
30
0
11
21250
21
0
31
0
0
LINE
8
DIM
10
21150
20
14900
30
0
11
21350
21
15100
31
0
0
LINE
8
DIM
10
21150
20
9900
30
0
11
21350
21
10100
31
0
0
LINE
8
DIM
10
21150
20
4900
30
0
11
21350
21
5100
31
0
0
LINE
8
DIM
10
21150
20
-100
30
0
11
21350
21
100
31
0
0
LINE
8
DIM
10
20900
20
15000
30
0
11
20900
21
0
31
0
0
LINE
8
DIM
10
20800
20
14900
30
0
11
21000
21
15100
31
0
0
LINE
8
DIM
10
20800
20
-100
30
0
11
21000
21
100
31
0
0
SOLID
8
WALL
10
35800
20
4250
30
0
11
35900
21
4250
31
0
12
35800
22
6500
32
0
13
35900
23
6500
33
0
0
LINE
8
WALL
10
35800
20
4250
30
0
11
35900
21
4250
31
0
0
LINE
8
WALL
10
35900
20
4250
30
0
11
35900
21
6500
31
0
0
LINE
8
WALL
10
35900
20
6500
30
0
11
35800
21
6500
31
0
0
LINE
8
WALL
10
35800
20
6500
30
0
11
35800
21
4250
31
0
0
SOLID
8
WALL
10
36650
20
4250
30
0
11
37900
21
4250
31
0
12
36650
22
4350
32
0
13
37900
23
4350
33
0
0
LINE
8
WALL
10
36650
20
4250
30
0
11
37900
21
4250
31
0
0
LINE
8
WALL
10
37900
20
4250
30
0
11
37900
21
4350
31
0
0
LINE
8
WALL
10
37900
20
4350
30
0
11
36650
21
4350
31
0
0
LINE
8
WALL
10
36650
20
4350
30
0
11
36650
21
4250
31
0
0
SOLID
8
WALL
10
31800
20
4250
30
0
11
31900
21
4250
31
0
12
31800
22
6500
32
0
13
31900
23
6500
33
0
0
LINE
8
WALL
10
31800
20
4250
30
0
11
31900
21
4250
31
0
0
LINE
8
WALL
10
31900
20
4250
30
0
11
31900
21
6500
31
0
0
LINE
8
WALL
10
31900
20
6500
30
0
11
31800
21
6500
31
0
0
LINE
8
WALL
10
31800
20
6500
30
0
11
31800
21
4250
31
0
0
SOLID
8
WALL
10
32650
20
4250
30
0
11
33900
21
4250
31
0
12
32650
22
4350
32
0
13
33900
23
4350
33
0
0
LINE
8
WALL
10
32650
20
4250
30
0
11
33900
21
4250
31
0
0
LINE
8
WALL
10
33900
20
4250
30
0
11
33900
21
4350
31
0
0
LINE
8
WALL
10
33900
20
4350
30
0
11
32650
21
4350
31
0
0
LINE
8
WALL
10
32650
20
4350
30
0
11
32650
21
4250
31
0
0
SOLID
8
WALL
10
27800
20
4250
30
0
11
27900
21
4250
31
0
12
27800
22
6500
32
0
13
27900
23
6500
33
0
0
LINE
8
WALL
10
27800
20
4250
30
0
11
27900
21
4250
31
0
0
LINE
8
WALL
10
27900
20
4250
30
0
11
27900
21
6500
31
0
0
LINE
8
WALL
10
27900
20
6500
30
0
11
27800
21
6500
31
0
0
LINE
8
WALL
10
27800
20
6500
30
0
11
27800
21
4250
31
0
0
SOLID
8
WALL
10
28650
20
4250
30
0
11
29900
21
4250
31
0
12
28650
22
4350
32
0
13
29900
23
4350
33
0
0
LINE
8
WALL
10
28650
20
4250
30
0
11
29900
21
4250
31
0
0
LINE
8
WALL
10
29900
20
4250
30
0
11
29900
21
4350
31
0
0
LINE
8
WALL
10
29900
20
4350
30
0
11
28650
21
4350
31
0
0
LINE
8
WALL
10
28650
20
4350
30
0
11
28650
21
4250
31
0
0
SOLID
8
WALL
10
23800
20
4250
30
0
11
23900
21
4250
31
0
12
23800
22
6500
32
0
13
23900
23
6500
33
0
0
LINE
8
WALL
10
23800
20
4250
30
0
11
23900
21
4250
31
0
0
LINE
8
WALL
10
23900
20
4250
30
0
11
23900
21
6500
31
0
0
LINE
8
WALL
10
23900
20
6500
30
0
11
23800
21
6500
31
0
0
LINE
8
WALL
10
23800
20
6500
30
0
11
23800
21
4250
31
0
0
SOLID
8
WALL
10
24650
20
4250
30
0
11
25900
21
4250
31
0
12
24650
22
4350
32
0
13
25900
23
4350
33
0
0
LINE
8
WALL
10
24650
20
4250
30
0
11
25900
21
4250
31
0
0
LINE
8
WALL
10
25900
20
4250
30
0
11
25900
21
4350
31
0
0
LINE
8
WALL
10
25900
20
4350
30
0
11
24650
21
4350
31
0
0
LINE
8
WALL
10
24650
20
4350
30
0
11
24650
21
4250
31
0
0
SOLID
8
WALL
10
31800
20
8500
30
0
11
31900
21
8500
31
0
12
31800
22
10750
32
0
13
31900
23
10750
33
0
0
LINE
8
WALL
10
31800
20
8500
30
0
11
31900
21
8500
31
0
0
LINE
8
WALL
10
31900
20
8500
30
0
11
31900
21
10750
31
0
0
LINE
8
WALL
10
31900
20
10750
30
0
11
31800
21
10750
31
0
0
LINE
8
WALL
10
31800
20
10750
30
0
11
31800
21
8500
31
0
0
SOLID
8
WALL
10
32650
20
10650
30
0
11
33900
21
10650
31
0
12
32650
22
10750
32
0
13
33900
23
10750
33
0
0
LINE
8
WALL
10
32650
20
10650
30
0
11
33900
21
10650
31
0
0
LINE
8
WALL
10
33900
20
10650
30
0
11
33900
21
10750
31
0
0
LINE
8
WALL
10
33900
20
10750
30
0
11
32650
21
10750
31
0
0
LINE
8
WALL
10
32650
20
10750
30
0
11
32650
21
10650
31
0
0
SOLID
8
WALL
10
27800
20
8500
30
0
11
27900
21
8500
31
0
12
27800
22
10750
32
0
13
27900
23
10750
33
0
0
LINE
8
WALL
10
27800
20
8500
30
0
11
27900
21
8500
31
0
0
LINE
8
WALL
10
27900
20
8500
30
0
11
27900
21
10750
31
0
0
LINE
8
WALL
10
27900
20
10750
30
0
11
27800
21
10750
31
0
0
LINE
8
WALL
10
27800
20
10750
30
0
11
27800
21
8500
31
0
0
SOLID
8
WALL
10
28650
20
10650
30
0
11
29900
21
10650
31
0
12
28650
22
10750
32
0
13
29900
23
10750
33
0
0
LINE
8
WALL
10
28650
20
10650
30
0
11
29900
21
10650
31
0
0
LINE
8
WALL
10
29900
20
10650
30
0
11
29900
21
10750
31
0
0
LINE
8
WALL
10
29900
20
10750
30
0
11
28650
21
10750
31
0
0
LINE
8
WALL
10
28650
20
10750
30
0
11
28650
21
10650
31
0
0
SOLID
8
WALL
10
23800
20
8500
30
0
11
23900
21
8500
31
0
12
23800
22
10750
32
0
13
23900
23
10750
33
0
0
LINE
8
WALL
10
23800
20
8500
30
0
11
23900
21
8500
31
0
0
LINE
8
WALL
10
23900
20
8500
30
0
11
23900
21
10750
31
0
0
LINE
8
WALL
10
23900
20
10750
30
0
11
23800
21
10750
31
0
0
LINE
8
WALL
10
23800
20
10750
30
0
11
23800
21
8500
31
0
0
SOLID
8
WALL
10
24650
20
10650
30
0
11
25900
21
10650
31
0
12
24650
22
10750
32
0
13
25900
23
10750
33
0
0
LINE
8
WALL
10
24650
20
10650
30
0
11
25900
21
10650
31
0
0
LINE
8
WALL
10
25900
20
10650
30
0
11
25900
21
10750
31
0
0
LINE
8
WALL
10
25900
20
10750
30
0
11
24650
21
10750
31
0
0
LINE
8
WALL
10
24650
20
10750
30
0
11
24650
21
10650
31
0
0
SOLID
8
WALL
10
22000
20
14750
30
0
11
23000
21
14750
31
0
12
22000
22
15000
32
0
13
23000
23
15000
33
0
0
LINE
8
WALL
10
22000
20
14750
30
0
11
23000
21
14750
31
0
0
LINE
8
WALL
10
23000
20
14750
30
0
11
23000
21
15000
31
0
0
LINE
8
WALL
10
23000
20
15000
30
0
11
22000
21
15000
31
0
0
LINE
8
WALL
10
22000
20
15000
30
0
11
22000
21
14750
31
0
0
SOLID
8
WALL
10
25000
20
14750
30
0
11
27000
21
14750
31
0
12
25000
22
15000
32
0
13
27000
23
15000
33
0
0
LINE
8
WALL
10
25000
20
14750
30
0
11
27000
21
14750
31
0
0
LINE
8
WALL
10
27000
20
14750
30
0
11
27000
21
15000
31
0
0
LINE
8
WALL
10
27000
20
15000
30
0
11
25000
21
15000
31
0
0
LINE
8
WALL
10
25000
20
15000
30
0
11
25000
21
14750
31
0
0
SOLID
8
WALL
10
29000
20
14750
30
0
11
31000
21
14750
31
0
12
29000
22
15000
32
0
13
31000
23
15000
33
0
0
LINE
8
WALL
10
29000
20
14750
30
0
11
31000
21
14750
31
0
0
LINE
8
WALL
10
31000
20
14750
30
0
11
31000
21
15000
31
0
0
LINE
8
WALL
10
31000
20
15000
30
0
11
29000
21
15000
31
0
0
LINE
8
WALL
10
29000
20
15000
30
0
11
29000
21
14750
31
0
0
SOLID
8
WALL
10
33000
20
14750
30
0
11
35000
21
14750
31
0
12
33000
22
15000
32
0
13
35000
23
15000
33
0
0
LINE
8
WALL
10
33000
20
14750
30
0
11
35000
21
14750
31
0
0
LINE
8
WALL
10
35000
20
14750
30
0
11
35000
21
15000
31
0
0
LINE
8
WALL
10
35000
20
15000
30
0
11
33000
21
15000
31
0
0
LINE
8
WALL
10
33000
20
15000
30
0
11
33000
21
14750
31
0
0
SOLID
8
WALL
10
37000
20
14750
30
0
11
38000
21
14750
31
0
12
37000
22
15000
32
0
13
38000
23
15000
33
0
0
LINE
8
WALL
10
37000
20
14750
30
0
11
38000
21
14750
31
0
0
LINE
8
WALL
10
38000
20
14750
30
0
11
38000
21
15000
31
0
0
LINE
8
WALL
10
38000
20
15000
30
0
11
37000
21
15000
31
0
0
LINE
8
WALL
10
37000
20
15000
30
0
11
37000
21
14750
31
0
0
SOLID
8
WALL
10
22000
20
0
30
0
11
22875
21
0
31
0
12
22000
22
250
32
0
13
22875
23
250
33
0
0
LINE
8
WALL
10
22000
20
0
30
0
11
22875
21
0
31
0
0
LINE
8
WALL
10
22875
20
0
30
0
11
22875
21
250
31
0
0
LINE
8
WALL
10
22875
20
250
30
0
11
22000
21
250
31
0
0
LINE
8
WALL
10
22000
20
250
30
0
11
22000
21
0
31
0
0
SOLID
8
WALL
10
25125
20
0
30
0
11
26875
21
0
31
0
12
25125
22
250
32
0
13
26875
23
250
33
0
0
LINE
8
WALL
10
25125
20
0
30
0
11
26875
21
0
31
0
0
LINE
8
WALL
10
26875
20
0
30
0
11
26875
21
250
31
0
0
LINE
8
WALL
10
26875
20
250
30
0
11
25125
21
250
31
0
0
LINE
8
WALL
10
25125
20
250
30
0
11
25125
21
0
31
0
0
SOLID
8
WALL
10
29125
20
0
30
0
11
30875
21
0
31
0
12
29125
22
250
32
0
13
30875
23
250
33
0
0
LINE
8
WALL
10
29125
20
0
30
0
11
30875
21
0
31
0
0
LINE
8
WALL
10
30875
20
0
30
0
11
30875
21
250
31
0
0
LINE
8
WALL
10
30875
20
250
30
0
11
29125
21
250
31
0
0
LINE
8
WALL
10
29125
20
250
30
0
11
29125
21
0
31
0
0
SOLID
8
WALL
10
33125
20
0
30
0
11
34875
21
0
31
0
12
33125
22
250
32
0
13
34875
23
250
33
0
0
LINE
8
WALL
10
33125
20
0
30
0
11
34875
21
0
31
0
0
LINE
8
WALL
10
34875
20
0
30
0
11
34875
21
250
31
0
0
LINE
8
WALL
10
34875
20
250
30
0
11
33125
21
250
31
0
0
LINE
8
WALL
10
33125
20
250
30
0
11
33125
21
0
31
0
0
SOLID
8
WALL
10
37125
20
0
30
0
11
38000
21
0
31
0
12
37125
22
250
32
0
13
38000
23
250
33
0
0
LINE
8
WALL
10
37125
20
0
30
0
11
38000
21
0
31
0
0
LINE
8
WALL
10
38000
20
0
30
0
11
38000
21
250
31
0
0
LINE
8
WALL
10
38000
20
250
30
0
11
37125
21
250
31
0
0
LINE
8
WALL
10
37125
20
250
30
0
11
37125
21
0
31
0
0
SOLID
8
WALL
10
22000
20
13000
30
0
11
22250
21
13000
31
0
12
22000
22
15000
32
0
13
22250
23
15000
33
0
0
LINE
8
WALL
10
22000
20
13000
30
0
11
22250
21
13000
31
0
0
LINE
8
WALL
10
22250
20
13000
30
0
11
22250
21
15000
31
0
0
LINE
8
WALL
10
22250
20
15000
30
0
11
22000
21
15000
31
0
0
LINE
8
WALL
10
22000
20
15000
30
0
11
22000
21
13000
31
0
0
SOLID
8
WALL
10
22000
20
8250
30
0
11
22250
21
8250
31
0
12
22000
22
10750
32
0
13
22250
23
10750
33
0
0
LINE
8
WALL
10
22000
20
8250
30
0
11
22250
21
8250
31
0
0
LINE
8
WALL
10
22250
20
8250
30
0
11
22250
21
10750
31
0
0
LINE
8
WALL
10
22250
20
10750
30
0
11
22000
21
10750
31
0
0
LINE
8
WALL
10
22000
20
10750
30
0
11
22000
21
8250
31
0
0
SOLID
8
WALL
10
22000
20
4000
30
0
11
22250
21
4000
31
0
12
22000
22
6750
32
0
13
22250
23
6750
33
0
0
LINE
8
WALL
10
22000
20
4000
30
0
11
22250
21
4000
31
0
0
LINE
8
WALL
10
22250
20
4000
30
0
11
22250
21
6750
31
0
0
LINE
8
WALL
10
22250
20
6750
30
0
11
22000
21
6750
31
0
0
LINE
8
WALL
10
22000
20
6750
30
0
11
22000
21
4000
31
0
0
SOLID
8
WALL
10
22000
20
0
30
0
11
22250
21
0
31
0
12
22000
22
1750
32
0
13
22250
23
1750
33
0
0
LINE
8
WALL
10
22000
20
0
30
0
11
22250
21
0
31
0
0
LINE
8
WALL
10
22250
20
0
30
0
11
22250
21
1750
31
0
0
LINE
8
WALL
10
22250
20
1750
30
0
11
22000
21
1750
31
0
0
LINE
8
WALL
10
22000
20
1750
30
0
11
22000
21
0
31
0
0
SOLID
8
WALL
10
37750
20
12750
30
0
11
38000
21
12750
31
0
12
37750
22
15000
32
0
13
38000
23
15000
33
0
0
LINE
8
WALL
10
37750
20
12750
30
0
11
38000
21
12750
31
0
0
LINE
8
WALL
10
38000
20
12750
30
0
11
38000
21
15000
31
0
0
LINE
8
WALL
10
38000
20
15000
30
0
11
37750
21
15000
31
0
0
LINE
8
WALL
10
37750
20
15000
30
0
11
37750
21
12750
31
0
0
SOLID
8
WALL
10
37750
20
4000
30
0
11
38000
21
4000
31
0
12
37750
22
10750
32
0
13
38000
23
10750
33
0
0
LINE
8
WALL
10
37750
20
4000
30
0
11
38000
21
4000
31
0
0
LINE
8
WALL
10
38000
20
4000
30
0
11
38000
21
10750
31
0
0
LINE
8
WALL
10
38000
20
10750
30
0
11
37750
21
10750
31
0
0
LINE
8
WALL
10
37750
20
10750
30
0
11
37750
21
4000
31
0
0
SOLID
8
WALL
10
37750
20
0
30
0
11
38000
21
0
31
0
12
37750
22
1750
32
0
13
38000
23
1750
33
0
0
LINE
8
WALL
10
37750
20
0
30
0
11
38000
21
0
31
0
0
LINE
8
WALL
10
38000
20
0
30
0
11
38000
21
1750
31
0
0
LINE
8
WALL
10
38000
20
1750
30
0
11
37750
21
1750
31
0
0
LINE
8
WALL
10
37750
20
1750
30
0
11
37750
21
0
31
0
0
SOLID
8
WALL
10
33925
20
250
30
0
11
34050
21
250
31
0
12
33925
22
6600
32
0
13
34050
23
6600
33
0
0
LINE
8
WALL
10
33925
20
250
30
0
11
34050
21
250
31
0
0
LINE
8
WALL
10
34050
20
250
30
0
11
34050
21
6600
31
0
0
LINE
8
WALL
10
34050
20
6600
30
0
11
33925
21
6600
31
0
0
LINE
8
WALL
10
33925
20
6600
30
0
11
33925
21
250
31
0
0
SOLID
8
WALL
10
29925
20
250
30
0
11
30050
21
250
31
0
12
29925
22
6600
32
0
13
30050
23
6600
33
0
0
LINE
8
WALL
10
29925
20
250
30
0
11
30050
21
250
31
0
0
LINE
8
WALL
10
30050
20
250
30
0
11
30050
21
6600
31
0
0
LINE
8
WALL
10
30050
20
6600
30
0
11
29925
21
6600
31
0
0
LINE
8
WALL
10
29925
20
6600
30
0
11
29925
21
250
31
0
0
SOLID
8
WALL
10
25925
20
250
30
0
11
26050
21
250
31
0
12
25925
22
6600
32
0
13
26050
23
6600
33
0
0
LINE
8
WALL
10
25925
20
250
30
0
11
26050
21
250
31
0
0
LINE
8
WALL
10
26050
20
250
30
0
11
26050
21
6600
31
0
0
LINE
8
WALL
10
26050
20
6600
30
0
11
25925
21
6600
31
0
0
LINE
8
WALL
10
25925
20
6600
30
0
11
25925
21
250
31
0
0
SOLID
8
WALL
10
33925
20
8400
30
0
11
34050
21
8400
31
0
12
33925
22
14750
32
0
13
34050
23
14750
33
0
0
LINE
8
WALL
10
33925
20
8400
30
0
11
34050
21
8400
31
0
0
LINE
8
WALL
10
34050
20
8400
30
0
11
34050
21
14750
31
0
0
LINE
8
WALL
10
34050
20
14750
30
0
11
33925
21
14750
31
0
0
LINE
8
WALL
10
33925
20
14750
30
0
11
33925
21
8400
31
0
0
SOLID
8
WALL
10
29925
20
8400
30
0
11
30050
21
8400
31
0
12
29925
22
14750
32
0
13
30050
23
14750
33
0
0
LINE
8
WALL
10
29925
20
8400
30
0
11
30050
21
8400
31
0
0
LINE
8
WALL
10
30050
20
8400
30
0
11
30050
21
14750
31
0
0
LINE
8
WALL
10
30050
20
14750
30
0
11
29925
21
14750
31
0
0
LINE
8
WALL
10
29925
20
14750
30
0
11
29925
21
8400
31
0
0
SOLID
8
WALL
10
25925
20
8400
30
0
11
26050
21
8400
31
0
12
25925
22
14750
32
0
13
26050
23
14750
33
0
0
LINE
8
WALL
10
25925
20
8400
30
0
11
26050
21
8400
31
0
0
LINE
8
WALL
10
26050
20
8400
30
0
11
26050
21
14750
31
0
0
LINE
8
WALL
10
26050
20
14750
30
0
11
25925
21
14750
31
0
0
LINE
8
WALL
10
25925
20
14750
30
0
11
25925
21
8400
31
0
0
SOLID
8
WALL
10
22250
20
6575
30
0
11
22400
21
6575
31
0
12
22250
22
6700
32
0
13
22400
23
6700
33
0
0
LINE
8
WALL
10
22250
20
6575
30
0
11
22400
21
6575
31
0
0
LINE
8
WALL
10
22400
20
6575
30
0
11
22400
21
6700
31
0
0
LINE
8
WALL
10
22400
20
6700
30
0
11
22250
21
6700
31
0
0
LINE
8
WALL
10
22250
20
6700
30
0
11
22250
21
6575
31
0
0
SOLID
8
WALL
10
23250
20
6575
30
0
11
26400
21
6575
31
0
12
23250
22
6700
32
0
13
26400
23
6700
33
0
0
LINE
8
WALL
10
23250
20
6575
30
0
11
26400
21
6575
31
0
0
LINE
8
WALL
10
26400
20
6575
30
0
11
26400
21
6700
31
0
0
LINE
8
WALL
10
26400
20
6700
30
0
11
23250
21
6700
31
0
0
LINE
8
WALL
10
23250
20
6700
30
0
11
23250
21
6575
31
0
0
SOLID
8
WALL
10
27250
20
6575
30
0
11
30400
21
6575
31
0
12
27250
22
6700
32
0
13
30400
23
6700
33
0
0
LINE
8
WALL
10
27250
20
6575
30
0
11
30400
21
6575
31
0
0
LINE
8
WALL
10
30400
20
6575
30
0
11
30400
21
6700
31
0
0
LINE
8
WALL
10
30400
20
6700
30
0
11
27250
21
6700
31
0
0
LINE
8
WALL
10
27250
20
6700
30
0
11
27250
21
6575
31
0
0
SOLID
8
WALL
10
31250
20
6575
30
0
11
34400
21
6575
31
0
12
31250
22
6700
32
0
13
34400
23
6700
33
0
0
LINE
8
WALL
10
31250
20
6575
30
0
11
34400
21
6575
31
0
0
LINE
8
WALL
10
34400
20
6575
30
0
11
34400
21
6700
31
0
0
LINE
8
WALL
10
34400
20
6700
30
0
11
31250
21
6700
31
0
0
LINE
8
WALL
10
31250
20
6700
30
0
11
31250
21
6575
31
0
0
SOLID
8
WALL
10
35250
20
6575
30
0
11
37750
21
6575
31
0
12
35250
22
6700
32
0
13
37750
23
6700
33
0
0
LINE
8
WALL
10
35250
20
6575
30
0
11
37750
21
6575
31
0
0
LINE
8
WALL
10
37750
20
6575
30
0
11
37750
21
6700
31
0
0
LINE
8
WALL
10
37750
20
6700
30
0
11
35250
21
6700
31
0
0
LINE
8
WALL
10
35250
20
6700
30
0
11
35250
21
6575
31
0
0
SOLID
8
WALL
10
22250
20
8375
30
0
11
22400
21
8375
31
0
12
22250
22
8500
32
0
13
22400
23
8500
33
0
0
LINE
8
WALL
10
22250
20
8375
30
0
11
22400
21
8375
31
0
0
LINE
8
WALL
10
22400
20
8375
30
0
11
22400
21
8500
31
0
0
LINE
8
WALL
10
22400
20
8500
30
0
11
22250
21
8500
31
0
0
LINE
8
WALL
10
22250
20
8500
30
0
11
22250
21
8375
31
0
0
SOLID
8
WALL
10
23250
20
8375
30
0
11
26400
21
8375
31
0
12
23250
22
8500
32
0
13
26400
23
8500
33
0
0
LINE
8
WALL
10
23250
20
8375
30
0
11
26400
21
8375
31
0
0
LINE
8
WALL
10
26400
20
8375
30
0
11
26400
21
8500
31
0
0
LINE
8
WALL
10
26400
20
8500
30
0
11
23250
21
8500
31
0
0
LINE
8
WALL
10
23250
20
8500
30
0
11
23250
21
8375
31
0
0
SOLID
8
WALL
10
27250
20
8375
30
0
11
30400
21
8375
31
0
12
27250
22
8500
32
0
13
30400
23
8500
33
0
0
LINE
8
WALL
10
27250
20
8375
30
0
11
30400
21
8375
31
0
0
LINE
8
WALL
10
30400
20
8375
30
0
11
30400
21
8500
31
0
0
LINE
8
WALL
10
30400
20
8500
30
0
11
27250
21
8500
31
0
0
LINE
8
WALL
10
27250
20
8500
30
0
11
27250
21
8375
31
0
0
SOLID
8
WALL
10
31250
20
8375
30
0
11
34000
21
8375
31
0
12
31250
22
8500
32
0
13
34000
23
8500
33
0
0
LINE
8
WALL
10
31250
20
8375
30
0
11
34000
21
8375
31
0
0
LINE
8
WALL
10
34000
20
8375
30
0
11
34000
21
8500
31
0
0
LINE
8
WALL
10
34000
20
8500
30
0
11
31250
21
8500
31
0
0
LINE
8
WALL
10
31250
20
8500
30
0
11
31250
21
8375
31
0
0
SOLID
8
WALL
10
35350
20
9925
30
0
11
37750
21
9925
31
0
12
35350
22
10050
32
0
13
37750
23
10050
33
0
0
LINE
8
WALL
10
35350
20
9925
30
0
11
37750
21
9925
31
0
0
LINE
8
WALL
10
37750
20
9925
30
0
11
37750
21
10050
31
0
0
LINE
8
WALL
10
37750
20
10050
30
0
11
35350
21
10050
31
0
0
LINE
8
WALL
10
35350
20
10050
30
0
11
35350
21
9925
31
0
0
SOLID
8
WALL
10
35300
20
7550
30
0
11
35425
21
7550
31
0
12
35300
22
10050
32
0
13
35425
23
10050
33
0
0
LINE
8
WALL
10
35300
20
7550
30
0
11
35425
21
7550
31
0
0
LINE
8
WALL
10
35425
20
7550
30
0
11
35425
21
10050
31
0
0
LINE
8
WALL
10
35425
20
10050
30
0
11
35300
21
10050
31
0
0
LINE
8
WALL
10
35300
20
10050
30
0
11
35300
21
7550
31
0
0
SOLID
8
WALL
10
36750
20
7550
30
0
11
37750
21
7550
31
0
12
36750
22
7675
32
0
13
37750
23
7675
33
0
0
LINE
8
WALL
10
36750
20
7550
30
0
11
37750
21
7550
31
0
0
LINE
8
WALL
10
37750
20
7550
30
0
11
37750
21
7675
31
0
0
LINE
8
WALL
10
37750
20
7675
30
0
11
36750
21
7675
31
0
0
LINE
8
WALL
10
36750
20
7675
30
0
11
36750
21
7550
31
0
0
LINE
8
WINDOW
10
58750
20
7612.5
30
0
11
57425
21
7612.5
31
0
0
LINE
8
DOOR
10
54250
20
10050
30
0
11
54250
21
10900
31
0
0
ARC
8
DOOR
10
53400
20
10900
30
0
40
850
50
270
51
0
0
LINE
8
DOOR
10
50500
20
10050
30
0
11
50500
21
10900
31
0
0
ARC
8
DOOR
10
49650
20
10900
30
0
40
850
50
270
51
0
0
LINE
8
DOOR
10
46750
20
10050
30
0
11
46750
21
10900
31
0
0
ARC
8
DOOR
10
45900
20
10900
30
0
40
850
50
270
51
0
0
LINE
8
DOOR
10
54125
20
9350
30
0
11
53275
21
9350
31
0
0
ARC
8
DOOR
10
53275
20
8500
30
0
40
850
50
0
51
90
0
LINE
8
WINDOW
10
59350
20
5175
30
0
11
51500
21
5175
31
0
0
LINE
8
WINDOW
10
52050
20
5075
30
0
11
44400
21
5075
31
0
0
LINE
8
WINDOW
10
52750
20
14962.5
30
0
11
55000
21
14962.5
31
0
0
LINE
8
WINDOW
10
55000
20
14962.5
30
0
11
55000
21
14787.5
31
0
0
LINE
8
WINDOW
10
55000
20
14787.5
30
0
11
52750
21
14787.5
31
0
0
LINE
8
WINDOW
10
52750
20
14787.5
30
0
11
52750
21
14962.5
31
0
0
LINE
8
WINDOW
10
55000
20
14875
30
0
11
52750
21
14875
31
0
0
LINE
8
WINDOW
10
49000
20
14962.5
30
0
11
51250
21
14962.5
31
0
0
LINE
8
WINDOW
10
51250
20
14962.5
30
0
11
51250
21
14787.5
31
0
0
LINE
8
WINDOW
10
51250
20
14787.5
30
0
11
49000
21
14787.5
31
0
0
LINE
8
WINDOW
10
49000
20
14787.5
30
0
11
49000
21
14962.5
31
0
0
LINE
8
WINDOW
10
51250
20
14875
30
0
11
49000
21
14875
31
0
0
LINE
8
WINDOW
10
44300
20
14962.5
30
0
11
45750
21
14962.5
31
0
0
LINE
8
WINDOW
10
45750
20
14962.5
30
0
11
45750
21
14787.5
31
0
0
LINE
8
WINDOW
10
45750
20
14787.5
30
0
11
44300
21
14787.5
31
0
0
LINE
8
WINDOW
10
44300
20
14787.5
30
0
11
44300
21
14962.5
31
0
0
LINE
8
WINDOW
10
45750
20
14875
30
0
11
44300
21
14875
31
0
0
LINE
8
WINDOW
10
59787.5
20
12750
30
0
11
59962.5
21
12750
31
0
0
LINE
8
WINDOW
10
59962.5
20
12750
30
0
11
59962.5
21
10750
31
0
0
LINE
8
WINDOW
10
59962.5
20
10750
30
0
11
59787.5
21
10750
31
0
0
LINE
8
WINDOW
10
59787.5
20
10750
30
0
11
59787.5
21
12750
31
0
0
LINE
8
WINDOW
10
59875
20
12750
30
0
11
59875
21
10750
31
0
0
LINE
8
WINDOW
10
44037.5
20
14250
30
0
11
44212.5
21
14250
31
0
0
LINE
8
WINDOW
10
44212.5
20
14250
30
0
11
44212.5
21
12500
31
0
0
LINE
8
WINDOW
10
44212.5
20
12500
30
0
11
44037.5
21
12500
31
0
0
LINE
8
WINDOW
10
44037.5
20
12500
30
0
11
44037.5
21
14250
31
0
0
LINE
8
WINDOW
10
44125
20
14250
30
0
11
44125
21
12500
31
0
0
LINE
8
WINDOW
10
44037.5
20
9500
30
0
11
44212.5
21
9500
31
0
0
LINE
8
WINDOW
10
44212.5
20
9500
30
0
11
44212.5
21
6500
31
0
0
LINE
8
WINDOW
10
44212.5
20
6500
30
0
11
44037.5
21
6500
31
0
0
LINE
8
WINDOW
10
44037.5
20
6500
30
0
11
44037.5
21
9500
31
0
0
LINE
8
WINDOW
10
44125
20
9500
30
0
11
44125
21
6500
31
0
0
LINE
8
FURN
10
59650
20
9925
30
0
11
57500
21
7725
31
0
0
LINE
8
FURN
10
57500
20
9925
30
0
11
59650
21
7725
31
0
0
LINE
8
FURN
10
59650
20
13550
30
0
11
56200
21
13550
31
0
0
LINE
8
FURN
10
59650
20
13225
30
0
11
58000
21
13225
31
0
0
LINE
8
FURN
10
57850
20
13225
30
0
11
56200
21
13225
31
0
0
LINE
8
FURN
10
59650
20
12900
30
0
11
58000
21
12900
31
0
0
LINE
8
FURN
10
57850
20
12900
30
0
11
56200
21
12900
31
0
0
LINE
8
FURN
10
59650
20
12575
30
0
11
58000
21
12575
31
0
0
LINE
8
FURN
10
57850
20
12575
30
0
11
56200
21
12575
31
0
0
LINE
8
FURN
10
59650
20
12250
30
0
11
58000
21
12250
31
0
0
LINE
8
FURN
10
57850
20
12250
30
0
11
56200
21
12250
31
0
0
LINE
8
FURN
10
59650
20
11925
30
0
11
58000
21
11925
31
0
0
LINE
8
FURN
10
57850
20
11925
30
0
11
56200
21
11925
31
0
0
LINE
8
FURN
10
59650
20
11600
30
0
11
58000
21
11600
31
0
0
LINE
8
FURN
10
57850
20
11600
30
0
11
56200
21
11600
31
0
0
LINE
8
FURN
10
59650
20
11275
30
0
11
58000
21
11275
31
0
0
LINE
8
FURN
10
57850
20
11275
30
0
11
56200
21
11275
31
0
0
LINE
8
FURN
10
59650
20
10950
30
0
11
58000
21
10950
31
0
0
LINE
8
FURN
10
57850
20
10950
30
0
11
56200
21
10950
31
0
0
LINE
8
FURN
10
59650
20
10625
30
0
11
58000
21
10625
31
0
0
LINE
8
FURN
10
57850
20
10625
30
0
11
56200
21
10625
31
0
0
LINE
8
FURN
10
58000
20
13550
30
0
11
58000
21
10200
31
0
0
LINE
8
FURN
10
57850
20
13550
30
0
11
57850
21
10200
31
0
0
LINE
8
FURN
10
58825
20
13150
30
0
11
58825
21
10500
31
0
0
LINE
8
FURN
10
58925
20
10700
30
0
11
58825
21
10500
31
0
0
LINE
8
FURN
10
58825
20
10500
30
0
11
58725
21
10700
31
0
0
LINE
8
FURN
10
56150
20
7200
30
0
11
56750
21
7200
31
0
0
LINE
8
FURN
10
56750
20
7200
30
0
11
56750
21
5250
31
0
0
LINE
8
FURN
10
56750
20
5250
30
0
11
56150
21
5250
31
0
0
LINE
8
FURN
10
56150
20
5250
30
0
11
56150
21
7200
31
0
0
LINE
8
FURN
10
52175
20
7600
30
0
11
55925
21
7600
31
0
0
LINE
8
FURN
10
55925
20
7600
30
0
11
55925
21
7100
31
0
0
LINE
8
FURN
10
55925
20
7100
30
0
11
52175
21
7100
31
0
0
LINE
8
FURN
10
52175
20
7100
30
0
11
52175
21
7600
31
0
0
LINE
8
FURN
10
55425
20
7100
30
0
11
55925
21
7100
31
0
0
LINE
8
FURN
10
55925
20
7100
30
0
11
55925
21
5200
31
0
0
LINE
8
FURN
10
55925
20
5200
30
0
11
55425
21
5200
31
0
0
LINE
8
FURN
10
55425
20
5200
30
0
11
55425
21
7100
31
0
0
LINE
8
FURN
10
52400
20
6600
30
0
11
54750
21
6600
31
0
0
LINE
8
FURN
10
54750
20
6600
30
0
11
54750
21
5750
31
0
0
LINE
8
FURN
10
54750
20
5750
30
0
11
52400
21
5750
31
0
0
LINE
8
FURN
10
52400
20
5750
30
0
11
52400
21
6600
31
0
0
CIRCLE
8
FURN
10
54200
20
5350
30
0
40
125
0
CIRCLE
8
FURN
10
53575
20
5350
30
0
40
125
0
CIRCLE
8
FURN
10
52950
20
5350
30
0
40
125
0
LINE
8
FURN
10
49050
20
8250
30
0
11
51450
21
8250
31
0
0
LINE
8
FURN
10
51450
20
8250
30
0
11
51450
21
6950
31
0
0
LINE
8
FURN
10
51450
20
6950
30
0
11
49050
21
6950
31
0
0
LINE
8
FURN
10
49050
20
6950
30
0
11
49050
21
8250
31
0
0
LINE
8
FURN
10
50800
20
8550
30
0
11
51250
21
8550
31
0
0
LINE
8
FURN
10
51250
20
8550
30
0
11
51250
21
8300
31
0
0
LINE
8
FURN
10
51250
20
8300
30
0
11
50800
21
8300
31
0
0
LINE
8
FURN
10
50800
20
8300
30
0
11
50800
21
8550
31
0
0
LINE
8
FURN
10
50025
20
8550
30
0
11
50475
21
8550
31
0
0
LINE
8
FURN
10
50475
20
8550
30
0
11
50475
21
8300
31
0
0
LINE
8
FURN
10
50475
20
8300
30
0
11
50025
21
8300
31
0
0
LINE
8
FURN
10
50025
20
8300
30
0
11
50025
21
8550
31
0
0
LINE
8
FURN
10
49250
20
8550
30
0
11
49700
21
8550
31
0
0
LINE
8
FURN
10
49700
20
8550
30
0
11
49700
21
8300
31
0
0
LINE
8
FURN
10
49700
20
8300
30
0
11
49250
21
8300
31
0
0
LINE
8
FURN
10
49250
20
8300
30
0
11
49250
21
8550
31
0
0
LINE
8
FURN
10
50800
20
6900
30
0
11
51250
21
6900
31
0
0
LINE
8
FURN
10
51250
20
6900
30
0
11
51250
21
6650
31
0
0
LINE
8
FURN
10
51250
20
6650
30
0
11
50800
21
6650
31
0
0
LINE
8
FURN
10
50800
20
6650
30
0
11
50800
21
6900
31
0
0
LINE
8
FURN
10
50025
20
6900
30
0
11
50475
21
6900
31
0
0
LINE
8
FURN
10
50475
20
6900
30
0
11
50475
21
6650
31
0
0
LINE
8
FURN
10
50475
20
6650
30
0
11
50025
21
6650
31
0
0
LINE
8
FURN
10
50025
20
6650
30
0
11
50025
21
6900
31
0
0
LINE
8
FURN
10
49250
20
6900
30
0
11
49700
21
6900
31
0
0
LINE
8
FURN
10
49700
20
6900
30
0
11
49700
21
6650
31
0
0
LINE
8
FURN
10
49700
20
6650
30
0
11
49250
21
6650
31
0
0
LINE
8
FURN
10
49250
20
6650
30
0
11
49250
21
6900
31
0
0
LINE
8
FURN
6
DASHED
10
44600
20
8250
30
0
11
47850
21
8250
31
0
0
LINE
8
FURN
6
DASHED
10
47850
20
8250
30
0
11
47850
21
5850
31
0
0
LINE
8
FURN
6
DASHED
10
47850
20
5850
30
0
11
44600
21
5850
31
0
0
LINE
8
FURN
6
DASHED
10
44600
20
5850
30
0
11
44600
21
8250
31
0
0
LINE
8
FURN
10
44750
20
9450
30
0
11
47750
21
9450
31
0
0
LINE
8
FURN
10
47750
20
9450
30
0
11
47750
21
9200
31
0
0
LINE
8
FURN
10
47750
20
9200
30
0
11
44750
21
9200
31
0
0
LINE
8
FURN
10
44750
20
9200
30
0
11
44750
21
9450
31
0
0
LINE
8
FURN
10
44750
20
6150
30
0
11
47750
21
6150
31
0
0
LINE
8
FURN
10
47750
20
6150
30
0
11
47750
21
5400
31
0
0
LINE
8
FURN
10
47750
20
5400
30
0
11
44750
21
5400
31
0
0
LINE
8
FURN
10
44750
20
5400
30
0
11
44750
21
6150
31
0
0
LINE
8
FURN
10
47750
20
5900
30
0
11
44750
21
5900
31
0
0
LINE
8
FURN
10
47000
20
7950
30
0
11
47750
21
7950
31
0
0
LINE
8
FURN
10
47750
20
7950
30
0
11
47750
21
7200
31
0
0
LINE
8
FURN
10
47750
20
7200
30
0
11
47000
21
7200
31
0
0
LINE
8
FURN
10
47000
20
7200
30
0
11
47000
21
7950
31
0
0
CIRCLE
8
FURN
10
44950
20
7500
30
0
40
150
0
LINE
8
FURN
10
53900
20
14700
30
0
11
55500
21
14700
31
0
0
LINE
8
FURN
10
55500
20
14700
30
0
11
55500
21
12650
31
0
0
LINE
8
FURN
10
55500
20
12650
30
0
11
53900
21
12650
31
0
0
LINE
8
FURN
10
53900
20
12650
30
0
11
53900
21
14700
31
0
0
LINE
8
FURN
10
54750
20
14550
30
0
11
55350
21
14550
31
0
0
LINE
8
FURN
10
55350
20
14550
30
0
11
55350
21
14225
31
0
0
LINE
8
FURN
10
55350
20
14225
30
0
11
54750
21
14225
31
0
0
LINE
8
FURN
10
54750
20
14225
30
0
11
54750
21
14550
31
0
0
LINE
8
FURN
10
54000
20
14550
30
0
11
54600
21
14550
31
0
0
LINE
8
FURN
10
54600
20
14550
30
0
11
54600
21
14225
31
0
0
LINE
8
FURN
10
54600
20
14225
30
0
11
54000
21
14225
31
0
0
LINE
8
FURN
10
54000
20
14225
30
0
11
54000
21
14550
31
0
0
LINE
8
FURN
10
52200
20
14650
30
0
11
53800
21
14650
31
0
0
LINE
8
FURN
10
53800
20
14650
30
0
11
53800
21
14200
31
0
0
LINE
8
FURN
10
53800
20
14200
30
0
11
52200
21
14200
31
0
0
LINE
8
FURN
10
52200
20
14200
30
0
11
52200
21
14650
31
0
0
LINE
8
FURN
10
53800
20
14425
30
0
11
52200
21
14425
31
0
0
LINE
8
FURN
10
49900
20
14700
30
0
11
51500
21
14700
31
0
0
LINE
8
FURN
10
51500
20
14700
30
0
11
51500
21
12650
31
0
0
LINE
8
FURN
10
51500
20
12650
30
0
11
49900
21
12650
31
0
0
LINE
8
FURN
10
49900
20
12650
30
0
11
49900
21
14700
31
0
0
LINE
8
FURN
10
50750
20
14550
30
0
11
51350
21
14550
31
0
0
LINE
8
FURN
10
51350
20
14550
30
0
11
51350
21
14225
31
0
0
LINE
8
FURN
10
51350
20
14225
30
0
11
50750
21
14225
31
0
0
LINE
8
FURN
10
50750
20
14225
30
0
11
50750
21
14550
31
0
0
LINE
8
FURN
10
50000
20
14550
30
0
11
50600
21
14550
31
0
0
LINE
8
FURN
10
50600
20
14550
30
0
11
50600
21
14225
31
0
0
LINE
8
FURN
10
50600
20
14225
30
0
11
50000
21
14225
31
0
0
LINE
8
FURN
10
50000
20
14225
30
0
11
50000
21
14550
31
0
0
LINE
8
FURN
10
48250
20
14650
30
0
11
49800
21
14650
31
0
0
LINE
8
FURN
10
49800
20
14650
30
0
11
49800
21
14200
31
0
0
LINE
8
FURN
10
49800
20
14200
30
0
11
48250
21
14200
31
0
0
LINE
8
FURN
10
48250
20
14200
30
0
11
48250
21
14650
31
0
0
LINE
8
FURN
10
49800
20
14425
30
0
11
48250
21
14425
31
0
0
LINE
8
FURN
10
44300
20
11800
30
0
11
46100
21
11800
31
0
0
LINE
8
FURN
10
46100
20
11800
30
0
11
46100
21
10250
31
0
0
LINE
8
FURN
10
46100
20
10250
30
0
11
44300
21
10250
31
0
0
LINE
8
FURN
10
44300
20
10250
30
0
11
44300
21
11800
31
0
0
LINE
8
FURN
10
45200
20
11650
30
0
11
45950
21
11650
31
0
0
LINE
8
FURN
10
45950
20
11650
30
0
11
45950
21
11300
31
0
0
LINE
8
FURN
10
45950
20
11300
30
0
11
45200
21
11300
31
0
0
LINE
8
FURN
10
45200
20
11300
30
0
11
45200
21
11650
31
0
0
LINE
8
FURN
10
44400
20
11650
30
0
11
45150
21
11650
31
0
0
LINE
8
FURN
10
45150
20
11650
30
0
11
45150
21
11300
31
0
0
LINE
8
FURN
10
45150
20
11300
30
0
11
44400
21
11300
31
0
0
LINE
8
FURN
10
44400
20
11300
30
0
11
44400
21
11650
31
0
0
LINE
8
FURN
10
46525
20
14700
30
0
11
47825
21
14700
31
0
0
LINE
8
FURN
10
47825
20
14700
30
0
11
47825
21
14300
31
0
0
LINE
8
FURN
10
47825
20
14300
30
0
11
46525
21
14300
31
0
0
LINE
8
FURN
10
46525
20
14300
30
0
11
46525
21
14700
31
0
0
LINE
8
FURN
10
47825
20
14500
30
0
11
46525
21
14500
31
0
0
LINE
8
FURN
10
46525
20
14100
30
0
11
47825
21
14100
31
0
0
LINE
8
FURN
10
47825
20
14100
30
0
11
47825
21
13700
31
0
0
LINE
8
FURN
10
47825
20
13700
30
0
11
46525
21
13700
31
0
0
LINE
8
FURN
10
46525
20
13700
30
0
11
46525
21
14100
31
0
0
LINE
8
FURN
10
47825
20
13900
30
0
11
46525
21
13900
31
0
0
LINE
8
FURN
10
45500
20
14650
30
0
11
46250
21
14650
31
0
0
LINE
8
FURN
10
46250
20
14650
30
0
11
46250
21
14300
31
0
0
LINE
8
FURN
10
46250
20
14300
30
0
11
45500
21
14300
31
0
0
LINE
8
FURN
10
45500
20
14300
30
0
11
45500
21
14650
31
0
0
LINE
8
FURN
10
46125
20
14475
30
0
11
46106
21
14427.2
31
0
0
LINE
8
FURN
10
46106
20
14427.2
30
0
11
46051.8
21
14386.6
31
0
0
LINE
8
FURN
10
46051.8
20
14386.6
30
0
11
45970.7
21
14359.5
31
0
0
LINE
8
FURN
10
45970.7
20
14359.5
30
0
11
45875
21
14350
31
0
0
LINE
8
FURN
10
45875
20
14350
30
0
11
45779.3
21
14359.5
31
0
0
LINE
8
FURN
10
45779.3
20
14359.5
30
0
11
45698.2
21
14386.6
31
0
0
LINE
8
FURN
10
45698.2
20
14386.6
30
0
11
45644
21
14427.2
31
0
0
LINE
8
FURN
10
45644
20
14427.2
30
0
11
45625
21
14475
31
0
0
LINE
8
FURN
10
45625
20
14475
30
0
11
45644
21
14522.8
31
0
0
LINE
8
FURN
10
45644
20
14522.8
30
0
11
45698.2
21
14563.4
31
0
0
LINE
8
FURN
10
45698.2
20
14563.4
30
0
11
45779.3
21
14590.5
31
0
0
LINE
8
FURN
10
45779.3
20
14590.5
30
0
11
45875
21
14600
31
0
0
LINE
8
FURN
10
45875
20
14600
30
0
11
45970.7
21
14590.5
31
0
0
LINE
8
FURN
10
45970.7
20
14590.5
30
0
11
46051.8
21
14563.4
31
0
0
LINE
8
FURN
10
46051.8
20
14563.4
30
0
11
46106
21
14522.8
31
0
0
LINE
8
FURN
10
46106
20
14522.8
30
0
11
46125
21
14475
31
0
0
LINE
8
FURN
10
46025
20
13500
30
0
11
46007.9
21
13394.8
31
0
0
LINE
8
FURN
10
46007.9
20
13394.8
30
0
11
45959.1
21
13305.5
31
0
0
LINE
8
FURN
10
45959.1
20
13305.5
30
0
11
45886.1
21
13245.9
31
0
0
LINE
8
FURN
10
45886.1
20
13245.9
30
0
11
45800
21
13225
31
0
0
LINE
8
FURN
10
45800
20
13225
30
0
11
45713.9
21
13245.9
31
0
0
LINE
8
FURN
10
45713.9
20
13245.9
30
0
11
45640.9
21
13305.5
31
0
0
LINE
8
FURN
10
45640.9
20
13305.5
30
0
11
45592.1
21
13394.8
31
0
0
LINE
8
FURN
10
45592.1
20
13394.8
30
0
11
45575
21
13500
31
0
0
LINE
8
FURN
10
45575
20
13500
30
0
11
45592.1
21
13605.2
31
0
0
LINE
8
FURN
10
45592.1
20
13605.2
30
0
11
45640.9
21
13694.5
31
0
0
LINE
8
FURN
10
45640.9
20
13694.5
30
0
11
45713.9
21
13754.1
31
0
0
LINE
8
FURN
10
45713.9
20
13754.1
30
0
11
45800
21
13775
31
0
0
LINE
8
FURN
10
45800
20
13775
30
0
11
45886.1
21
13754.1
31
0
0
LINE
8
FURN
10
45886.1
20
13754.1
30
0
11
45959.1
21
13694.5
31
0
0
LINE
8
FURN
10
45959.1
20
13694.5
30
0
11
46007.9
21
13605.2
31
0
0
LINE
8
FURN
10
46007.9
20
13605.2
30
0
11
46025
21
13500
31
0
0
LINE
8
FURN
10
44200
20
14650
30
0
11
45100
21
14650
31
0
0
LINE
8
FURN
10
45100
20
14650
30
0
11
45100
21
13650
31
0
0
LINE
8
FURN
10
45100
20
13650
30
0
11
44200
21
13650
31
0
0
LINE
8
FURN
10
44200
20
13650
30
0
11
44200
21
14650
31
0
0
LINE
8
FURN
10
45100
20
14650
30
0
11
44200
21
13650
31
0
0
LINE
8
FURN
10
55300
20
9800
30
0
11
55800
21
9800
31
0
0
LINE
8
FURN
10
55800
20
9800
30
0
11
55800
21
9600
31
0
0
LINE
8
FURN
10
55800
20
9600
30
0
11
55300
21
9600
31
0
0
LINE
8
FURN
10
55300
20
9600
30
0
11
55300
21
9800
31
0
0
LINE
8
FURN
10
55750
20
9700
30
0
11
55734.8
21
9661.7
31
0
0
LINE
8
FURN
10
55734.8
20
9661.7
30
0
11
55691.4
21
9629.3
31
0
0
LINE
8
FURN
10
55691.4
20
9629.3
30
0
11
55626.5
21
9607.6
31
0
0
LINE
8
FURN
10
55626.5
20
9607.6
30
0
11
55550
21
9600
31
0
0
LINE
8
FURN
10
55550
20
9600
30
0
11
55473.5
21
9607.6
31
0
0
LINE
8
FURN
10
55473.5
20
9607.6
30
0
11
55408.6
21
9629.3
31
0
0
LINE
8
FURN
10
55408.6
20
9629.3
30
0
11
55365.2
21
9661.7
31
0
0
LINE
8
FURN
10
55365.2
20
9661.7
30
0
11
55350
21
9700
31
0
0
LINE
8
FURN
10
55350
20
9700
30
0
11
55365.2
21
9738.3
31
0
0
LINE
8
FURN
10
55365.2
20
9738.3
30
0
11
55408.6
21
9770.7
31
0
0
LINE
8
FURN
10
55408.6
20
9770.7
30
0
11
55473.5
21
9792.4
31
0
0
LINE
8
FURN
10
55473.5
20
9792.4
30
0
11
55550
21
9800
31
0
0
LINE
8
FURN
10
55550
20
9800
30
0
11
55626.5
21
9792.4
31
0
0
LINE
8
FURN
10
55626.5
20
9792.4
30
0
11
55691.4
21
9770.7
31
0
0
LINE
8
FURN
10
55691.4
20
9770.7
30
0
11
55734.8
21
9738.3
31
0
0
LINE
8
FURN
10
55734.8
20
9738.3
30
0
11
55750
21
9700
31
0
0
LINE
8
FURN
10
55775
20
8800
30
0
11
55757.9
21
8694.8
31
0
0
LINE
8
FURN
10
55757.9
20
8694.8
30
0
11
55709.1
21
8605.5
31
0
0
LINE
8
FURN
10
55709.1
20
8605.5
30
0
11
55636.1
21
8545.9
31
0
0
LINE
8
FURN
10
55636.1
20
8545.9
30
0
11
55550
21
8525
31
0
0
LINE
8
FURN
10
55550
20
8525
30
0
11
55463.9
21
8545.9
31
0
0
LINE
8
FURN
10
55463.9
20
8545.9
30
0
11
55390.9
21
8605.5
31
0
0
LINE
8
FURN
10
55390.9
20
8605.5
30
0
11
55342.1
21
8694.8
31
0
0
LINE
8
FURN
10
55342.1
20
8694.8
30
0
11
55325
21
8800
31
0
0
LINE
8
FURN
10
55325
20
8800
30
0
11
55342.1
21
8905.2
31
0
0
LINE
8
FURN
10
55342.1
20
8905.2
30
0
11
55390.9
21
8994.5
31
0
0
LINE
8
FURN
10
55390.9
20
8994.5
30
0
11
55463.9
21
9054.1
31
0
0
LINE
8
FURN
10
55463.9
20
9054.1
30
0
11
55550
21
9075
31
0
0
LINE
8
FURN
10
55550
20
9075
30
0
11
55636.1
21
9054.1
31
0
0
LINE
8
FURN
10
55636.1
20
9054.1
30
0
11
55709.1
21
8994.5
31
0
0
LINE
8
FURN
10
55709.1
20
8994.5
30
0
11
55757.9
21
8905.2
31
0
0
LINE
8
FURN
10
55757.9
20
8905.2
30
0
11
55775
21
8800
31
0
0
LINE
8
FURN
10
54250
20
9800
30
0
11
54950
21
9800
31
0
0
LINE
8
FURN
10
54950
20
9800
30
0
11
54950
21
9350
31
0
0
LINE
8
FURN
10
54950
20
9350
30
0
11
54250
21
9350
31
0
0
LINE
8
FURN
10
54250
20
9350
30
0
11
54250
21
9800
31
0
0
LINE
8
FURN
10
54950
20
9800
30
0
11
54250
21
9350
31
0
0
SOLID
8
COLUMN
10
59775
20
4775
30
0
11
60225
21
4775
31
0
12
59775
22
5225
32
0
13
60225
23
5225
33
0
0
LINE
8
COLUMN
10
59775
20
4775
30
0
11
60225
21
4775
31
0
0
LINE
8
COLUMN
10
60225
20
4775
30
0
11
60225
21
5225
31
0
0
LINE
8
COLUMN
10
60225
20
5225
30
0
11
59775
21
5225
31
0
0
LINE
8
COLUMN
10
59775
20
5225
30
0
11
59775
21
4775
31
0
0
SOLID
8
COLUMN
10
55775
20
4775
30
0
11
56225
21
4775
31
0
12
55775
22
5225
32
0
13
56225
23
5225
33
0
0
LINE
8
COLUMN
10
55775
20
4775
30
0
11
56225
21
4775
31
0
0
LINE
8
COLUMN
10
56225
20
4775
30
0
11
56225
21
5225
31
0
0
LINE
8
COLUMN
10
56225
20
5225
30
0
11
55775
21
5225
31
0
0
LINE
8
COLUMN
10
55775
20
5225
30
0
11
55775
21
4775
31
0
0
SOLID
8
COLUMN
10
51775
20
4775
30
0
11
52225
21
4775
31
0
12
51775
22
5225
32
0
13
52225
23
5225
33
0
0
LINE
8
COLUMN
10
51775
20
4775
30
0
11
52225
21
4775
31
0
0
LINE
8
COLUMN
10
52225
20
4775
30
0
11
52225
21
5225
31
0
0
LINE
8
COLUMN
10
52225
20
5225
30
0
11
51775
21
5225
31
0
0
LINE
8
COLUMN
10
51775
20
5225
30
0
11
51775
21
4775
31
0
0
SOLID
8
COLUMN
10
47775
20
4775
30
0
11
48225
21
4775
31
0
12
47775
22
5225
32
0
13
48225
23
5225
33
0
0
LINE
8
COLUMN
10
47775
20
4775
30
0
11
48225
21
4775
31
0
0
LINE
8
COLUMN
10
48225
20
4775
30
0
11
48225
21
5225
31
0
0
LINE
8
COLUMN
10
48225
20
5225
30
0
11
47775
21
5225
31
0
0
LINE
8
COLUMN
10
47775
20
5225
30
0
11
47775
21
4775
31
0
0
SOLID
8
COLUMN
10
43775
20
4775
30
0
11
44225
21
4775
31
0
12
43775
22
5225
32
0
13
44225
23
5225
33
0
0
LINE
8
COLUMN
10
43775
20
4775
30
0
11
44225
21
4775
31
0
0
LINE
8
COLUMN
10
44225
20
4775
30
0
11
44225
21
5225
31
0
0
LINE
8
COLUMN
10
44225
20
5225
30
0
11
43775
21
5225
31
0
0
LINE
8
COLUMN
10
43775
20
5225
30
0
11
43775
21
4775
31
0
0
SOLID
8
COLUMN
10
59775
20
9775
30
0
11
60225
21
9775
31
0
12
59775
22
10225
32
0
13
60225
23
10225
33
0
0
LINE
8
COLUMN
10
59775
20
9775
30
0
11
60225
21
9775
31
0
0
LINE
8
COLUMN
10
60225
20
9775
30
0
11
60225
21
10225
31
0
0
LINE
8
COLUMN
10
60225
20
10225
30
0
11
59775
21
10225
31
0
0
LINE
8
COLUMN
10
59775
20
10225
30
0
11
59775
21
9775
31
0
0
SOLID
8
COLUMN
10
55775
20
9775
30
0
11
56225
21
9775
31
0
12
55775
22
10225
32
0
13
56225
23
10225
33
0
0
LINE
8
COLUMN
10
55775
20
9775
30
0
11
56225
21
9775
31
0
0
LINE
8
COLUMN
10
56225
20
9775
30
0
11
56225
21
10225
31
0
0
LINE
8
COLUMN
10
56225
20
10225
30
0
11
55775
21
10225
31
0
0
LINE
8
COLUMN
10
55775
20
10225
30
0
11
55775
21
9775
31
0
0
SOLID
8
COLUMN
10
51775
20
9775
30
0
11
52225
21
9775
31
0
12
51775
22
10225
32
0
13
52225
23
10225
33
0
0
LINE
8
COLUMN
10
51775
20
9775
30
0
11
52225
21
9775
31
0
0
LINE
8
COLUMN
10
52225
20
9775
30
0
11
52225
21
10225
31
0
0
LINE
8
COLUMN
10
52225
20
10225
30
0
11
51775
21
10225
31
0
0
LINE
8
COLUMN
10
51775
20
10225
30
0
11
51775
21
9775
31
0
0
SOLID
8
COLUMN
10
47775
20
9775
30
0
11
48225
21
9775
31
0
12
47775
22
10225
32
0
13
48225
23
10225
33
0
0
LINE
8
COLUMN
10
47775
20
9775
30
0
11
48225
21
9775
31
0
0
LINE
8
COLUMN
10
48225
20
9775
30
0
11
48225
21
10225
31
0
0
LINE
8
COLUMN
10
48225
20
10225
30
0
11
47775
21
10225
31
0
0
LINE
8
COLUMN
10
47775
20
10225
30
0
11
47775
21
9775
31
0
0
SOLID
8
COLUMN
10
43775
20
9775
30
0
11
44225
21
9775
31
0
12
43775
22
10225
32
0
13
44225
23
10225
33
0
0
LINE
8
COLUMN
10
43775
20
9775
30
0
11
44225
21
9775
31
0
0
LINE
8
COLUMN
10
44225
20
9775
30
0
11
44225
21
10225
31
0
0
LINE
8
COLUMN
10
44225
20
10225
30
0
11
43775
21
10225
31
0
0
LINE
8
COLUMN
10
43775
20
10225
30
0
11
43775
21
9775
31
0
0
SOLID
8
COLUMN
10
59775
20
14775
30
0
11
60225
21
14775
31
0
12
59775
22
15225
32
0
13
60225
23
15225
33
0
0
LINE
8
COLUMN
10
59775
20
14775
30
0
11
60225
21
14775
31
0
0
LINE
8
COLUMN
10
60225
20
14775
30
0
11
60225
21
15225
31
0
0
LINE
8
COLUMN
10
60225
20
15225
30
0
11
59775
21
15225
31
0
0
LINE
8
COLUMN
10
59775
20
15225
30
0
11
59775
21
14775
31
0
0
SOLID
8
COLUMN
10
55775
20
14775
30
0
11
56225
21
14775
31
0
12
55775
22
15225
32
0
13
56225
23
15225
33
0
0
LINE
8
COLUMN
10
55775
20
14775
30
0
11
56225
21
14775
31
0
0
LINE
8
COLUMN
10
56225
20
14775
30
0
11
56225
21
15225
31
0
0
LINE
8
COLUMN
10
56225
20
15225
30
0
11
55775
21
15225
31
0
0
LINE
8
COLUMN
10
55775
20
15225
30
0
11
55775
21
14775
31
0
0
SOLID
8
COLUMN
10
51775
20
14775
30
0
11
52225
21
14775
31
0
12
51775
22
15225
32
0
13
52225
23
15225
33
0
0
LINE
8
COLUMN
10
51775
20
14775
30
0
11
52225
21
14775
31
0
0
LINE
8
COLUMN
10
52225
20
14775
30
0
11
52225
21
15225
31
0
0
LINE
8
COLUMN
10
52225
20
15225
30
0
11
51775
21
15225
31
0
0
LINE
8
COLUMN
10
51775
20
15225
30
0
11
51775
21
14775
31
0
0
SOLID
8
COLUMN
10
47775
20
14775
30
0
11
48225
21
14775
31
0
12
47775
22
15225
32
0
13
48225
23
15225
33
0
0
LINE
8
COLUMN
10
47775
20
14775
30
0
11
48225
21
14775
31
0
0
LINE
8
COLUMN
10
48225
20
14775
30
0
11
48225
21
15225
31
0
0
LINE
8
COLUMN
10
48225
20
15225
30
0
11
47775
21
15225
31
0
0
LINE
8
COLUMN
10
47775
20
15225
30
0
11
47775
21
14775
31
0
0
SOLID
8
COLUMN
10
43775
20
14775
30
0
11
44225
21
14775
31
0
12
43775
22
15225
32
0
13
44225
23
15225
33
0
0
LINE
8
COLUMN
10
43775
20
14775
30
0
11
44225
21
14775
31
0
0
LINE
8
COLUMN
10
44225
20
14775
30
0
11
44225
21
15225
31
0
0
LINE
8
COLUMN
10
44225
20
15225
30
0
11
43775
21
15225
31
0
0
LINE
8
COLUMN
10
43775
20
15225
30
0
11
43775
21
14775
31
0
0
LINE
8
HVAC
10
53900
20
14700
30
0
11
54750
21
14700
31
0
0
LINE
8
HVAC
10
54750
20
14700
30
0
11
54750
21
14375
31
0
0
LINE
8
HVAC
10
54750
20
14375
30
0
11
53900
21
14375
31
0
0
LINE
8
HVAC
10
53900
20
14375
30
0
11
53900
21
14700
31
0
0
LINE
8
HVAC
10
54625
20
14700
30
0
11
54625
21
14375
31
0
0
LINE
8
HVAC
10
54475
20
14700
30
0
11
54475
21
14375
31
0
0
LINE
8
HVAC
10
54325
20
14700
30
0
11
54325
21
14375
31
0
0
LINE
8
HVAC
10
54175
20
14700
30
0
11
54175
21
14375
31
0
0
LINE
8
HVAC
10
54025
20
14700
30
0
11
54025
21
14375
31
0
0
LINE
8
HVAC
10
50150
20
14700
30
0
11
51000
21
14700
31
0
0
LINE
8
HVAC
10
51000
20
14700
30
0
11
51000
21
14375
31
0
0
LINE
8
HVAC
10
51000
20
14375
30
0
11
50150
21
14375
31
0
0
LINE
8
HVAC
10
50150
20
14375
30
0
11
50150
21
14700
31
0
0
LINE
8
HVAC
10
50875
20
14700
30
0
11
50875
21
14375
31
0
0
LINE
8
HVAC
10
50725
20
14700
30
0
11
50725
21
14375
31
0
0
LINE
8
HVAC
10
50575
20
14700
30
0
11
50575
21
14375
31
0
0
LINE
8
HVAC
10
50425
20
14700
30
0
11
50425
21
14375
31
0
0
LINE
8
HVAC
10
50275
20
14700
30
0
11
50275
21
14375
31
0
0
LINE
8
HVAC
10
43925
20
9500
30
0
11
44250
21
9500
31
0
0
LINE
8
HVAC
10
44250
20
9500
30
0
11
44250
21
8650
31
0
0
LINE
8
HVAC
10
44250
20
8650
30
0
11
43925
21
8650
31
0
0
LINE
8
HVAC
10
43925
20
8650
30
0
11
43925
21
9500
31
0
0
LINE
8
HVAC
10
44375
20
9375
30
0
11
44050
21
9375
31
0
0
LINE
8
HVAC
10
44375
20
9225
30
0
11
44050
21
9225
31
0
0
LINE
8
HVAC
10
44375
20
9075
30
0
11
44050
21
9075
31
0
0
LINE
8
HVAC
10
44375
20
8925
30
0
11
44050
21
8925
31
0
0
LINE
8
HVAC
10
44375
20
8775
30
0
11
44050
21
8775
31
0
0
LINE
8
FURN
10
59925
20
5000
30
0
11
59925
21
100
31
0
0
LINE
8
FURN
10
59925
20
100
30
0
11
44075
21
100
31
0
0
LINE
8
FURN
10
44075
20
100
30
0
11
44075
21
5000
31
0
0
LINE
8
FURN
6
DASHED
10
44150
20
4750
30
0
11
50050
21
4750
31
0
0
LINE
8
FURN
6
DASHED
10
50050
20
4750
30
0
11
50050
21
200
31
0
0
LINE
8
FURN
6
DASHED
10
50050
20
200
30
0
11
44150
21
200
31
0
0
LINE
8
FURN
6
DASHED
10
44150
20
200
30
0
11
44150
21
4750
31
0
0
LINE
8
FURN
10
49450
20
4750
30
0
11
49450
21
200
31
0
0
LINE
8
FURN
10
48850
20
4750
30
0
11
48850
21
200
31
0
0
LINE
8
FURN
10
48250
20
4750
30
0
11
48250
21
200
31
0
0
LINE
8
FURN
10
47650
20
4750
30
0
11
47650
21
200
31
0
0
LINE
8
FURN
10
47050
20
4750
30
0
11
47050
21
200
31
0
0
LINE
8
FURN
10
46450
20
4750
30
0
11
46450
21
200
31
0
0
LINE
8
FURN
10
45850
20
4750
30
0
11
45850
21
200
31
0
0
LINE
8
FURN
10
45250
20
4750
30
0
11
45250
21
200
31
0
0
LINE
8
FURN
10
44650
20
4750
30
0
11
44650
21
200
31
0
0
CIRCLE
8
FURN
10
47600
20
2350
30
0
40
550
0
CIRCLE
8
FURN
10
47600
20
3200
30
0
40
175
0
CIRCLE
8
FURN
10
47600
20
1500
30
0
40
175
0
CIRCLE
8
FURN
10
48450
20
2350
30
0
40
175
0
CIRCLE
8
FURN
10
46750
20
2350
30
0
40
175
0
LINE
8
FURN
10
54500
20
2850
30
0
11
59000
21
2850
31
0
0
LINE
8
FURN
10
59000
20
2850
30
0
11
59000
21
1350
31
0
0
LINE
8
FURN
10
59000
20
1350
30
0
11
54500
21
1350
31
0
0
LINE
8
FURN
10
54500
20
1350
30
0
11
54500
21
2850
31
0
0
LINE
8
FURN
10
59000
20
2100
30
0
11
54500
21
2100
31
0
0
LINE
8
FURN
10
52550
20
3250
30
0
11
53600
21
3250
31
0
0
LINE
8
FURN
10
53600
20
3250
30
0
11
53600
21
1250
31
0
0
LINE
8
FURN
10
53600
20
1250
30
0
11
52550
21
1250
31
0
0
LINE
8
FURN
10
52550
20
1250
30
0
11
52550
21
3250
31
0
0
LINE
8
FURN
10
51850
20
750
30
0
11
59350
21
750
31
0
0
LINE
8
FURN
10
59350
20
750
30
0
11
59350
21
300
31
0
0
LINE
8
FURN
10
59350
20
300
30
0
11
51850
21
300
31
0
0
LINE
8
FURN
10
51850
20
300
30
0
11
51850
21
750
31
0
0
CIRCLE
8
FURN
10
58450
20
525
30
0
40
150
0
CIRCLE
8
FURN
10
57200
20
525
30
0
40
150
0
CIRCLE
8
FURN
10
55950
20
525
30
0
40
150
0
CIRCLE
8
FURN
10
54700
20
525
30
0
40
150
0
LINE
8
DIM
10
44000
20
15000
30
0
11
44000
21
15350
31
0
0
LINE
8
DIM
10
48000
20
15000
30
0
11
48000
21
15350
31
0
0
LINE
8
DIM
10
52000
20
15000
30
0
11
52000
21
15350
31
0
0
LINE
8
DIM
10
56000
20
15000
30
0
11
56000
21
15350
31
0
0
LINE
8
DIM
10
60000
20
15000
30
0
11
60000
21
15350
31
0
0
LINE
8
DIM
10
44000
20
15250
30
0
11
60000
21
15250
31
0
0
LINE
8
DIM
10
43900
20
15150
30
0
11
44100
21
15350
31
0
0
LINE
8
DIM
10
47900
20
15150
30
0
11
48100
21
15350
31
0
0
LINE
8
DIM
10
51900
20
15150
30
0
11
52100
21
15350
31
0
0
LINE
8
DIM
10
55900
20
15150
30
0
11
56100
21
15350
31
0
0
LINE
8
DIM
10
59900
20
15150
30
0
11
60100
21
15350
31
0
0
LINE
8
DIM
10
44000
20
0
30
0
11
44000
21
-1400
31
0
0
LINE
8
DIM
10
48000
20
0
30
0
11
48000
21
-1050
31
0
0
LINE
8
DIM
10
52000
20
0
30
0
11
52000
21
-1050
31
0
0
LINE
8
DIM
10
56000
20
0
30
0
11
56000
21
-1050
31
0
0
LINE
8
DIM
10
60000
20
0
30
0
11
60000
21
-1400
31
0
0
LINE
8
DIM
10
44000
20
-950
30
0
11
60000
21
-950
31
0
0
LINE
8
DIM
10
43900
20
-1050
30
0
11
44100
21
-850
31
0
0
LINE
8
DIM
10
47900
20
-1050
30
0
11
48100
21
-850
31
0
0
LINE
8
DIM
10
51900
20
-1050
30
0
11
52100
21
-850
31
0
0
LINE
8
DIM
10
55900
20
-1050
30
0
11
56100
21
-850
31
0
0
LINE
8
DIM
10
59900
20
-1050
30
0
11
60100
21
-850
31
0
0
LINE
8
DIM
10
44000
20
-1450
30
0
11
60000
21
-1450
31
0
0
LINE
8
DIM
10
43900
20
-1550
30
0
11
44100
21
-1350
31
0
0
LINE
8
DIM
10
59900
20
-1550
30
0
11
60100
21
-1350
31
0
0
LINE
8
DIM
10
44000
20
15000
30
0
11
42800
21
15000
31
0
0
LINE
8
DIM
10
44000
20
10000
30
0
11
43150
21
10000
31
0
0
LINE
8
DIM
10
44000
20
5000
30
0
11
43150
21
5000
31
0
0
LINE
8
DIM
10
44000
20
0
30
0
11
42800
21
0
31
0
0
LINE
8
DIM
10
43250
20
15000
30
0
11
43250
21
0
31
0
0
LINE
8
DIM
10
43150
20
14900
30
0
11
43350
21
15100
31
0
0
LINE
8
DIM
10
43150
20
9900
30
0
11
43350
21
10100
31
0
0
LINE
8
DIM
10
43150
20
4900
30
0
11
43350
21
5100
31
0
0
LINE
8
DIM
10
43150
20
-100
30
0
11
43350
21
100
31
0
0
LINE
8
DIM
10
42900
20
15000
30
0
11
42900
21
0
31
0
0
LINE
8
DIM
10
42800
20
14900
30
0
11
43000
21
15100
31
0
0
LINE
8
DIM
10
42800
20
-100
30
0
11
43000
21
100
31
0
0
SOLID
8
WALL
10
44000
20
14750
30
0
11
44300
21
14750
31
0
12
44000
22
15000
32
0
13
44300
23
15000
33
0
0
LINE
8
WALL
10
44000
20
14750
30
0
11
44300
21
14750
31
0
0
LINE
8
WALL
10
44300
20
14750
30
0
11
44300
21
15000
31
0
0
LINE
8
WALL
10
44300
20
15000
30
0
11
44000
21
15000
31
0
0
LINE
8
WALL
10
44000
20
15000
30
0
11
44000
21
14750
31
0
0
SOLID
8
WALL
10
45750
20
14750
30
0
11
49000
21
14750
31
0
12
45750
22
15000
32
0
13
49000
23
15000
33
0
0
LINE
8
WALL
10
45750
20
14750
30
0
11
49000
21
14750
31
0
0
LINE
8
WALL
10
49000
20
14750
30
0
11
49000
21
15000
31
0
0
LINE
8
WALL
10
49000
20
15000
30
0
11
45750
21
15000
31
0
0
LINE
8
WALL
10
45750
20
15000
30
0
11
45750
21
14750
31
0
0
SOLID
8
WALL
10
51250
20
14750
30
0
11
52750
21
14750
31
0
12
51250
22
15000
32
0
13
52750
23
15000
33
0
0
LINE
8
WALL
10
51250
20
14750
30
0
11
52750
21
14750
31
0
0
LINE
8
WALL
10
52750
20
14750
30
0
11
52750
21
15000
31
0
0
LINE
8
WALL
10
52750
20
15000
30
0
11
51250
21
15000
31
0
0
LINE
8
WALL
10
51250
20
15000
30
0
11
51250
21
14750
31
0
0
SOLID
8
WALL
10
55000
20
14750
30
0
11
60000
21
14750
31
0
12
55000
22
15000
32
0
13
60000
23
15000
33
0
0
LINE
8
WALL
10
55000
20
14750
30
0
11
60000
21
14750
31
0
0
LINE
8
WALL
10
60000
20
14750
30
0
11
60000
21
15000
31
0
0
LINE
8
WALL
10
60000
20
15000
30
0
11
55000
21
15000
31
0
0
LINE
8
WALL
10
55000
20
15000
30
0
11
55000
21
14750
31
0
0
SOLID
8
WALL
10
44000
20
5000
30
0
11
44400
21
5000
31
0
12
44000
22
5250
32
0
13
44400
23
5250
33
0
0
LINE
8
WALL
10
44000
20
5000
30
0
11
44400
21
5000
31
0
0
LINE
8
WALL
10
44400
20
5000
30
0
11
44400
21
5250
31
0
0
LINE
8
WALL
10
44400
20
5250
30
0
11
44000
21
5250
31
0
0
LINE
8
WALL
10
44000
20
5250
30
0
11
44000
21
5000
31
0
0
SOLID
8
WALL
10
59350
20
5000
30
0
11
60000
21
5000
31
0
12
59350
22
5250
32
0
13
60000
23
5250
33
0
0
LINE
8
WALL
10
59350
20
5000
30
0
11
60000
21
5000
31
0
0
LINE
8
WALL
10
60000
20
5000
30
0
11
60000
21
5250
31
0
0
LINE
8
WALL
10
60000
20
5250
30
0
11
59350
21
5250
31
0
0
LINE
8
WALL
10
59350
20
5250
30
0
11
59350
21
5000
31
0
0
SOLID
8
WALL
10
44000
20
14250
30
0
11
44250
21
14250
31
0
12
44000
22
15000
32
0
13
44250
23
15000
33
0
0
LINE
8
WALL
10
44000
20
14250
30
0
11
44250
21
14250
31
0
0
LINE
8
WALL
10
44250
20
14250
30
0
11
44250
21
15000
31
0
0
LINE
8
WALL
10
44250
20
15000
30
0
11
44000
21
15000
31
0
0
LINE
8
WALL
10
44000
20
15000
30
0
11
44000
21
14250
31
0
0
SOLID
8
WALL
10
44000
20
9500
30
0
11
44250
21
9500
31
0
12
44000
22
12500
32
0
13
44250
23
12500
33
0
0
LINE
8
WALL
10
44000
20
9500
30
0
11
44250
21
9500
31
0
0
LINE
8
WALL
10
44250
20
9500
30
0
11
44250
21
12500
31
0
0
LINE
8
WALL
10
44250
20
12500
30
0
11
44000
21
12500
31
0
0
LINE
8
WALL
10
44000
20
12500
30
0
11
44000
21
9500
31
0
0
SOLID
8
WALL
10
44000
20
5000
30
0
11
44250
21
5000
31
0
12
44000
22
6500
32
0
13
44250
23
6500
33
0
0
LINE
8
WALL
10
44000
20
5000
30
0
11
44250
21
5000
31
0
0
LINE
8
WALL
10
44250
20
5000
30
0
11
44250
21
6500
31
0
0
LINE
8
WALL
10
44250
20
6500
30
0
11
44000
21
6500
31
0
0
LINE
8
WALL
10
44000
20
6500
30
0
11
44000
21
5000
31
0
0
SOLID
8
WALL
10
59750
20
12750
30
0
11
60000
21
12750
31
0
12
59750
22
15000
32
0
13
60000
23
15000
33
0
0
LINE
8
WALL
10
59750
20
12750
30
0
11
60000
21
12750
31
0
0
LINE
8
WALL
10
60000
20
12750
30
0
11
60000
21
15000
31
0
0
LINE
8
WALL
10
60000
20
15000
30
0
11
59750
21
15000
31
0
0
LINE
8
WALL
10
59750
20
15000
30
0
11
59750
21
12750
31
0
0
SOLID
8
WALL
10
59750
20
5000
30
0
11
60000
21
5000
31
0
12
59750
22
10750
32
0
13
60000
23
10750
33
0
0
LINE
8
WALL
10
59750
20
5000
30
0
11
60000
21
5000
31
0
0
LINE
8
WALL
10
60000
20
5000
30
0
11
60000
21
10750
31
0
0
LINE
8
WALL
10
60000
20
10750
30
0
11
59750
21
10750
31
0
0
LINE
8
WALL
10
59750
20
10750
30
0
11
59750
21
5000
31
0
0
SOLID
8
WALL
10
55925
20
7500
30
0
11
56050
21
7500
31
0
12
55925
22
15000
32
0
13
56050
23
15000
33
0
0
LINE
8
WALL
10
55925
20
7500
30
0
11
56050
21
7500
31
0
0
LINE
8
WALL
10
56050
20
7500
30
0
11
56050
21
15000
31
0
0
LINE
8
WALL
10
56050
20
15000
30
0
11
55925
21
15000
31
0
0
LINE
8
WALL
10
55925
20
15000
30
0
11
55925
21
7500
31
0
0
SOLID
8
WALL
10
57350
20
9925
30
0
11
59750
21
9925
31
0
12
57350
22
10050
32
0
13
59750
23
10050
33
0
0
LINE
8
WALL
10
57350
20
9925
30
0
11
59750
21
9925
31
0
0
LINE
8
WALL
10
59750
20
9925
30
0
11
59750
21
10050
31
0
0
LINE
8
WALL
10
59750
20
10050
30
0
11
57350
21
10050
31
0
0
LINE
8
WALL
10
57350
20
10050
30
0
11
57350
21
9925
31
0
0
SOLID
8
WALL
10
57300
20
7550
30
0
11
57425
21
7550
31
0
12
57300
22
10050
32
0
13
57425
23
10050
33
0
0
LINE
8
WALL
10
57300
20
7550
30
0
11
57425
21
7550
31
0
0
LINE
8
WALL
10
57425
20
7550
30
0
11
57425
21
10050
31
0
0
LINE
8
WALL
10
57425
20
10050
30
0
11
57300
21
10050
31
0
0
LINE
8
WALL
10
57300
20
10050
30
0
11
57300
21
7550
31
0
0
SOLID
8
WALL
10
58750
20
7550
30
0
11
59750
21
7550
31
0
12
58750
22
7675
32
0
13
59750
23
7675
33
0
0
LINE
8
WALL
10
58750
20
7550
30
0
11
59750
21
7550
31
0
0
LINE
8
WALL
10
59750
20
7550
30
0
11
59750
21
7675
31
0
0
LINE
8
WALL
10
59750
20
7675
30
0
11
58750
21
7675
31
0
0
LINE
8
WALL
10
58750
20
7675
30
0
11
58750
21
7550
31
0
0
SOLID
8
WALL
10
44000
20
9925
30
0
11
45900
21
9925
31
0
12
44000
22
10050
32
0
13
45900
23
10050
33
0
0
LINE
8
WALL
10
44000
20
9925
30
0
11
45900
21
9925
31
0
0
LINE
8
WALL
10
45900
20
9925
30
0
11
45900
21
10050
31
0
0
LINE
8
WALL
10
45900
20
10050
30
0
11
44000
21
10050
31
0
0
LINE
8
WALL
10
44000
20
10050
30
0
11
44000
21
9925
31
0
0
SOLID
8
WALL
10
46750
20
9925
30
0
11
49650
21
9925
31
0
12
46750
22
10050
32
0
13
49650
23
10050
33
0
0
LINE
8
WALL
10
46750
20
9925
30
0
11
49650
21
9925
31
0
0
LINE
8
WALL
10
49650
20
9925
30
0
11
49650
21
10050
31
0
0
LINE
8
WALL
10
49650
20
10050
30
0
11
46750
21
10050
31
0
0
LINE
8
WALL
10
46750
20
10050
30
0
11
46750
21
9925
31
0
0
SOLID
8
WALL
10
50500
20
9925
30
0
11
53400
21
9925
31
0
12
50500
22
10050
32
0
13
53400
23
10050
33
0
0
LINE
8
WALL
10
50500
20
9925
30
0
11
53400
21
9925
31
0
0
LINE
8
WALL
10
53400
20
9925
30
0
11
53400
21
10050
31
0
0
LINE
8
WALL
10
53400
20
10050
30
0
11
50500
21
10050
31
0
0
LINE
8
WALL
10
50500
20
10050
30
0
11
50500
21
9925
31
0
0
SOLID
8
WALL
10
54250
20
9925
30
0
11
56050
21
9925
31
0
12
54250
22
10050
32
0
13
56050
23
10050
33
0
0
LINE
8
WALL
10
54250
20
9925
30
0
11
56050
21
9925
31
0
0
LINE
8
WALL
10
56050
20
9925
30
0
11
56050
21
10050
31
0
0
LINE
8
WALL
10
56050
20
10050
30
0
11
54250
21
10050
31
0
0
LINE
8
WALL
10
54250
20
10050
30
0
11
54250
21
9925
31
0
0
SOLID
8
WALL
10
51925
20
10000
30
0
11
52050
21
10000
31
0
12
51925
22
15000
32
0
13
52050
23
15000
33
0
0
LINE
8
WALL
10
51925
20
10000
30
0
11
52050
21
10000
31
0
0
LINE
8
WALL
10
52050
20
10000
30
0
11
52050
21
15000
31
0
0
LINE
8
WALL
10
52050
20
15000
30
0
11
51925
21
15000
31
0
0
LINE
8
WALL
10
51925
20
15000
30
0
11
51925
21
10000
31
0
0
SOLID
8
WALL
10
47925
20
10000
30
0
11
48050
21
10000
31
0
12
47925
22
15000
32
0
13
48050
23
15000
33
0
0
LINE
8
WALL
10
47925
20
10000
30
0
11
48050
21
10000
31
0
0
LINE
8
WALL
10
48050
20
10000
30
0
11
48050
21
15000
31
0
0
LINE
8
WALL
10
48050
20
15000
30
0
11
47925
21
15000
31
0
0
LINE
8
WALL
10
47925
20
15000
30
0
11
47925
21
10000
31
0
0
SOLID
8
WALL
10
54125
20
9350
30
0
11
54250
21
9350
31
0
12
54125
22
9925
32
0
13
54250
23
9925
33
0
0
LINE
8
WALL
10
54125
20
9350
30
0
11
54250
21
9350
31
0
0
LINE
8
WALL
10
54250
20
9350
30
0
11
54250
21
9925
31
0
0
LINE
8
WALL
10
54250
20
9925
30
0
11
54125
21
9925
31
0
0
LINE
8
WALL
10
54125
20
9925
30
0
11
54125
21
9350
31
0
0
SOLID
8
WALL
10
54125
20
8175
30
0
11
54250
21
8175
31
0
12
54125
22
8600
32
0
13
54250
23
8600
33
0
0
LINE
8
WALL
10
54125
20
8175
30
0
11
54250
21
8175
31
0
0
LINE
8
WALL
10
54250
20
8175
30
0
11
54250
21
8600
31
0
0
LINE
8
WALL
10
54250
20
8600
30
0
11
54125
21
8600
31
0
0
LINE
8
WALL
10
54125
20
8600
30
0
11
54125
21
8175
31
0
0
SOLID
8
WALL
10
54125
20
8125
30
0
11
55925
21
8125
31
0
12
54125
22
8250
32
0
13
55925
23
8250
33
0
0
LINE
8
WALL
10
54125
20
8125
30
0
11
55925
21
8125
31
0
0
LINE
8
WALL
10
55925
20
8125
30
0
11
55925
21
8250
31
0
0
LINE
8
WALL
10
55925
20
8250
30
0
11
54125
21
8250
31
0
0
LINE
8
WALL
10
54125
20
8250
30
0
11
54125
21
8125
31
0
0
SOLID
8
WALL
10
46300
20
12000
30
0
11
46425
21
12000
31
0
12
46300
22
15000
32
0
13
46425
23
15000
33
0
0
LINE
8
WALL
10
46300
20
12000
30
0
11
46425
21
12000
31
0
0
LINE
8
WALL
10
46425
20
12000
30
0
11
46425
21
15000
31
0
0
LINE
8
WALL
10
46425
20
15000
30
0
11
46300
21
15000
31
0
0
LINE
8
WALL
10
46300
20
15000
30
0
11
46300
21
12000
31
0
0
SOLID
8
WALL
10
44000
20
12000
30
0
11
46425
21
12000
31
0
12
44000
22
12125
32
0
13
46425
23
12125
33
0
0
LINE
8
WALL
10
44000
20
12000
30
0
11
46425
21
12000
31
0
0
LINE
8
WALL
10
46425
20
12000
30
0
11
46425
21
12125
31
0
0
LINE
8
WALL
10
46425
20
12125
30
0
11
44000
21
12125
31
0
0
LINE
8
WALL
10
44000
20
12125
30
0
11
44000
21
12000
31
0
0
SOLID
8
WALL
10
46375
20
13325
30
0
11
47925
21
13325
31
0
12
46375
22
13450
32
0
13
47925
23
13450
33
0
0
LINE
8
WALL
10
46375
20
13325
30
0
11
47925
21
13325
31
0
0
LINE
8
WALL
10
47925
20
13325
30
0
11
47925
21
13450
31
0
0
LINE
8
WALL
10
47925
20
13450
30
0
11
46375
21
13450
31
0
0
LINE
8
WALL
10
46375
20
13450
30
0
11
46375
21
13325
31
0
0
LINE
8
WINDOW
10
65900
20
14700
30
0
11
82100
21
14700
31
0
0
LINE
8
WINDOW
10
82100
20
14700
30
0
11
82100
21
14400
31
0
0
LINE
8
WINDOW
10
82100
20
14400
30
0
11
65900
21
14400
31
0
0
LINE
8
WINDOW
10
65900
20
14400
30
0
11
65900
21
14700
31
0
0
LINE
8
WINDOW
10
66000
20
14400
30
0
11
82000
21
14400
31
0
0
LINE
8
WINDOW
10
82000
20
14400
30
0
11
82000
21
11100
31
0
0
LINE
8
WINDOW
10
82000
20
11100
30
0
11
66000
21
11100
31
0
0
LINE
8
WINDOW
10
66000
20
11100
30
0
11
66000
21
14400
31
0
0
LINE
8
WINDOW
10
66500
20
13900
30
0
11
77500
21
13900
31
0
0
LINE
8
WINDOW
10
77500
20
13900
30
0
11
77500
21
11300
31
0
0
LINE
8
WINDOW
10
77500
20
11300
30
0
11
66500
21
11300
31
0
0
LINE
8
WINDOW
10
66500
20
11300
30
0
11
66500
21
13900
31
0
0
LINE
8
WINDOW
10
76125
20
13900
30
0
11
76125
21
11300
31
0
0
LINE
8
WINDOW
10
74750
20
13900
30
0
11
74750
21
11300
31
0
0
LINE
8
WINDOW
10
73375
20
13900
30
0
11
73375
21
11300
31
0
0
LINE
8
WINDOW
10
72000
20
13900
30
0
11
72000
21
11300
31
0
0
LINE
8
WINDOW
10
70625
20
13900
30
0
11
70625
21
11300
31
0
0
LINE
8
WINDOW
10
69250
20
13900
30
0
11
69250
21
11300
31
0
0
LINE
8
WINDOW
10
67875
20
13900
30
0
11
67875
21
11300
31
0
0
LINE
8
WINDOW
10
78750
20
13600
30
0
11
81250
21
13600
31
0
0
LINE
8
WINDOW
10
81250
20
13600
30
0
11
81250
21
11700
31
0
0
LINE
8
WINDOW
10
81250
20
11700
30
0
11
78750
21
11700
31
0
0
LINE
8
WINDOW
10
78750
20
11700
30
0
11
78750
21
13600
31
0
0
LINE
8
WINDOW
10
80000
20
13600
30
0
11
80000
21
11700
31
0
0
LINE
8
WINDOW
10
71325
20
13800
30
0
11
71450
21
13800
31
0
0
LINE
8
WINDOW
10
71450
20
13800
30
0
11
71450
21
11100
31
0
0
LINE
8
WINDOW
10
71450
20
11100
30
0
11
71325
21
11100
31
0
0
LINE
8
WINDOW
10
71325
20
11100
30
0
11
71325
21
13800
31
0
0
LINE
8
WINDOW
10
66075
20
13800
30
0
11
66200
21
13800
31
0
0
LINE
8
WINDOW
10
66200
20
13800
30
0
11
66200
21
11100
31
0
0
LINE
8
WINDOW
10
66200
20
11100
30
0
11
66075
21
11100
31
0
0
LINE
8
WINDOW
10
66075
20
11100
30
0
11
66075
21
13800
31
0
0
LINE
8
WINDOW
10
65900
20
14000
30
0
11
71600
21
14000
31
0
0
LINE
8
WINDOW
10
71600
20
14000
30
0
11
71600
21
13800
31
0
0
LINE
8
WINDOW
10
71600
20
13800
30
0
11
65900
21
13800
31
0
0
LINE
8
WINDOW
10
65900
20
13800
30
0
11
65900
21
14000
31
0
0
LINE
8
DECOR
10
71250
20
14200
30
0
11
71250
21
14000
31
0
0
LINE
8
DECOR
10
70850
20
14200
30
0
11
70850
21
14000
31
0
0
LINE
8
DECOR
10
70450
20
14200
30
0
11
70450
21
14000
31
0
0
LINE
8
DECOR
10
70050
20
14200
30
0
11
70050
21
14000
31
0
0
LINE
8
DECOR
10
69650
20
14200
30
0
11
69650
21
14000
31
0
0
LINE
8
DECOR
10
69250
20
14200
30
0
11
69250
21
14000
31
0
0
LINE
8
DECOR
10
68850
20
14200
30
0
11
68850
21
14000
31
0
0
LINE
8
DECOR
10
68450
20
14200
30
0
11
68450
21
14000
31
0
0
LINE
8
DECOR
10
68050
20
14200
30
0
11
68050
21
14000
31
0
0
LINE
8
DECOR
10
67650
20
14200
30
0
11
67650
21
14000
31
0
0
LINE
8
DECOR
10
67250
20
14200
30
0
11
67250
21
14000
31
0
0
LINE
8
DECOR
10
66850
20
14200
30
0
11
66850
21
14000
31
0
0
LINE
8
DECOR
10
66450
20
14200
30
0
11
66450
21
14000
31
0
0
LINE
8
DECOR
10
66050
20
14200
30
0
11
66050
21
14000
31
0
0
LINE
8
FURN
10
66000
20
12200
30
0
11
82000
21
12200
31
0
0
LINE
8
FURN
10
82000
20
12200
30
0
11
82000
21
11100
31
0
0
LINE
8
FURN
10
82000
20
11100
30
0
11
66000
21
11100
31
0
0
LINE
8
FURN
10
66000
20
11100
30
0
11
66000
21
12200
31
0
0
LINE
8
FURN
10
82000
20
12200
30
0
11
66000
21
12200
31
0
0
LINE
8
FURN
10
80400
20
12200
30
0
11
80400
21
11100
31
0
0
LINE
8
FURN
10
78800
20
12200
30
0
11
78800
21
11100
31
0
0
LINE
8
FURN
10
77200
20
12200
30
0
11
77200
21
11100
31
0
0
LINE
8
FURN
10
75600
20
12200
30
0
11
75600
21
11100
31
0
0
LINE
8
FURN
10
74000
20
12200
30
0
11
74000
21
11100
31
0
0
LINE
8
FURN
10
72400
20
12200
30
0
11
72400
21
11100
31
0
0
LINE
8
FURN
10
70800
20
12200
30
0
11
70800
21
11100
31
0
0
LINE
8
FURN
10
69200
20
12200
30
0
11
69200
21
11100
31
0
0
LINE
8
FURN
10
67600
20
12200
30
0
11
67600
21
11100
31
0
0
LINE
8
WINDOW
10
66000
20
10875
30
0
11
82000
21
10875
31
0
0
LINE
8
WINDOW
10
82000
20
10875
30
0
11
82000
21
0
31
0
0
LINE
8
WINDOW
10
82000
20
0
30
0
11
66000
21
0
31
0
0
LINE
8
WINDOW
10
66000
20
0
30
0
11
66000
21
10875
31
0
0
LINE
8
FURN
10
77400
20
7800
30
0
11
66100
21
7800
31
0
0
LINE
8
WINDOW
10
79550
20
2800
30
0
11
81350
21
2800
31
0
0
LINE
8
WINDOW
10
81350
20
2800
30
0
11
81350
21
0
31
0
0
LINE
8
WINDOW
10
81350
20
0
30
0
11
79550
21
0
31
0
0
LINE
8
WINDOW
10
79550
20
0
30
0
11
79550
21
2800
31
0
0
LINE
8
WINDOW
10
80450
20
2800
30
0
11
80450
21
0
31
0
0
LINE
8
DECOR
10
77600
20
3350
30
0
11
78000
21
3350
31
0
0
LINE
8
DECOR
10
78000
20
3350
30
0
11
78000
21
1250
31
0
0
LINE
8
DECOR
10
78000
20
1250
30
0
11
77600
21
1250
31
0
0
LINE
8
DECOR
10
77600
20
1250
30
0
11
77600
21
3350
31
0
0
LINE
8
WINDOW
10
72600
20
3500
30
0
11
77200
21
3500
31
0
0
LINE
8
WINDOW
10
77200
20
3500
30
0
11
77200
21
0
31
0
0
LINE
8
WINDOW
10
77200
20
0
30
0
11
72600
21
0
31
0
0
LINE
8
WINDOW
10
72600
20
0
30
0
11
72600
21
3500
31
0
0
LINE
8
WINDOW
10
75500
20
3500
30
0
11
75500
21
0
31
0
0
LINE
8
WINDOW
10
73800
20
3500
30
0
11
73800
21
0
31
0
0
LINE
8
WINDOW
10
74350
20
2900
30
0
11
75350
21
2900
31
0
0
LINE
8
WINDOW
10
75350
20
2900
30
0
11
75350
21
0
31
0
0
LINE
8
WINDOW
10
75350
20
0
30
0
11
74350
21
0
31
0
0
LINE
8
WINDOW
10
74350
20
0
30
0
11
74350
21
2900
31
0
0
LINE
8
WINDOW
10
66200
20
3500
30
0
11
72200
21
3500
31
0
0
LINE
8
WINDOW
10
72200
20
3500
30
0
11
72200
21
0
31
0
0
LINE
8
WINDOW
10
72200
20
0
30
0
11
66200
21
0
31
0
0
LINE
8
WINDOW
10
66200
20
0
30
0
11
66200
21
3500
31
0
0
LINE
8
WINDOW
10
70200
20
3500
30
0
11
70200
21
0
31
0
0
LINE
8
WINDOW
10
68200
20
3500
30
0
11
68200
21
0
31
0
0
LINE
8
WINDOW
10
70600
20
2900
30
0
11
71600
21
2900
31
0
0
LINE
8
WINDOW
10
71600
20
2900
30
0
11
71600
21
0
31
0
0
LINE
8
WINDOW
10
71600
20
0
30
0
11
70600
21
0
31
0
0
LINE
8
WINDOW
10
70600
20
0
30
0
11
70600
21
2900
31
0
0
LINE
8
WINDOW
10
67450
20
2900
30
0
11
68450
21
2900
31
0
0
LINE
8
WINDOW
10
68450
20
2900
30
0
11
68450
21
0
31
0
0
LINE
8
WINDOW
10
68450
20
0
30
0
11
67450
21
0
31
0
0
LINE
8
WINDOW
10
67450
20
0
30
0
11
67450
21
2900
31
0
0
LINE
8
WINDOW
10
77600
20
10875
30
0
11
81700
21
10875
31
0
0
LINE
8
WINDOW
10
81700
20
10875
30
0
11
81700
21
4500
31
0
0
LINE
8
WINDOW
10
81700
20
4500
30
0
11
77600
21
4500
31
0
0
LINE
8
WINDOW
10
77600
20
4500
30
0
11
77600
21
10875
31
0
0
LINE
8
DECOR
10
81400
20
10775
30
0
11
81400
21
4600
31
0
0
LINE
8
DECOR
10
81100
20
10775
30
0
11
81100
21
4600
31
0
0
LINE
8
DECOR
10
80800
20
10775
30
0
11
80800
21
4600
31
0
0
LINE
8
DECOR
10
80500
20
10775
30
0
11
80500
21
4600
31
0
0
LINE
8
DECOR
10
80200
20
10775
30
0
11
80200
21
4600
31
0
0
LINE
8
DECOR
10
79900
20
10775
30
0
11
79900
21
4600
31
0
0
LINE
8
DECOR
10
79600
20
10775
30
0
11
79600
21
4600
31
0
0
LINE
8
DECOR
10
79300
20
10775
30
0
11
79300
21
4600
31
0
0
LINE
8
DECOR
10
79000
20
10775
30
0
11
79000
21
4600
31
0
0
LINE
8
DECOR
10
78700
20
10775
30
0
11
78700
21
4600
31
0
0
LINE
8
DECOR
10
78400
20
10775
30
0
11
78400
21
4600
31
0
0
LINE
8
DECOR
10
78100
20
10775
30
0
11
78100
21
4600
31
0
0
LINE
8
DECOR
10
77800
20
10775
30
0
11
77800
21
4600
31
0
0
LINE
8
WINDOW
10
74200
20
7500
30
0
11
76600
21
7500
31
0
0
LINE
8
WINDOW
10
76600
20
7500
30
0
11
76600
21
5500
31
0
0
LINE
8
WINDOW
10
76600
20
5500
30
0
11
74200
21
5500
31
0
0
LINE
8
WINDOW
10
74200
20
5500
30
0
11
74200
21
7500
31
0
0
LINE
8
WINDOW
10
75400
20
7500
30
0
11
75400
21
5500
31
0
0
LINE
8
WINDOW
10
70350
20
7500
30
0
11
72750
21
7500
31
0
0
LINE
8
WINDOW
10
72750
20
7500
30
0
11
72750
21
5500
31
0
0
LINE
8
WINDOW
10
72750
20
5500
30
0
11
70350
21
5500
31
0
0
LINE
8
WINDOW
10
70350
20
5500
30
0
11
70350
21
7500
31
0
0
LINE
8
WINDOW
10
71550
20
7500
30
0
11
71550
21
5500
31
0
0
LINE
8
WINDOW
10
66650
20
7500
30
0
11
69050
21
7500
31
0
0
LINE
8
WINDOW
10
69050
20
7500
30
0
11
69050
21
5500
31
0
0
LINE
8
WINDOW
10
69050
20
5500
30
0
11
66650
21
5500
31
0
0
LINE
8
WINDOW
10
66650
20
5500
30
0
11
66650
21
7500
31
0
0
LINE
8
WINDOW
10
67850
20
7500
30
0
11
67850
21
5500
31
0
0
LINE
8
WINDOW
10
74200
20
10600
30
0
11
76600
21
10600
31
0
0
LINE
8
WINDOW
10
76600
20
10600
30
0
11
76600
21
8800
31
0
0
LINE
8
WINDOW
10
76600
20
8800
30
0
11
74200
21
8800
31
0
0
LINE
8
WINDOW
10
74200
20
8800
30
0
11
74200
21
10600
31
0
0
LINE
8
WINDOW
10
75400
20
10600
30
0
11
75400
21
8800
31
0
0
LINE
8
WINDOW
10
70350
20
10600
30
0
11
72750
21
10600
31
0
0
LINE
8
WINDOW
10
72750
20
10600
30
0
11
72750
21
8800
31
0
0
LINE
8
WINDOW
10
72750
20
8800
30
0
11
70350
21
8800
31
0
0
LINE
8
WINDOW
10
70350
20
8800
30
0
11
70350
21
10600
31
0
0
LINE
8
WINDOW
10
71550
20
10600
30
0
11
71550
21
8800
31
0
0
LINE
8
WINDOW
10
66650
20
10600
30
0
11
69050
21
10600
31
0
0
LINE
8
WINDOW
10
69050
20
10600
30
0
11
69050
21
8800
31
0
0
LINE
8
WINDOW
10
69050
20
8800
30
0
11
66650
21
8800
31
0
0
LINE
8
WINDOW
10
66650
20
8800
30
0
11
66650
21
10600
31
0
0
LINE
8
WINDOW
10
67850
20
10600
30
0
11
67850
21
8800
31
0
0
LINE
8
HVAC
10
73175
20
7450
30
0
11
73775
21
7450
31
0
0
LINE
8
HVAC
10
73775
20
7450
30
0
11
73775
21
5550
31
0
0
LINE
8
HVAC
10
73775
20
5550
30
0
11
73175
21
5550
31
0
0
LINE
8
HVAC
10
73175
20
5550
30
0
11
73175
21
7450
31
0
0
LINE
8
HVAC
10
69375
20
7450
30
0
11
69975
21
7450
31
0
0
LINE
8
HVAC
10
69975
20
7450
30
0
11
69975
21
5550
31
0
0
LINE
8
HVAC
10
69975
20
5550
30
0
11
69375
21
5550
31
0
0
LINE
8
HVAC
10
69375
20
5550
30
0
11
69375
21
7450
31
0
0
LINE
8
HVAC
10
73175
20
10550
30
0
11
73775
21
10550
31
0
0
LINE
8
HVAC
10
73775
20
10550
30
0
11
73775
21
8800
31
0
0
LINE
8
HVAC
10
73775
20
8800
30
0
11
73175
21
8800
31
0
0
LINE
8
HVAC
10
73175
20
8800
30
0
11
73175
21
10550
31
0
0
LINE
8
HVAC
10
69375
20
10550
30
0
11
69975
21
10550
31
0
0
LINE
8
HVAC
10
69975
20
10550
30
0
11
69975
21
8800
31
0
0
LINE
8
HVAC
10
69975
20
8800
30
0
11
69375
21
8800
31
0
0
LINE
8
HVAC
10
69375
20
8800
30
0
11
69375
21
10550
31
0
0
LINE
8
HVAC
10
73775
20
7200
30
0
11
73175
21
7200
31
0
0
LINE
8
HVAC
10
73775
20
6900
30
0
11
73175
21
6900
31
0
0
LINE
8
HVAC
10
73775
20
6600
30
0
11
73175
21
6600
31
0
0
LINE
8
HVAC
10
73775
20
6300
30
0
11
73175
21
6300
31
0
0
LINE
8
HVAC
10
73775
20
6000
30
0
11
73175
21
6000
31
0
0
LINE
8
HVAC
10
73775
20
5700
30
0
11
73175
21
5700
31
0
0
LINE
8
HVAC
10
69975
20
7200
30
0
11
69375
21
7200
31
0
0
LINE
8
HVAC
10
69975
20
6900
30
0
11
69375
21
6900
31
0
0
LINE
8
HVAC
10
69975
20
6600
30
0
11
69375
21
6600
31
0
0
LINE
8
HVAC
10
69975
20
6300
30
0
11
69375
21
6300
31
0
0
LINE
8
HVAC
10
69975
20
6000
30
0
11
69375
21
6000
31
0
0
LINE
8
HVAC
10
69975
20
5700
30
0
11
69375
21
5700
31
0
0
LINE
8
HVAC
10
73775
20
10300
30
0
11
73175
21
10300
31
0
0
LINE
8
HVAC
10
73775
20
10000
30
0
11
73175
21
10000
31
0
0
LINE
8
HVAC
10
73775
20
9700
30
0
11
73175
21
9700
31
0
0
LINE
8
HVAC
10
73775
20
9400
30
0
11
73175
21
9400
31
0
0
LINE
8
HVAC
10
73775
20
9100
30
0
11
73175
21
9100
31
0
0
LINE
8
HVAC
10
69975
20
10300
30
0
11
69375
21
10300
31
0
0
LINE
8
HVAC
10
69975
20
10000
30
0
11
69375
21
10000
31
0
0
LINE
8
HVAC
10
69975
20
9700
30
0
11
69375
21
9700
31
0
0
LINE
8
HVAC
10
69975
20
9400
30
0
11
69375
21
9400
31
0
0
LINE
8
HVAC
10
69975
20
9100
30
0
11
69375
21
9100
31
0
0
LINE
8
FURN
10
65000
20
0
30
0
11
83500
21
0
31
0
0
LINE
8
FURN
10
65550
20
-25
30
0
11
65250
21
-300
31
0
0
LINE
8
FURN
10
66450
20
-25
30
0
11
66150
21
-300
31
0
0
LINE
8
FURN
10
67350
20
-25
30
0
11
67050
21
-300
31
0
0
LINE
8
FURN
10
68250
20
-25
30
0
11
67950
21
-300
31
0
0
LINE
8
FURN
10
69150
20
-25
30
0
11
68850
21
-300
31
0
0
LINE
8
FURN
10
70050
20
-25
30
0
11
69750
21
-300
31
0
0
LINE
8
FURN
10
70950
20
-25
30
0
11
70650
21
-300
31
0
0
LINE
8
FURN
10
71850
20
-25
30
0
11
71550
21
-300
31
0
0
LINE
8
FURN
10
72750
20
-25
30
0
11
72450
21
-300
31
0
0
LINE
8
FURN
10
73650
20
-25
30
0
11
73350
21
-300
31
0
0
LINE
8
FURN
10
74550
20
-25
30
0
11
74250
21
-300
31
0
0
LINE
8
FURN
10
75450
20
-25
30
0
11
75150
21
-300
31
0
0
LINE
8
FURN
10
76350
20
-25
30
0
11
76050
21
-300
31
0
0
LINE
8
FURN
10
77250
20
-25
30
0
11
76950
21
-300
31
0
0
LINE
8
FURN
10
78150
20
-25
30
0
11
77850
21
-300
31
0
0
LINE
8
FURN
10
79050
20
-25
30
0
11
78750
21
-300
31
0
0
LINE
8
FURN
10
79950
20
-25
30
0
11
79650
21
-300
31
0
0
LINE
8
FURN
10
80850
20
-25
30
0
11
80550
21
-300
31
0
0
LINE
8
FURN
10
81750
20
-25
30
0
11
81450
21
-300
31
0
0
LINE
8
FURN
10
82650
20
-25
30
0
11
82350
21
-300
31
0
0
CIRCLE
8
FURN
10
65350
20
1350
30
0
40
550
0
LINE
8
FURN
10
65350
20
800
30
0
11
65350
21
0
31
0
0
LINE
8
DIM
10
82050
20
0
30
0
11
82450
21
0
31
0
0
LINE
8
FURN
10
82450
20
0
30
0
11
82650
21
150
31
0
0
LINE
8
FURN
10
82650
20
150
30
0
11
82850
21
0
31
0
0
LINE
8
DIM
10
82050
20
4500
30
0
11
82450
21
4500
31
0
0
LINE
8
FURN
10
82450
20
4500
30
0
11
82650
21
4650
31
0
0
LINE
8
FURN
10
82650
20
4650
30
0
11
82850
21
4500
31
0
0
LINE
8
DIM
10
82050
20
7800
30
0
11
82450
21
7800
31
0
0
LINE
8
FURN
10
82450
20
7800
30
0
11
82650
21
7950
31
0
0
LINE
8
FURN
10
82650
20
7950
30
0
11
82850
21
7800
31
0
0
LINE
8
DIM
10
82050
20
11100
30
0
11
82450
21
11100
31
0
0
LINE
8
FURN
10
82450
20
11100
30
0
11
82650
21
11250
31
0
0
LINE
8
FURN
10
82650
20
11250
30
0
11
82850
21
11100
31
0
0
LINE
8
DIM
10
82050
20
14400
30
0
11
82450
21
14400
31
0
0
LINE
8
FURN
10
82450
20
14400
30
0
11
82650
21
14550
31
0
0
LINE
8
FURN
10
82650
20
14550
30
0
11
82850
21
14400
31
0
0
CIRCLE
8
WINDOW
10
69750
20
9700
30
0
40
225
0
CIRCLE
8
WINDOW
10
79650
20
8500
30
0
40
225
0
CIRCLE
8
WINDOW
10
75400
20
6500
30
0
40
225
0
CIRCLE
8
WINDOW
10
73750
20
11650
30
0
40
225
0
CIRCLE
8
WINDOW
10
76750
20
4050
30
0
40
225
0
CIRCLE
8
WINDOW
10
69750
20
1750
30
0
40
225
0
CIRCLE
8
WINDOW
10
68250
20
13500
30
0
40
225
0
LINE
8
DIM
10
66000
20
-700
30
0
11
82000
21
-700
31
0
0
LINE
8
DIM
10
65900
20
-800
30
0
11
66100
21
-600
31
0
0
LINE
8
DIM
10
81900
20
-800
30
0
11
82100
21
-600
31
0
0
SOLID
8
WALL
10
66000
20
10875
30
0
11
82000
21
10875
31
0
12
66000
22
11100
32
0
13
82000
23
11100
33
0
0
LINE
8
WALL
10
66000
20
10875
30
0
11
82000
21
10875
31
0
0
LINE
8
WALL
10
82000
20
10875
30
0
11
82000
21
11100
31
0
0
LINE
8
WALL
10
82000
20
11100
30
0
11
66000
21
11100
31
0
0
LINE
8
WALL
10
66000
20
11100
30
0
11
66000
21
10875
31
0
0
SOLID
8
WALL
10
66000
20
3600
30
0
11
77400
21
3600
31
0
12
66000
22
4500
32
0
13
77400
23
4500
33
0
0
LINE
8
WALL
10
66000
20
3600
30
0
11
77400
21
3600
31
0
0
LINE
8
WALL
10
77400
20
3600
30
0
11
77400
21
4500
31
0
0
LINE
8
WALL
10
77400
20
4500
30
0
11
66000
21
4500
31
0
0
LINE
8
WALL
10
66000
20
4500
30
0
11
66000
21
3600
31
0
0
SOLID
8
WALL
10
79150
20
2900
30
0
11
81550
21
2900
31
0
12
79150
22
3100
32
0
13
81550
23
3100
33
0
0
LINE
8
WALL
10
79150
20
2900
30
0
11
81550
21
2900
31
0
0
LINE
8
WALL
10
81550
20
2900
30
0
11
81550
21
3100
31
0
0
LINE
8
WALL
10
81550
20
3100
30
0
11
79150
21
3100
31
0
0
LINE
8
WALL
10
79150
20
3100
30
0
11
79150
21
2900
31
0
0
TEXT
8
TXT
7
CN
10
14000
20
4200
30
0
40
312.5
1
\U+6C11\U+5BBF\U+95E8\U+5385
72
1
11
14000
21
4200
31
0
0
TEXT
8
TXT
7
CN
10
14000
20
3800
30
0
40
262.5
1
\U+7EA630 \U+33A1 \U+00B7 \U+72EC\U+7ACB\U+5165\U+53E3 \U+00B7 \U+524D\U+53F0
72
1
11
14000
21
3800
31
0
0
TEXT
8
TXT
7
CN
10
14575
20
8950
30
0
40
312.5
1
\U+7535\U+68AF
72
1
11
14575
21
8950
31
0
0
TEXT
8
TXT
7
CN
10
14575
20
8550
30
0
40
262.5
1
2.4\U+00D72.4
72
1
11
14575
21
8550
31
0
0
TEXT
8
TXT
7
CN
10
14000
20
12000
30
0
40
312.5
1
\U+697C\U+68AF
72
1
11
14000
21
12000
31
0
0
TEXT
8
TXT
7
CN
10
13100
20
10400
30
0
40
262.5
1
\U+4E0A
0
TEXT
8
TXT
7
CN
10
12750
20
7125
30
0
40
262.5
1
\U+7535\U+68AF\U+5385
72
1
11
12750
21
7125
31
0
0
TEXT
8
TXT
7
CN
10
10000
20
7500
30
0
40
312.5
1
\U+81EA\U+8425\U+94FA
72
1
11
10000
21
7500
31
0
0
TEXT
8
TXT
7
CN
10
10000
20
7100
30
0
40
262.5
1
\U+524D\U+53F0\U+8336\U+996E 60 \U+33A1 \U+00B7 \U+5185\U+8FDE\U+95E8\U+5385
72
1
11
10000
21
7100
31
0
0
TEXT
8
TXT
7
CN
10
9050
20
12500
30
0
40
262.5
1
\U+5458\U+5DE5\U+536B
72
1
11
9050
21
12500
31
0
0
TEXT
8
TXT
7
CN
10
8825
20
10750
30
0
40
262.5
1
\U+6C34\U+5427
72
1
11
8825
21
10750
31
0
0
TEXT
8
TXT
7
CN
10
4000
20
7500
30
0
40
312.5
1
\U+51FA\U+79DF\U+5546\U+94FA
72
1
11
4000
21
7500
31
0
0
TEXT
8
TXT
7
CN
10
4000
20
7100
30
0
40
262.5
1
120 \U+33A1 \U+00B7 \U+53EF\U+5206\U+4E24\U+95F4\U+5404 60 \U+33A1
72
1
11
4000
21
7100
31
0
0
TEXT
8
TXT
7
CN
10
4200
20
4000
30
0
40
262.5
1
\U+2196 \U+9884\U+7559\U+5206\U+9694\U+7EBF
0
TEXT
8
TXT
7
CN
10
6000
20
13900
30
0
40
262.5
1
\U+25A8 \U+5546\U+94FA\U+7A7A\U+8C03\U+673A\U+4F4D\U+00B7\U+80CC\U+7ACB\U+9762\U+767E\U+53F6\U+6401\U+677F
72
1
11
6000
21
13900
31
0
0
TEXT
8
TXT
7
CN
10
15250
20
15150
30
0
40
262.5
1
\U+540E\U+52E4 / \U+758F\U+6563\U+95E8
0
TEXT
8
TXT
7
CN
10
14000
20
475
30
0
40
262.5
1
\U+6C11\U+5BBF\U+5165\U+53E3
72
1
11
14000
21
475
31
0
0
TEXT
8
TXT
7
CN
10
10000
20
475
30
0
40
262.5
1
\U+81EA\U+8425\U+94FA\U+5165\U+53E3
72
1
11
10000
21
475
31
0
0
TEXT
8
TXT
7
CN
10
4125
20
475
30
0
40
262.5
1
\U+51FA\U+79DF\U+94FA\U+5165\U+53E3 \U+00D72
72
1
11
4125
21
475
31
0
0
TEXT
8
DIM
7
CN
10
2000
20
-825
30
0
40
262.5
1
4000
72
1
11
2000
21
-825
31
0
0
TEXT
8
DIM
7
CN
10
6000
20
-825
30
0
40
262.5
1
4000
72
1
11
6000
21
-825
31
0
0
TEXT
8
DIM
7
CN
10
10000
20
-825
30
0
40
262.5
1
4000
72
1
11
10000
21
-825
31
0
0
TEXT
8
DIM
7
CN
10
14000
20
-825
30
0
40
262.5
1
4000
72
1
11
14000
21
-825
31
0
0
TEXT
8
DIM
7
CN
10
8000
20
-1800
30
0
40
262.5
1
16000\U+FF08\U+4E34\U+8857\U+9762 \U+00B7 \U+8857\U+9053\U+FF09
72
1
11
8000
21
-1800
31
0
0
TEXT
8
DIM
7
CN
10
-900
20
12500
30
0
40
262.5
1
5000
50
90
72
1
11
-900
21
12500
31
0
0
TEXT
8
DIM
7
CN
10
-900
20
7500
30
0
40
262.5
1
5000
50
90
72
1
11
-900
21
7500
31
0
0
TEXT
8
DIM
7
CN
10
-900
20
2500
30
0
40
262.5
1
5000
50
90
72
1
11
-900
21
2500
31
0
0
TEXT
8
DIM
7
CN
10
-1300
20
7500
30
0
40
262.5
1
15000
50
90
72
1
11
-1300
21
7500
31
0
0
TEXT
8
TXT
7
CN
10
8000
20
-1800
30
0
40
700
1
A-01 \U+4E00\U+5C42\U+5E73\U+9762\U+56FE 1:100
72
1
11
8000
21
-1800
31
0
0
TEXT
8
TXT
7
CN
10
24000
20
2125
30
0
40
312.5
1
\U+5BA2\U+623F204
0
TEXT
8
TXT
7
CN
10
24000
20
1725
30
0
40
262.5
1
\U+6807\U+51C6\U+5927\U+5E8A 26\U+33A1
0
TEXT
8
TXT
7
CN
10
28000
20
2125
30
0
40
312.5
1
\U+5BA2\U+623F205
0
TEXT
8
TXT
7
CN
10
28000
20
1725
30
0
40
262.5
1
\U+6807\U+51C6\U+5927\U+5E8A 26\U+33A1
0
TEXT
8
TXT
7
CN
10
32000
20
2125
30
0
40
312.5
1
\U+5BA2\U+623F206
0
TEXT
8
TXT
7
CN
10
32000
20
1725
30
0
40
262.5
1
\U+6807\U+51C6\U+5927\U+5E8A 26\U+33A1
0
TEXT
8
TXT
7
CN
10
36000
20
2125
30
0
40
312.5
1
\U+5BA2\U+623F207
0
TEXT
8
TXT
7
CN
10
36000
20
1725
30
0
40
262.5
1
\U+6807\U+51C6\U+5927\U+5E8A 26\U+33A1
0
TEXT
8
TXT
7
CN
10
24000
20
12000
30
0
40
312.5
1
\U+5BA2\U+623F201
0
TEXT
8
TXT
7
CN
10
24000
20
11600
30
0
40
262.5
1
\U+6807\U+51C6\U+5927\U+5E8A 26\U+33A1
0
TEXT
8
TXT
7
CN
10
28000
20
12000
30
0
40
312.5
1
\U+5BA2\U+623F202
0
TEXT
8
TXT
7
CN
10
28000
20
11600
30
0
40
262.5
1
\U+6807\U+51C6\U+5927\U+5E8A 26\U+33A1
0
TEXT
8
TXT
7
CN
10
32000
20
12000
30
0
40
312.5
1
\U+5BA2\U+623F203
0
TEXT
8
TXT
7
CN
10
32000
20
11600
30
0
40
262.5
1
\U+6807\U+51C6\U+5927\U+5E8A 26\U+33A1
0
TEXT
8
TXT
7
CN
10
36575
20
8950
30
0
40
312.5
1
\U+7535\U+68AF
72
1
11
36575
21
8950
31
0
0
TEXT
8
TXT
7
CN
10
36575
20
8550
30
0
40
262.5
1
2.4\U+00D72.4
72
1
11
36575
21
8550
31
0
0
TEXT
8
TXT
7
CN
10
36000
20
12000
30
0
40
312.5
1
\U+697C\U+68AF
72
1
11
36000
21
12000
31
0
0
TEXT
8
TXT
7
CN
10
35050
20
10400
30
0
40
262.5
1
\U+4E0A/\U+4E0B
0
TEXT
8
TXT
7
CN
10
34300
20
9200
30
0
40
262.5
1
\U+5E03\U+8349
50
-90
0
TEXT
8
TXT
7
CN
10
34750
20
7125
30
0
40
262.5
1
\U+7535\U+68AF\U+5385
72
1
11
34750
21
7125
31
0
0
TEXT
8
TXT
7
CN
10
29000
20
7425
30
0
40
262.5
1
\U+8D70\U+5ECA 1.8m \U+00B7 \U+4E24\U+7AEF\U+91C7\U+5149
72
1
11
29000
21
7425
31
0
0
TEXT
8
TXT
7
CN
10
33300
20
800
30
0
40
262.5
1
\U+25A8 \U+7A7A\U+8C03\U+673A\U+4F4D\U+00B7\U+767E\U+53F6\U+FF08\U+6BCF\U+95F4\U+5BA2\U+623F\U+4E13\U+7528\U+FF0C\U+524D\U+6392\U+5185\U+51F9\U+3001\U+540E\U+6392\U+6401\U+677F\U+FF09
0
TEXT
8
DIM
7
CN
10
24000
20
15425
30
0
40
262.5
1
4000
72
1
11
24000
21
15425
31
0
0
TEXT
8
DIM
7
CN
10
28000
20
15425
30
0
40
262.5
1
4000
72
1
11
28000
21
15425
31
0
0
TEXT
8
DIM
7
CN
10
32000
20
15425
30
0
40
262.5
1
4000
72
1
11
32000
21
15425
31
0
0
TEXT
8
DIM
7
CN
10
36000
20
15425
30
0
40
262.5
1
4000
72
1
11
36000
21
15425
31
0
0
TEXT
8
DIM
7
CN
10
24000
20
-825
30
0
40
262.5
1
4000
72
1
11
24000
21
-825
31
0
0
TEXT
8
DIM
7
CN
10
28000
20
-825
30
0
40
262.5
1
4000
72
1
11
28000
21
-825
31
0
0
TEXT
8
DIM
7
CN
10
32000
20
-825
30
0
40
262.5
1
4000
72
1
11
32000
21
-825
31
0
0
TEXT
8
DIM
7
CN
10
36000
20
-825
30
0
40
262.5
1
4000
72
1
11
36000
21
-825
31
0
0
TEXT
8
DIM
7
CN
10
30000
20
-1800
30
0
40
262.5
1
16000\U+FF08\U+4E34\U+8857\U+9762\U+FF09
72
1
11
30000
21
-1800
31
0
0
TEXT
8
DIM
7
CN
10
21100
20
12500
30
0
40
262.5
1
5000
50
90
72
1
11
21100
21
12500
31
0
0
TEXT
8
DIM
7
CN
10
21100
20
7500
30
0
40
262.5
1
5000
50
90
72
1
11
21100
21
7500
31
0
0
TEXT
8
DIM
7
CN
10
21100
20
2500
30
0
40
262.5
1
5000
50
90
72
1
11
21100
21
2500
31
0
0
TEXT
8
DIM
7
CN
10
20700
20
7500
30
0
40
262.5
1
15000
50
90
72
1
11
20700
21
7500
31
0
0
TEXT
8
TXT
7
CN
10
30000
20
-1800
30
0
40
700
1
A-02 \U+4E8C\U+5C42\U+5E73\U+9762\U+56FE\U+FF08\U+4E09\U+5C42\U+540C\U+FF09 1:100
72
1
11
30000
21
-1800
31
0
0
TEXT
8
TXT
7
CN
10
50750
20
8250
30
0
40
312.5
1
\U+5BA2\U+5385 \U+00B7 \U+9910\U+53A8\U+4E00\U+4F53
72
1
11
50750
21
8250
31
0
0
TEXT
8
TXT
7
CN
10
50750
20
7850
30
0
40
262.5
1
\U+7EA660\U+33A1 \U+00B7 \U+6574\U+9762\U+73BB\U+7483\U+79FB\U+95E8\U+901A\U+9732\U+53F0
72
1
11
50750
21
7850
31
0
0
TEXT
8
TXT
7
CN
10
54250
20
6750
30
0
40
262.5
1
\U+5F00\U+653E\U+53A8\U+623F\U+00B7\U+5C9B\U+53F0
72
1
11
54250
21
6750
31
0
0
TEXT
8
TXT
7
CN
10
50250
20
6150
30
0
40
262.5
1
\U+9910\U+5385
72
1
11
50250
21
6150
31
0
0
TEXT
8
TXT
7
CN
10
46250
20
6850
30
0
40
262.5
1
\U+5BA2\U+5385\U+00B7\U+7535\U+89C6\U+5899
72
1
11
46250
21
6850
31
0
0
TEXT
8
TXT
7
CN
10
54250
20
12000
30
0
40
312.5
1
\U+6B21\U+5367\U+4E00
72
1
11
54250
21
12000
31
0
0
TEXT
8
TXT
7
CN
10
54250
20
11600
30
0
40
262.5
1
15 \U+33A1
72
1
11
54250
21
11600
31
0
0
TEXT
8
TXT
7
CN
10
50250
20
12000
30
0
40
312.5
1
\U+6B21\U+5367\U+4E8C/\U+4E66\U+623F
72
1
11
50250
21
12000
31
0
0
TEXT
8
TXT
7
CN
10
50250
20
11600
30
0
40
262.5
1
13 \U+33A1
72
1
11
50250
21
11600
31
0
0
TEXT
8
TXT
7
CN
10
45500
20
11050
30
0
40
312.5
1
\U+4E3B\U+5367\U+5957\U+623F
72
1
11
45500
21
11050
31
0
0
TEXT
8
TXT
7
CN
10
45500
20
10650
30
0
40
262.5
1
\U+8863\U+5E3D+\U+4E3B\U+536B \U+00B7 26\U+33A1
72
1
11
45500
21
10650
31
0
0
TEXT
8
TXT
7
CN
10
47175
20
13950
30
0
40
262.5
1
\U+8863\U+5E3D
72
1
11
47175
21
13950
31
0
0
TEXT
8
TXT
7
CN
10
45250
20
12875
30
0
40
262.5
1
\U+4E3B\U+536B
72
1
11
45250
21
12875
31
0
0
TEXT
8
TXT
7
CN
10
55050
20
8550
30
0
40
262.5
1
\U+516C\U+536B
72
1
11
55050
21
8550
31
0
0
TEXT
8
TXT
7
CN
10
58575
20
9200
30
0
40
312.5
1
\U+7535\U+68AF
72
1
11
58575
21
9200
31
0
0
TEXT
8
TXT
7
CN
10
58575
20
8800
30
0
40
262.5
1
2.4\U+00D72.4 \U+00B7 \U+68AF\U+63A7\U+5165\U+6237
72
1
11
58575
21
8800
31
0
0
TEXT
8
TXT
7
CN
10
58000
20
12000
30
0
40
312.5
1
\U+697C\U+68AF
72
1
11
58000
21
12000
31
0
0
TEXT
8
TXT
7
CN
10
57450
20
10500
30
0
40
262.5
1
\U+4E0B/\U+4E0A\U+5C4B\U+9762
0
TEXT
8
TXT
7
CN
10
58000
20
5800
30
0
40
262.5
1
\U+7384\U+5173
72
1
11
58000
21
5800
31
0
0
TEXT
8
TXT
7
CN
10
56250
20
2850
30
0
40
312.5
1
\U+5F00\U+653E\U+9732\U+53F0 80\U+33A1
72
1
11
56250
21
2850
31
0
0
TEXT
8
TXT
7
CN
10
56250
20
2450
30
0
40
262.5
1
\U+6728\U+5E73\U+53F0 \U+00B7 \U+6237\U+5916\U+5BA2\U+5385 \U+00B7 \U+7EFF\U+690D\U+6C60
72
1
11
56250
21
2450
31
0
0
TEXT
8
TXT
7
CN
10
47100
20
3950
30
0
40
262.5
1
\U+6728\U+683C\U+6805\U+5ECA\U+67B6\U+FF08\U+4E0A\U+7A7A\U+FF09
72
1
11
47100
21
3950
31
0
0
TEXT
8
TXT
7
CN
10
55600
20
850
30
0
40
262.5
1
\U+7EFF\U+690D\U+6C60
72
1
11
55600
21
850
31
0
0
TEXT
8
TXT
7
CN
10
51000
20
4600
30
0
40
262.5
1
\U+901A\U+9AD8\U+73BB\U+7483\U+79FB\U+95E8 16m
72
1
11
51000
21
4600
31
0
0
TEXT
8
TXT
7
CN
10
52750
20
14000
30
0
40
262.5
1
\U+25A8 \U+7A7A\U+8C03\U+673A\U+4F4D\U+FF08\U+5367\U+5BA4\U+80CC\U+7ACB\U+9762\U+FF09\U+00B7 \U+5916\U+673A\U+4EA6\U+53EF\U+96C6\U+4E2D\U+4E0A\U+4E3B\U+5C4B\U+9762
72
1
11
52750
21
14000
31
0
0
TEXT
8
DIM
7
CN
10
46000
20
15425
30
0
40
262.5
1
4000
72
1
11
46000
21
15425
31
0
0
TEXT
8
DIM
7
CN
10
50000
20
15425
30
0
40
262.5
1
4000
72
1
11
50000
21
15425
31
0
0
TEXT
8
DIM
7
CN
10
54000
20
15425
30
0
40
262.5
1
4000
72
1
11
54000
21
15425
31
0
0
TEXT
8
DIM
7
CN
10
58000
20
15425
30
0
40
262.5
1
4000
72
1
11
58000
21
15425
31
0
0
TEXT
8
DIM
7
CN
10
46000
20
-825
30
0
40
262.5
1
4000
72
1
11
46000
21
-825
31
0
0
TEXT
8
DIM
7
CN
10
50000
20
-825
30
0
40
262.5
1
4000
72
1
11
50000
21
-825
31
0
0
TEXT
8
DIM
7
CN
10
54000
20
-825
30
0
40
262.5
1
4000
72
1
11
54000
21
-825
31
0
0
TEXT
8
DIM
7
CN
10
58000
20
-825
30
0
40
262.5
1
4000
72
1
11
58000
21
-825
31
0
0
TEXT
8
DIM
7
CN
10
52000
20
-1800
30
0
40
262.5
1
16000\U+FF08\U+4E34\U+8857\U+9762\U+FF09
72
1
11
52000
21
-1800
31
0
0
TEXT
8
DIM
7
CN
10
43100
20
12500
30
0
40
262.5
1
5000 \U+5367\U+5BA4
50
90
72
1
11
43100
21
12500
31
0
0
TEXT
8
DIM
7
CN
10
43100
20
7500
30
0
40
262.5
1
5000 \U+5BA2\U+5385
50
90
72
1
11
43100
21
7500
31
0
0
TEXT
8
DIM
7
CN
10
43100
20
2500
30
0
40
262.5
1
5000 \U+9732\U+53F0
50
90
72
1
11
43100
21
2500
31
0
0
TEXT
8
DIM
7
CN
10
42700
20
7500
30
0
40
262.5
1
15000
50
90
72
1
11
42700
21
7500
31
0
0
TEXT
8
TXT
7
CN
10
52000
20
-1800
30
0
40
700
1
A-03 \U+56DB\U+5C42\U+5E73\U+9762\U+56FE 1:100
72
1
11
52000
21
-1800
31
0
0
TEXT
8
TXT
7
CN
10
71700
20
3925
30
0
40
275
1
\U+7EDF \U+4E00 \U+5E97 \U+62DB \U+5E26 \U+00B7 \U+53D1 \U+5149 \U+5B57
72
1
11
71700
21
3925
31
0
0
TEXT
8
TXT
7
CN
10
77800
20
2950
30
0
40
262.5
1
\U+6C11\U+5BBF\U+5165\U+53E3
72
1
11
77800
21
2950
31
0
0
TEXT
8
DIM
7
CN
10
82950
20
-100
30
0
40
262.5
1
\U+00B10.000
0
TEXT
8
DIM
7
CN
10
82950
20
4400
30
0
40
262.5
1
+4.500
0
TEXT
8
DIM
7
CN
10
82950
20
7700
30
0
40
262.5
1
+7.800
0
TEXT
8
DIM
7
CN
10
82950
20
11000
30
0
40
262.5
1
+11.100
0
TEXT
8
DIM
7
CN
10
82950
20
14300
30
0
40
262.5
1
+14.400
0
TEXT
8
DIM
7
CN
10
69750
20
9600
30
0
40
262.5
1
1
72
1
11
69750
21
9600
31
0
0
TEXT
8
DIM
7
CN
10
79650
20
8400
30
0
40
262.5
1
2
72
1
11
79650
21
8400
31
0
0
TEXT
8
DIM
7
CN
10
75400
20
6400
30
0
40
262.5
1
3
72
1
11
75400
21
6400
31
0
0
TEXT
8
DIM
7
CN
10
73750
20
11550
30
0
40
262.5
1
4
72
1
11
73750
21
11550
31
0
0
TEXT
8
DIM
7
CN
10
76750
20
3950
30
0
40
262.5
1
5
72
1
11
76750
21
3950
31
0
0
TEXT
8
DIM
7
CN
10
69750
20
1650
30
0
40
262.5
1
6
72
1
11
69750
21
1650
31
0
0
TEXT
8
DIM
7
CN
10
68250
20
13400
30
0
40
262.5
1
7
72
1
11
68250
21
13400
31
0
0
TEXT
8
DIM
7
CN
10
74000
20
-1150
30
0
40
262.5
1
16000
72
1
11
74000
21
-1150
31
0
0
TEXT
8
TXT
7
CN
10
74000
20
-1800
30
0
40
700
1
A-04 \U+4E34\U+8857\U+7ACB\U+9762\U+56FE 1:100
72
1
11
74000
21
-1800
31
0
0
TEXT
8
TXT
7
CN
10
0
20
16800
30
0
40
800
1
16m\U+00D715m \U+4E34\U+8857\U+5546\U+4F4F\U+4E00\U+4F53\U+81EA\U+5EFA\U+623F \U+00B7 \U+6982\U+5FF5\U+65B9\U+6848 \U+00B7 \U+5355\U+4F4D:mm \U+00B7 \U+6BD4\U+4F8B1:1\U+6A21\U+578B\U+7A7A\U+95F4
0
ENDSEC
0
EOF
