<svg xmlns="http://www.w3.org/2000/svg" width="1900" height="1320" viewBox="0 0 1900 1320">
  <defs>
    <marker id="arrow" viewBox="0 0 10 10" refX="5" refY="5" markerWidth="7" markerHeight="7" orient="auto-start-reverse"><path d="M0 0L10 5L0 10Z" fill="#52606d"/></marker>
    <style>
      text{font-family:"Microsoft YaHei","Noto Sans CJK SC",Arial,sans-serif;fill:#172b4d}
      .title{font-size:30px;font-weight:700}.sub{font-size:17px;fill:#5e6c84}.head{font-size:23px;font-weight:700}.label{font-size:17px;font-weight:650}.small{font-size:13px}.tiny{font-size:11px}.dim{font-size:13px;fill:#52606d}
      .outline{fill:#fff;stroke:#344563;stroke-width:3}.axis{stroke:#7a869a;stroke-width:1.4;stroke-dasharray:7 6}.wall{stroke:#344563;stroke-width:3;fill:none}.part{stroke:#52606d;stroke-width:2;fill:none}.firewall{stroke:#c9372c;stroke-width:4;fill:none}.window{stroke:#0c66e4;stroke-width:5}.sliding{stroke:#0c66e4;stroke-width:2}.column{fill:#344563}.furn{fill:#fff;stroke:#52606d;stroke-width:1.5}.sanitary{fill:#e7f7fb;stroke:#248a9c;stroke-width:1.5}.dimension{stroke:#52606d;stroke-width:1.3;marker-start:url(#arrow);marker-end:url(#arrow)}
    </style>
    <g id="column"><rect x="-7" y="-7" width="14" height="14" class="column"/></g>
    <g id="doorUp"><line x1="0" y1="0" x2="36" y2="0" stroke="#fff" stroke-width="8"/><line x1="0" y1="0" x2="0" y2="-36" stroke="#344563" stroke-width="1.7"/><path d="M36 0A36 36 0 0 0 0-36" fill="none" stroke="#344563" stroke-width="1.3"/></g>
    <g id="doorDown"><line x1="0" y1="0" x2="36" y2="0" stroke="#fff" stroke-width="8"/><line x1="0" y1="0" x2="0" y2="36" stroke="#344563" stroke-width="1.7"/><path d="M36 0A36 36 0 0 1 0 36" fill="none" stroke="#344563" stroke-width="1.3"/></g>
    <g id="doorLeft"><line x1="0" y1="0" x2="0" y2="32" stroke="#fff" stroke-width="8"/><line x1="0" y1="0" x2="-32" y2="0" stroke="#344563" stroke-width="1.7"/><path d="M0 32A32 32 0 0 0-32 0" fill="none" stroke="#344563" stroke-width="1.3"/></g>
    <g id="doorRight"><line x1="0" y1="0" x2="0" y2="32" stroke="#fff" stroke-width="8"/><line x1="0" y1="0" x2="32" y2="0" stroke="#344563" stroke-width="1.7"/><path d="M0 32A32 32 0 0 1 32 0" fill="none" stroke="#344563" stroke-width="1.3"/></g>
    <g id="bed"><rect x="0" y="0" width="60" height="80" rx="4" fill="#fff" stroke="#52606d" stroke-width="1.8"/><rect x="5" y="5" width="23" height="15" rx="3" fill="#e9eef5" stroke="#7a869a"/><rect x="32" y="5" width="23" height="15" rx="3" fill="#e9eef5" stroke="#7a869a"/><line x1="3" y1="25" x2="57" y2="25" stroke="#7a869a"/><text x="30" y="54" text-anchor="middle" class="tiny">1.5×2.0床</text></g>
    <g id="bath"><rect x="0" y="0" width="64" height="80" fill="#edf9fb" stroke="#248a9c" stroke-width="1.5"/><rect x="4" y="4" width="29" height="30" fill="#dff1f5" stroke="#248a9c" stroke-dasharray="4 3"/><text x="18" y="22" text-anchor="middle" class="tiny">淋浴</text><ellipse cx="48" cy="21" rx="10" ry="15" class="sanitary"/><rect x="38" y="49" width="22" height="17" rx="6" class="sanitary"/><text x="49" y="77" text-anchor="middle" class="tiny">台盆/坐便</text></g>
    <g id="desk"><rect x="0" y="0" width="48" height="20" class="furn"/><rect x="16" y="22" width="18" height="12" rx="3" class="furn"/><text x="24" y="14" text-anchor="middle" class="tiny">书桌</text></g>
    <g id="wardrobe"><rect x="0" y="0" width="52" height="22" fill="#f3eee6" stroke="#8a6d3b"/><line x1="26" y1="0" x2="26" y2="22" stroke="#8a6d3b"/><text x="26" y="15" text-anchor="middle" class="tiny">衣柜</text></g>
    <g id="tv"><rect x="0" y="0" width="38" height="7" fill="#344563"/><text x="19" y="-4" text-anchor="middle" class="tiny">电视</text></g>
    <g id="smoke"><circle cx="0" cy="0" r="8" fill="#fff" stroke="#c9372c" stroke-width="1.5"/><text x="0" y="4" text-anchor="middle" class="tiny" fill="#c9372c">烟</text></g>
    <g id="ext"><rect x="-9" y="-12" width="18" height="24" rx="3" fill="#fce3e1" stroke="#c9372c"/><text x="0" y="5" text-anchor="middle" class="tiny" fill="#c9372c">灭</text></g>
  </defs>

  <rect width="1900" height="1320" fill="#f7f9fc"/>
  <text x="950" y="42" text-anchor="middle" class="title">商铺＋民宿详细平面 V3：门、楼梯、洁具与家具</text>
  <text x="950" y="72" text-anchor="middle" class="sub">左：一层完整平面　｜　右：二、三层通用客房平面（前后各1.5m开放阳台）</text>

  <!-- ================= LEFT GROUND FLOOR ================= -->
  <text x="400" y="115" text-anchor="middle" class="head">一层 16m×15m</text>
  <rect x="80" y="150" width="640" height="58" rx="8" fill="#dfe3e8"/><line x1="105" y1="179" x2="695" y2="179" stroke="#fff" stroke-width="4" stroke-dasharray="26 16"/><text x="400" y="173" text-anchor="middle" class="label">临街道路</text>
  <!-- plan x80..720 y240..840, scale40 -->
  <rect x="80" y="240" width="640" height="600" class="outline"/>
  <g class="axis"><line x1="240" y1="240" x2="240" y2="840"/><line x1="400" y1="240" x2="400" y2="840"/><line x1="560" y1="240" x2="560" y2="840"/><line x1="80" y1="440" x2="720" y2="440"/><line x1="80" y1="640" x2="720" y2="640"/></g>

  <!-- protected passages -->
  <rect x="80" y="240" width="56" height="244" fill="#d9eafd" stroke="#0c66e4" stroke-width="2.5"/><rect x="664" y="240" width="56" height="244" fill="#fce3e1" stroke="#c9372c" stroke-width="2.5"/>
  <path d="M108 270V465" stroke="#0c66e4" stroke-width="3" marker-end="url(#arrow)"/><path d="M692 270V465" stroke="#c9372c" stroke-width="3" marker-end="url(#arrow)"/>
  <text x="108" y="365" text-anchor="middle" class="small" transform="rotate(-90 108 365)">民宿主入口/通道 约1.4m</text><text x="692" y="365" text-anchor="middle" class="small" transform="rotate(-90 692 365)">第二安全出口通道 约1.4m</text>
  <!-- outward exit doors -->
  <use href="#doorDown" transform="translate(90 240) rotate(180 0 0)"/><use href="#doorDown" transform="translate(674 240) rotate(180 0 0)"/>

  <!-- shops boundaries -->
  <path d="M136 240V640M312 240V640M488 240V640M664 240V640" class="part"/>
  <rect x="136" y="240" width="176" height="400" fill="#e6f5e9" fill-opacity="0.72"/><rect x="312" y="240" width="176" height="400" fill="#eef8e9" fill-opacity="0.72"/><rect x="488" y="240" width="176" height="400" fill="#f3faef" fill-opacity="0.72"/>
  <text x="224" y="292" text-anchor="middle" class="head">商铺 A</text><text x="400" y="292" text-anchor="middle" class="head">商铺 B</text><text x="576" y="292" text-anchor="middle" class="head">商铺 C</text>
  <!-- storefront sliding doors/windows -->
  <g class="sliding"><line x1="166" y1="240" x2="282" y2="240"/><line x1="181" y1="245" x2="267" y2="245"/><line x1="342" y1="240" x2="458" y2="240"/><line x1="357" y1="245" x2="443" y2="245"/><line x1="518" y1="240" x2="634" y2="240"/><line x1="533" y1="245" x2="619" y2="245"/></g>
  <text x="224" y="259" text-anchor="middle" class="tiny">玻璃推拉店门</text><text x="400" y="259" text-anchor="middle" class="tiny">玻璃推拉店门</text><text x="576" y="259" text-anchor="middle" class="tiny">玻璃推拉店门</text>

  <!-- shop furniture: cashier and shelves -->
  <g class="furn">
    <rect x="148" y="300" width="54" height="22"/><rect x="322" y="300" width="54" height="22"/><rect x="498" y="300" width="54" height="22"/>
    <rect x="150" y="350" width="20" height="72"/><rect x="278" y="350" width="20" height="72"/><rect x="326" y="350" width="20" height="72"/><rect x="454" y="350" width="20" height="72"/><rect x="502" y="350" width="20" height="72"/><rect x="630" y="350" width="20" height="72"/>
  </g>
  <text x="175" y="315" text-anchor="middle" class="tiny">收银台</text><text x="349" y="315" text-anchor="middle" class="tiny">收银台</text><text x="525" y="315" text-anchor="middle" class="tiny">收银台</text><text x="160" y="390" text-anchor="middle" class="tiny" transform="rotate(-90 160 390)">展示货架</text><text x="336" y="390" text-anchor="middle" class="tiny" transform="rotate(-90 336 390)">展示货架</text><text x="512" y="390" text-anchor="middle" class="tiny" transform="rotate(-90 512 390)">展示货架</text>

  <!-- stairs/lobbies/elevator -->
  <rect x="136" y="424" width="104" height="120" fill="#cfe7ff" stroke="#0c66e4" stroke-width="3"/><rect x="150" y="438" width="76" height="92" fill="#f7fbff" stroke="#0c66e4"/><rect x="176" y="468" width="24" height="32" fill="#e9ecef" stroke="#7a869a" stroke-dasharray="4 3"/><path d="M156 462H188V444H220V482H214V524H188V528H154V488" fill="none" stroke="#0c66e4" stroke-width="2.5" marker-end="url(#arrow)"/><text x="188" y="486" text-anchor="middle" class="tiny">梯井</text><text x="188" y="561" text-anchor="middle" class="small">主四跑楼梯 ↑</text>
  <rect x="80" y="484" width="60" height="60" fill="#fff1b8" stroke="#e2a400" stroke-width="2.5"/><text x="110" y="508" text-anchor="middle" class="tiny">候梯/楼层</text><text x="110" y="524" text-anchor="middle" class="tiny">平台1.5m</text>
  <rect x="80" y="544" width="96" height="96" fill="#ffe2bd" stroke="#e56910" stroke-width="3"/><line x1="82" y1="546" x2="174" y2="638" stroke="#e56910"/><line x1="174" y1="546" x2="82" y2="638" stroke="#e56910"/><text x="128" y="586" text-anchor="middle" class="label">电梯井</text><text x="128" y="610" text-anchor="middle" class="small">2.4×2.4m</text><line x1="95" y1="544" x2="145" y2="544" stroke="#fff" stroke-width="9"/><line x1="95" y1="544" x2="145" y2="544" stroke="#e56910" stroke-dasharray="6 4"/>
  <use href="#doorRight" transform="translate(136 498)"/>

  <rect x="560" y="424" width="104" height="120" fill="#fce3e1" stroke="#c9372c" stroke-width="3"/><rect x="574" y="438" width="76" height="92" fill="#fff8f7" stroke="#c9372c"/><rect x="600" y="468" width="24" height="32" fill="#e9ecef" stroke="#7a869a" stroke-dasharray="4 3"/><path d="M580 462H612V444H644V482H638V524H612V528H578V488" fill="none" stroke="#c9372c" stroke-width="2.5" marker-end="url(#arrow)"/><text x="612" y="486" text-anchor="middle" class="tiny">梯井</text><text x="612" y="561" text-anchor="middle" class="small">第二四跑楼梯 ↑</text>
  <rect x="660" y="484" width="60" height="60" fill="#ffeceb" stroke="#c9372c" stroke-width="2.5"/><text x="690" y="508" text-anchor="middle" class="tiny">疏散楼层</text><text x="690" y="524" text-anchor="middle" class="tiny">平台</text><use href="#doorLeft" transform="translate(664 498)"/>

  <!-- rear back-of-house zones -->
  <rect x="80" y="640" width="213" height="200" fill="#f6f0e4" stroke="#a6772e" stroke-width="2"/><rect x="293" y="640" width="214" height="200" fill="#f8f3e9" stroke="#a6772e" stroke-width="2"/><rect x="507" y="640" width="213" height="200" fill="#f8f3e9" stroke="#a6772e" stroke-width="2"/>
  <text x="186" y="686" text-anchor="middle" class="label">A仓库/办公室</text><text x="400" y="686" text-anchor="middle" class="label">B仓库/办公室</text><text x="613" y="686" text-anchor="middle" class="label">C仓库/办公室</text>
  <!-- rear shelves -->
  <g class="furn"><rect x="95" y="710" width="18" height="100"/><rect x="130" y="710" width="18" height="100"/><rect x="308" y="710" width="18" height="100"/><rect x="343" y="710" width="18" height="100"/><rect x="522" y="710" width="18" height="100"/><rect x="557" y="710" width="18" height="100"/></g>
  <!-- shop toilets -->
  <rect x="213" y="752" width="80" height="88" fill="#edf9fb" stroke="#248a9c" stroke-width="2"/><rect x="427" y="752" width="80" height="88" fill="#edf9fb" stroke="#248a9c" stroke-width="2"/><rect x="640" y="752" width="80" height="88" fill="#edf9fb" stroke="#248a9c" stroke-width="2"/>
  <g class="sanitary"><ellipse cx="275" cy="775" rx="9" ry="14"/><rect x="264" y="804" width="22" height="16" rx="6"/><ellipse cx="489" cy="775" rx="9" ry="14"/><rect x="478" y="804" width="22" height="16" rx="6"/><ellipse cx="702" cy="775" rx="9" ry="14"/><rect x="691" y="804" width="22" height="16" rx="6"/></g>
  <text x="253" y="737" text-anchor="middle" class="small">A卫生间</text><text x="467" y="737" text-anchor="middle" class="small">B卫生间</text><text x="680" y="737" text-anchor="middle" class="small">C卫生间</text>
  <use href="#doorLeft" transform="translate(213 770)"/><use href="#doorLeft" transform="translate(427 770)"/><use href="#doorLeft" transform="translate(640 770)"/>
  <!-- fire devices -->
  <use href="#ext" transform="translate(110 460)"/><use href="#ext" transform="translate(690 460)"/><use href="#smoke" transform="translate(400 470)"/>

  <!-- columns ground -->
  <g><use href="#column" transform="translate(80 240)"/><use href="#column" transform="translate(240 240)"/><use href="#column" transform="translate(400 240)"/><use href="#column" transform="translate(560 240)"/><use href="#column" transform="translate(720 240)"/><use href="#column" transform="translate(80 440)"/><use href="#column" transform="translate(240 440)"/><use href="#column" transform="translate(400 440)"/><use href="#column" transform="translate(560 440)"/><use href="#column" transform="translate(720 440)"/><use href="#column" transform="translate(80 640)"/><use href="#column" transform="translate(240 640)"/><use href="#column" transform="translate(400 640)"/><use href="#column" transform="translate(560 640)"/><use href="#column" transform="translate(720 640)"/><use href="#column" transform="translate(80 840)"/><use href="#column" transform="translate(240 840)"/><use href="#column" transform="translate(400 840)"/><use href="#column" transform="translate(560 840)"/><use href="#column" transform="translate(720 840)"/></g>

  <!-- ================= RIGHT DETAILED HOTEL FLOOR ================= -->
  <text x="1320" y="115" text-anchor="middle" class="head">二、三层通用户型 16m×18m（含前后阳台）</text>
  <rect x="1000" y="150" width="640" height="50" rx="8" fill="#dfe3e8"/><line x1="1025" y1="175" x2="1615" y2="175" stroke="#fff" stroke-width="4" stroke-dasharray="26 16"/><text x="1320" y="169" text-anchor="middle" class="label">临街方向</text>
  <!-- balconies and original building -->
  <rect x="1000" y="200" width="640" height="60" fill="#d8f3ff" stroke="#0c66e4" stroke-width="2.5" stroke-dasharray="8 5"/><rect x="1000" y="860" width="640" height="60" fill="#d8f3ff" stroke="#0c66e4" stroke-width="2.5" stroke-dasharray="8 5"/>
  <text x="1320" y="232" text-anchor="middle" class="small">前挑1.5m开放阳台：桌椅/绿植，不布置卫生间和重型设备</text><text x="1320" y="896" text-anchor="middle" class="small">后挑1.5m开放阳台：休闲/空调机位，保持救援窗无遮挡</text>
  <rect x="1000" y="260" width="640" height="600" class="outline"/>
  <g class="axis"><line x1="1160" y1="260" x2="1160" y2="860"/><line x1="1320" y1="260" x2="1320" y2="860"/><line x1="1480" y1="260" x2="1480" y2="860"/><line x1="1000" y1="460" x2="1640" y2="460"/><line x1="1000" y1="660" x2="1640" y2="660"/></g>

  <!-- corridor -->
  <rect x="1000" y="504" width="640" height="60" fill="#fff1b8" stroke="#e2a400" stroke-width="2"/><path d="M1035 534H1605" stroke="#e2a400" stroke-width="2.5" marker-start="url(#arrow)" marker-end="url(#arrow)"/><text x="1320" y="527" text-anchor="middle" class="label">1.5m公共走道</text><text x="1320" y="550" text-anchor="middle" class="tiny">客房门全部向房内开启，走道不被门扇占用</text>

  <!-- room backgrounds/front -->
  <rect x="1000" y="260" width="160" height="184" fill="#e7f0fb" fill-opacity="0.85"/><rect x="1160" y="260" width="160" height="244" fill="#eaf2fc" fill-opacity="0.85"/><rect x="1320" y="260" width="160" height="244" fill="#eaf2fc" fill-opacity="0.85"/><rect x="1480" y="260" width="160" height="184" fill="#e9ecef" fill-opacity="0.85"/>
  <path d="M1160 260V444M1320 260V504M1480 260V444" class="wall"/>
  <text x="1080" y="286" text-anchor="middle" class="label">201 / 301</text><text x="1240" y="286" text-anchor="middle" class="label">202 / 302</text><text x="1400" y="286" text-anchor="middle" class="label">203 / 303</text><text x="1560" y="286" text-anchor="middle" class="label">2F休息前台 / 3F布草洗衣</text>

  <!-- front furniture room201 -->
  <use href="#bed" transform="translate(1012 292)"/><use href="#wardrobe" transform="translate(1094 275)"/><use href="#desk" transform="translate(1088 340)"/><use href="#tv" transform="translate(1088 408)"/>
  <rect x="1096" y="356" width="64" height="88" fill="#edf9fb" stroke="#248a9c" stroke-width="2"/><g transform="translate(1096 360)"><use href="#bath" transform="scale(1 1.05)"/></g><use href="#doorLeft" transform="translate(1096 382)"/>
  <!-- room201 private entry strip and entry door -->
  <path d="M1000 444H1056V504" class="wall"/><use href="#doorUp" transform="translate(1010 504)"/>
  <!-- room202 -->
  <use href="#bed" transform="translate(1246 300) rotate(90 0 0)"/><use href="#wardrobe" transform="translate(1172 275)"/><use href="#desk" transform="translate(1172 340)"/><use href="#tv" transform="translate(1268 420) rotate(90 0 0)"/>
  <rect x="1160" y="420" width="64" height="84" fill="#edf9fb" stroke="#248a9c" stroke-width="2"/><g transform="translate(1160 421)"><use href="#bath" transform="scale(1 1.04)"/></g><use href="#doorRight" transform="translate(1224 442)"/><use href="#doorUp" transform="translate(1260 504)"/>
  <!-- room203 -->
  <use href="#bed" transform="translate(1440 300) rotate(90 0 0)"/><use href="#wardrobe" transform="translate(1332 275)"/><use href="#desk" transform="translate(1332 340)"/><use href="#tv" transform="translate(1428 420) rotate(90 0 0)"/>
  <rect x="1320" y="420" width="64" height="84" fill="#edf9fb" stroke="#248a9c" stroke-width="2"/><g transform="translate(1320 421)"><use href="#bath" transform="scale(1 1.04)"/></g><use href="#doorRight" transform="translate(1384 442)"/><use href="#doorUp" transform="translate(1420 504)"/>

  <!-- public lounge / laundry room furniture -->
  <rect x="1500" y="306" width="92" height="38" rx="9" fill="#fff" stroke="#52606d"/><rect x="1528" y="360" width="55" height="30" fill="#fff" stroke="#52606d"/><rect x="1494" y="406" width="126" height="24" fill="#f3eee6" stroke="#8a6d3b"/><text x="1546" y="329" text-anchor="middle" class="small">2F沙发</text><text x="1556" y="380" text-anchor="middle" class="tiny">茶几</text><text x="1557" y="423" text-anchor="middle" class="tiny">饮水台/布草柜</text>
  <rect x="1595" y="300" width="28" height="34" rx="4" fill="#edf9fb" stroke="#248a9c"/><rect x="1595" y="344" width="28" height="34" rx="4" fill="#edf9fb" stroke="#248a9c"/><text x="1609" y="321" text-anchor="middle" class="tiny">洗</text><text x="1609" y="365" text-anchor="middle" class="tiny">烘</text><text x="1558" y="446" text-anchor="middle" class="tiny">3F改作洗衣、清洁、布草间</text>
  <path d="M1584 444H1640V504" class="wall"/><use href="#doorUp" transform="translate(1594 504)"/>

  <!-- front balcony sliding doors and furniture -->
  <g class="window"><line x1="1025" y1="260" x2="1135" y2="260"/><line x1="1185" y1="260" x2="1295" y2="260"/><line x1="1345" y1="260" x2="1455" y2="260"/><line x1="1505" y1="260" x2="1615" y2="260"/></g>
  <g class="sliding"><line x1="1040" y1="255" x2="1120" y2="255"/><line x1="1200" y1="255" x2="1280" y2="255"/><line x1="1360" y1="255" x2="1440" y2="255"/><line x1="1520" y1="255" x2="1600" y2="255"/></g>
  <g class="furn"><circle cx="1080" cy="225" r="13"/><circle cx="1060" cy="225" r="7"/><circle cx="1100" cy="225" r="7"/><circle cx="1240" cy="225" r="13"/><circle cx="1220" cy="225" r="7"/><circle cx="1260" cy="225" r="7"/><circle cx="1400" cy="225" r="13"/><circle cx="1380" cy="225" r="7"/><circle cx="1420" cy="225" r="7"/></g>

  <!-- left core -->
  <rect x="1056" y="444" width="104" height="120" fill="#cfe7ff" stroke="#0c66e4" stroke-width="3"/><rect x="1070" y="458" width="76" height="92" fill="#f7fbff" stroke="#0c66e4"/><rect x="1096" y="488" width="24" height="32" fill="#e9ecef" stroke="#7a869a" stroke-dasharray="4 3"/><path d="M1076 482H1108V464H1140V502H1134V544H1108V548H1074V508" fill="none" stroke="#0c66e4" stroke-width="2.5" marker-end="url(#arrow)"/><text x="1108" y="506" text-anchor="middle" class="tiny">梯井</text><text x="1108" y="580" text-anchor="middle" class="small">主楼梯</text>
  <rect x="1000" y="504" width="60" height="60" fill="#fff1b8" stroke="#e2a400" stroke-width="2.5"/><text x="1030" y="529" text-anchor="middle" class="tiny">候梯/楼层</text><text x="1030" y="545" text-anchor="middle" class="tiny">平台</text>
  <rect x="1000" y="564" width="96" height="96" fill="#ffe2bd" stroke="#e56910" stroke-width="3"/><line x1="1002" y1="566" x2="1094" y2="658" stroke="#e56910"/><line x1="1094" y1="566" x2="1002" y2="658" stroke="#e56910"/><text x="1048" y="607" text-anchor="middle" class="label">电梯井</text><text x="1048" y="631" text-anchor="middle" class="small">2.4×2.4m</text><line x1="1015" y1="564" x2="1065" y2="564" stroke="#fff" stroke-width="9"/><line x1="1015" y1="564" x2="1065" y2="564" stroke="#e56910" stroke-dasharray="6 4"/>
  <use href="#doorRight" transform="translate(1056 520)"/>

  <!-- right escape stair -->
  <rect x="1480" y="444" width="104" height="120" fill="#fce3e1" stroke="#c9372c" stroke-width="3"/><rect x="1494" y="458" width="76" height="92" fill="#fff8f7" stroke="#c9372c"/><rect x="1520" y="488" width="24" height="32" fill="#e9ecef" stroke="#7a869a" stroke-dasharray="4 3"/><path d="M1500 482H1532V464H1564V502H1558V544H1532V548H1498V508" fill="none" stroke="#c9372c" stroke-width="2.5" marker-end="url(#arrow)"/><text x="1532" y="506" text-anchor="middle" class="tiny">梯井</text><text x="1532" y="580" text-anchor="middle" class="small">第二疏散楼梯</text>
  <rect x="1580" y="504" width="60" height="60" fill="#ffeceb" stroke="#c9372c" stroke-width="2.5"/><text x="1610" y="529" text-anchor="middle" class="tiny">疏散楼层</text><text x="1610" y="545" text-anchor="middle" class="tiny">平台</text><use href="#doorLeft" transform="translate(1584 520)"/>

  <!-- rear room backgrounds and walls -->
  <rect x="1000" y="660" width="160" height="200" fill="#f2f0fa" fill-opacity="0.85"/><rect x="1160" y="564" width="160" height="296" fill="#f2f0fa" fill-opacity="0.85"/><rect x="1320" y="564" width="160" height="296" fill="#f2f0fa" fill-opacity="0.85"/><rect x="1480" y="564" width="160" height="296" fill="#f2f0fa" fill-opacity="0.85"/>
  <path d="M1160 660V860M1320 564V860M1480 564V860" class="wall"/>
  <text x="1080" y="688" text-anchor="middle" class="label">204 / 304</text><text x="1240" y="590" text-anchor="middle" class="label">205 / 305</text><text x="1400" y="590" text-anchor="middle" class="label">206 / 306</text><text x="1560" y="590" text-anchor="middle" class="label">207 / 307</text>
  <!-- room204 private access and door -->
  <path d="M1096 564H1160V660" class="wall"/><use href="#doorDown" transform="translate(1110 660)"/>
  <rect x="1000" y="660" width="64" height="80" fill="#edf9fb" stroke="#248a9c" stroke-width="2"/><use href="#bath" transform="translate(1000 660)"/><use href="#doorRight" transform="translate(1064 684)"/><use href="#bed" transform="translate(1012 760)"/><use href="#wardrobe" transform="translate(1088 812)"/><use href="#desk" transform="translate(1088 755)"/><use href="#tv" transform="translate(1088 742)"/>
  <!-- rooms205-207 -->
  <rect x="1160" y="564" width="64" height="88" fill="#edf9fb" stroke="#248a9c" stroke-width="2"/><use href="#bath" transform="translate(1160 568)"/><use href="#doorRight" transform="translate(1224 588)"/><use href="#doorDown" transform="translate(1260 564)"/><use href="#bed" transform="translate(1248 690) rotate(90 0 0)"/><use href="#wardrobe" transform="translate(1172 816)"/><use href="#desk" transform="translate(1172 755)"/><use href="#tv" transform="translate(1268 670) rotate(90 0 0)"/>
  <rect x="1320" y="564" width="64" height="88" fill="#edf9fb" stroke="#248a9c" stroke-width="2"/><use href="#bath" transform="translate(1320 568)"/><use href="#doorRight" transform="translate(1384 588)"/><use href="#doorDown" transform="translate(1420 564)"/><use href="#bed" transform="translate(1448 690) rotate(90 0 0)"/><use href="#wardrobe" transform="translate(1332 816)"/><use href="#desk" transform="translate(1332 755)"/><use href="#tv" transform="translate(1428 670) rotate(90 0 0)"/>
  <rect x="1480" y="564" width="64" height="88" fill="#edf9fb" stroke="#248a9c" stroke-width="2"/><use href="#bath" transform="translate(1480 568)"/><use href="#doorRight" transform="translate(1544 588)"/><use href="#doorDown" transform="translate(1594 564)"/><use href="#bed" transform="translate(1608 690) rotate(90 0 0)"/><use href="#wardrobe" transform="translate(1492 816)"/><use href="#desk" transform="translate(1492 755)"/><use href="#tv" transform="translate(1588 670) rotate(90 0 0)"/>

  <!-- rear balcony doors/windows and outdoor AC units -->
  <g class="window"><line x1="1025" y1="860" x2="1135" y2="860"/><line x1="1185" y1="860" x2="1295" y2="860"/><line x1="1345" y1="860" x2="1455" y2="860"/><line x1="1505" y1="860" x2="1615" y2="860"/></g>
  <g class="sliding"><line x1="1040" y1="865" x2="1120" y2="865"/><line x1="1200" y1="865" x2="1280" y2="865"/><line x1="1360" y1="865" x2="1440" y2="865"/><line x1="1520" y1="865" x2="1600" y2="865"/></g>
  <g class="furn"><rect x="1008" y="884" width="28" height="20"/><rect x="1168" y="884" width="28" height="20"/><rect x="1328" y="884" width="28" height="20"/><rect x="1488" y="884" width="28" height="20"/></g><text x="1038" y="918" class="tiny">空调外机靠墙集中</text>

  <!-- smoke/fire devices in upper floor -->
  <g><use href="#smoke" transform="translate(1060 330)"/><use href="#smoke" transform="translate(1240 380)"/><use href="#smoke" transform="translate(1400 380)"/><use href="#smoke" transform="translate(1560 330)"/><use href="#smoke" transform="translate(1080 790)"/><use href="#smoke" transform="translate(1240 750)"/><use href="#smoke" transform="translate(1400 750)"/><use href="#smoke" transform="translate(1560 750)"/><use href="#smoke" transform="translate(1320 534)"/><use href="#ext" transform="translate(1040 534)"/><use href="#ext" transform="translate(1600 534)"/><use href="#ext" transform="translate(1320 534)"/></g>
  <text x="1080" y="478" text-anchor="middle" class="tiny">安全出口←</text><text x="1560" y="478" text-anchor="middle" class="tiny">→安全出口</text>

  <!-- columns upper floor -->
  <g><use href="#column" transform="translate(1000 260)"/><use href="#column" transform="translate(1160 260)"/><use href="#column" transform="translate(1320 260)"/><use href="#column" transform="translate(1480 260)"/><use href="#column" transform="translate(1640 260)"/><use href="#column" transform="translate(1000 460)"/><use href="#column" transform="translate(1160 460)"/><use href="#column" transform="translate(1320 460)"/><use href="#column" transform="translate(1480 460)"/><use href="#column" transform="translate(1640 460)"/><use href="#column" transform="translate(1000 660)"/><use href="#column" transform="translate(1160 660)"/><use href="#column" transform="translate(1320 660)"/><use href="#column" transform="translate(1480 660)"/><use href="#column" transform="translate(1640 660)"/><use href="#column" transform="translate(1000 860)"/><use href="#column" transform="translate(1160 860)"/><use href="#column" transform="translate(1320 860)"/><use href="#column" transform="translate(1480 860)"/><use href="#column" transform="translate(1640 860)"/></g>

  <!-- dimensions -->
  <line x1="80" y1="225" x2="720" y2="225" class="dimension"/><text x="400" y="220" text-anchor="middle" class="dim">16m（4m＋4m＋4m＋4m）</text><line x1="740" y1="240" x2="740" y2="840" class="dimension"/><text x="760" y="540" text-anchor="middle" class="dim" transform="rotate(90 760 540)">一层进深15m</text>
  <line x1="1000" y1="185" x2="1640" y2="185" class="dimension"/><text x="1320" y="180" text-anchor="middle" class="dim">16m</text><line x1="1660" y1="200" x2="1660" y2="920" class="dimension"/><text x="1682" y="560" text-anchor="middle" class="dim" transform="rotate(90 1682 560)">二、三层总进深18m＝1.5＋15＋1.5m</text>

  <!-- legend and notes -->
  <rect x="80" y="965" width="1720" height="295" rx="12" fill="#fff" stroke="#b3bac5" stroke-width="2"/>
  <text x="110" y="1005" class="head">图例与必须深化的内容</text>
  <use href="#doorUp" transform="translate(115 1040) scale(.75)"/><text x="155" y="1046" class="small">弧线表示平开门方向；客房门向房内开，卫生间门向客房开；阳台采用推拉门。</text>
  <use href="#smoke" transform="translate(120 1080)"/><text x="150" y="1085" class="small">独立感烟探测器</text><use href="#ext" transform="translate(310 1080)"/><text x="340" y="1085" class="small">灭火器点位；走道两端及中部设置应急照明、疏散指示。</text>
  <text x="110" y="1122" class="small">1. 每间客房目前按1.5×2.0m床、衣柜、书桌、电视、行李位置和独立卫生间布置；最终净尺寸需扣除柱、墙、抹灰及管井。</text>
  <text x="110" y="1152" class="small">2. 卫生间集中靠公共走道和交通核心布置，排水立管上下对齐；淋浴区做降板、防水和同层排水时须由给排水、结构专业共同确认。</text>
  <text x="110" y="1182" class="small">3. 两个楼梯间应采用不燃材料并与商铺、客房区防火分隔；楼梯门、防火门等级和开启方向由当地消防设计确定，图中不得直接作为采购依据。</text>
  <text x="110" y="1212" class="small">4. 前后1.5m按开放阳台绘制，不布置卫生间、床、楼梯或固定重设备；封闭使用会改变面积、消防、节能和结构计算。</text>
  <text x="110" y="1242" class="label">本图已经表达空间和使用关系，但仍是方案图；正式施工必须补充墙厚、门窗编号、楼梯剖面、结构梁板、给排水、电气、消防及装修节点。</text>
</svg>
